{"glyphs":{"0":{"ha":843,"x_min":88,"x_max":756,"o":"m 422 -14 q 176 108 265 -14 q 88 458 88 229 q 176 809 88 688 q 422 931 265 931 q 667 809 579 931 q 756 458 756 688 q 667 108 756 229 q 422 -14 579 -14 m 422 49 q 565 95 507 49 q 654 233 624 142 q 685 458 685 325 q 654 683 685 592 q 565 822 624 775 q 422 868 507 868 q 278 822 338 868 q 189 683 219 775 q 158 458 158 592 q 189 234 158 326 q 278 95 219 142 q 422 49 338 49 z "},"1":{"ha":493,"x_min":32,"x_max":358,"o":"m 289 0 l 289 726 q 290 774 289 750 q 290 824 290 799 q 182 728 246 768 q 50 671 118 689 l 32 733 q 100 759 63 742 q 176 801 138 776 q 246 856 214 826 q 296 917 278 885 l 358 917 l 358 0 l 289 0 z "},"2":{"ha":778,"x_min":69,"x_max":703,"o":"m 90 0 l 90 57 q 317 240 221 160 q 476 390 413 321 q 571 522 540 458 q 601 651 601 585 q 541 808 601 750 q 376 867 481 867 q 203 799 268 867 q 131 617 139 731 l 69 651 q 117 799 78 736 q 222 896 156 861 q 378 931 288 931 q 501 911 446 931 q 594 855 556 892 q 653 767 632 818 q 674 651 674 715 q 622 470 674 558 q 463 285 569 382 q 192 64 356 188 l 192 63 q 220 63 203 63 q 255 64 238 64 q 283 64 272 64 l 703 64 l 703 0 l 90 0 z "},"3":{"ha":764,"x_min":57,"x_max":690,"o":"m 385 -14 q 174 44 263 -14 q 57 200 85 101 l 125 236 q 173 138 139 179 q 260 73 207 96 q 390 50 314 50 q 510 75 460 50 q 590 146 561 100 q 618 254 618 192 q 593 353 618 314 q 522 411 568 392 q 410 431 475 431 q 369 430 388 431 q 335 426 350 429 l 335 496 q 365 494 349 494 q 394 494 381 494 q 546 543 496 494 q 596 683 596 592 q 542 819 596 771 q 392 867 488 867 q 240 824 299 867 q 156 707 181 781 l 90 739 q 154 840 111 797 q 258 908 197 883 q 393 932 319 932 q 543 901 482 932 q 636 815 604 869 q 668 690 668 761 q 655 606 668 644 q 619 537 642 567 q 564 489 596 507 q 493 464 532 471 l 493 463 q 575 443 539 460 q 637 399 611 426 q 676 333 663 371 q 690 253 690 296 q 651 114 690 174 q 544 20 613 54 q 385 -14 475 -14 z "},"4":{"ha":808,"x_min":57,"x_max":758,"o":"m 513 0 l 513 261 l 57 261 l 57 314 q 57 314 57 314 q 57 314 57 314 l 493 917 l 582 917 l 582 321 l 758 321 l 758 261 l 582 261 l 582 0 l 513 0 m 132 321 l 513 321 l 513 740 q 513 799 513 768 q 515 858 514 829 l 513 858 q 476 797 497 829 q 436 738 454 764 l 132 321 q 132 321 132 321 q 132 321 132 321 z "},"5":{"ha":778,"x_min":79,"x_max":700,"o":"m 390 -14 q 191 39 271 -14 q 79 201 111 92 l 146 235 q 228 98 167 146 q 392 50 289 50 q 516 78 464 50 q 598 159 568 107 q 628 279 628 211 q 600 402 628 351 q 522 481 572 453 q 401 508 471 508 q 297 495 342 508 q 220 459 253 482 q 165 406 188 436 l 106 415 l 154 917 l 661 917 l 661 853 l 213 853 l 176 497 l 174 479 l 175 479 q 265 545 208 518 q 411 572 322 572 q 563 536 499 572 q 663 435 626 500 q 700 282 700 369 q 677 160 700 215 q 613 67 654 106 q 516 7 572 28 q 390 -14 460 -14 z "},"6":{"ha":803,"x_min":88,"x_max":726,"o":"m 439 931 q 561 910 510 931 q 649 849 613 889 q 707 750 685 808 l 642 719 q 572 826 622 785 q 435 867 522 867 q 308 832 361 867 q 219 738 254 797 q 169 601 185 678 q 153 439 153 524 q 154 394 153 418 q 158 346 156 371 l 163 346 q 213 469 172 421 q 312 541 254 517 q 431 565 369 565 q 588 530 522 565 q 690 429 654 494 q 726 275 726 364 q 689 122 726 188 q 584 22 651 57 q 424 -14 517 -14 q 238 44 314 -14 q 125 207 163 101 q 88 458 88 313 q 133 719 88 614 q 259 877 179 824 q 439 931 339 931 m 425 500 q 303 469 356 500 q 223 387 251 438 q 194 275 194 336 q 224 163 194 214 q 304 82 253 113 q 422 51 356 51 q 592 113 531 51 q 654 278 654 174 q 626 394 654 344 q 548 472 599 444 q 425 500 497 500 z "},"7":{"ha":736,"x_min":44,"x_max":704,"o":"m 44 917 l 704 917 l 704 853 q 515 599 590 732 q 401 317 440 465 q 356 0 363 169 l 283 0 q 331 318 290 165 q 451 611 372 471 q 647 872 531 751 l 657 853 l 44 853 l 44 917 z "},"8":{"ha":821,"x_min":86,"x_max":735,"o":"m 410 929 q 560 901 496 929 q 659 820 624 872 q 694 697 694 768 q 651 563 694 618 q 532 483 608 507 l 532 482 q 680 395 625 458 q 735 242 735 332 q 694 108 735 165 q 581 18 653 50 q 410 -14 508 -14 q 241 18 314 -14 q 127 108 168 50 q 86 242 86 165 q 142 395 86 332 q 289 482 197 458 l 289 483 q 170 562 214 507 q 126 697 126 617 q 162 820 126 768 q 261 901 197 872 q 410 929 325 929 m 410 865 q 256 819 314 865 q 199 690 199 772 q 257 562 199 610 q 410 514 315 514 q 565 562 507 514 q 622 690 622 610 q 565 819 622 772 q 410 865 508 865 m 410 50 q 543 75 486 50 q 631 144 600 100 q 663 247 663 188 q 631 353 663 308 q 543 424 600 399 q 410 449 486 449 q 278 424 335 449 q 190 353 221 399 q 158 247 158 308 q 190 144 158 188 q 278 75 221 100 q 410 50 335 50 z "},"9":{"ha":824,"x_min":89,"x_max":736,"o":"m 396 931 q 584 872 508 931 q 698 708 660 814 q 736 458 736 603 q 695 198 736 303 q 578 40 654 93 q 397 -14 503 -14 q 203 40 283 -14 q 92 188 122 93 l 160 222 q 240 99 181 147 q 399 50 299 50 q 531 84 478 50 q 615 177 585 118 q 660 315 646 236 q 674 481 674 393 q 671 530 674 506 q 665 576 668 554 l 661 576 q 610 449 653 499 q 509 375 568 399 q 389 351 450 351 q 231 386 299 351 q 126 485 164 421 q 89 635 89 549 q 126 792 89 726 q 232 894 163 857 q 396 931 301 931 m 397 865 q 224 803 286 865 q 161 633 161 740 q 225 476 161 535 q 394 417 289 417 q 517 447 464 417 q 599 529 569 478 q 629 644 629 581 q 599 758 629 708 q 516 836 568 807 q 397 865 464 865 z "},"A":{"ha":868,"x_min":26,"x_max":842,"o":"m 842 0 l 768 0 l 653 288 l 215 288 l 100 0 l 26 0 l 393 917 l 475 917 l 842 0 m 240 351 l 628 351 l 433 849 l 240 351 z "},"Á":{"ha":868,"x_min":26,"x_max":842,"o":"m 842 0 l 768 0 l 653 288 l 215 288 l 100 0 l 26 0 l 393 917 l 475 917 l 842 0 m 240 351 l 628 351 l 433 849 l 240 351 m 497 1246 l 571 1246 l 456 1032 l 399 1032 l 497 1246 z "},"Ă":{"ha":868,"x_min":26,"x_max":842,"o":"m 842 0 l 768 0 l 653 288 l 215 288 l 100 0 l 26 0 l 393 917 l 475 917 l 842 0 m 240 351 l 628 351 l 433 849 l 240 351 m 622 1214 q 572 1077 622 1128 q 435 1026 521 1026 q 298 1077 349 1026 q 247 1214 247 1128 l 304 1214 q 338 1118 304 1157 q 435 1079 372 1079 q 532 1118 499 1079 q 565 1214 565 1157 l 622 1214 z "},"Ắ":{"ha":868,"x_min":26,"x_max":842,"o":"m 622 1214 q 571 1077 622 1128 q 435 1026 519 1026 q 297 1077 349 1026 q 246 1214 246 1128 l 303 1214 q 338 1118 304 1157 q 435 1079 372 1079 q 531 1118 497 1079 q 565 1214 564 1157 l 622 1214 m 394 1228 l 474 1414 l 546 1414 l 449 1228 l 394 1228 m 842 0 l 768 0 l 653 288 l 215 288 l 100 0 l 26 0 l 393 917 l 475 917 l 842 0 m 240 351 l 628 351 l 433 849 l 240 351 z "},"Ặ":{"ha":868,"x_min":26,"x_max":842,"o":"m 842 0 l 768 0 l 653 288 l 215 288 l 100 0 l 26 0 l 393 917 l 475 917 l 842 0 m 240 351 l 628 351 l 433 849 l 240 351 m 435 -224 q 413 -215 421 -224 q 404 -193 404 -207 q 413 -172 404 -179 q 435 -164 421 -164 q 457 -172 449 -164 q 465 -193 465 -179 q 457 -215 465 -207 q 435 -224 449 -224 m 622 1214 q 572 1077 622 1128 q 435 1026 521 1026 q 298 1077 349 1026 q 247 1214 247 1128 l 304 1214 q 338 1118 304 1157 q 435 1079 372 1079 q 532 1118 499 1079 q 565 1214 565 1157 l 622 1214 z "},"Ằ":{"ha":868,"x_min":26,"x_max":842,"o":"m 622 1214 q 571 1077 622 1128 q 435 1026 519 1026 q 297 1077 349 1026 q 246 1214 246 1128 l 303 1214 q 338 1118 304 1157 q 435 1079 372 1079 q 531 1118 497 1079 q 565 1214 564 1157 l 622 1214 m 475 1228 l 419 1228 l 324 1414 l 394 1414 l 475 1228 m 842 0 l 768 0 l 653 288 l 215 288 l 100 0 l 26 0 l 393 917 l 475 917 l 842 0 m 240 351 l 628 351 l 433 849 l 240 351 z "},"Ẳ":{"ha":868,"x_min":26,"x_max":842,"o":"m 622 1214 q 571 1077 622 1128 q 435 1026 519 1026 q 297 1077 349 1026 q 246 1214 246 1128 l 303 1214 q 338 1118 304 1157 q 435 1079 372 1079 q 531 1118 497 1079 q 565 1214 564 1157 l 622 1214 m 436 1214 l 411 1244 q 467 1288 449 1267 q 485 1339 485 1308 q 469 1379 485 1364 q 426 1394 453 1394 q 383 1381 400 1394 q 357 1347 367 1368 l 314 1376 q 362 1429 331 1410 q 435 1449 393 1449 q 491 1436 467 1449 q 529 1401 515 1424 q 543 1349 543 1378 q 531 1293 543 1318 q 495 1249 519 1268 q 436 1214 471 1229 m 842 0 l 768 0 l 653 288 l 215 288 l 100 0 l 26 0 l 393 917 l 475 917 l 842 0 m 240 351 l 628 351 l 433 849 l 240 351 z "},"Ẵ":{"ha":868,"x_min":26,"x_max":842,"o":"m 622 1214 q 572 1077 622 1128 q 435 1026 521 1026 q 297 1077 349 1026 q 246 1214 246 1128 l 303 1214 q 338 1118 304 1157 q 435 1079 372 1079 q 531 1118 497 1079 q 565 1214 564 1157 l 622 1214 m 660 1411 q 617 1301 651 1336 q 528 1267 583 1267 q 465 1281 489 1267 q 422 1312 440 1294 q 386 1343 404 1329 q 340 1357 368 1357 q 290 1335 307 1357 q 264 1268 274 1313 l 208 1268 q 251 1378 217 1343 q 342 1414 285 1414 q 403 1400 379 1414 q 446 1369 428 1386 q 482 1338 464 1351 q 528 1324 500 1324 q 578 1346 561 1324 q 604 1411 596 1368 l 660 1411 m 842 0 l 768 0 l 653 288 l 215 288 l 100 0 l 26 0 l 393 917 l 475 917 l 842 0 m 240 351 l 628 351 l 433 849 l 240 351 z "},"Â":{"ha":868,"x_min":26,"x_max":842,"o":"m 842 0 l 768 0 l 653 288 l 215 288 l 100 0 l 26 0 l 393 917 l 475 917 l 842 0 m 240 351 l 628 351 l 433 849 l 240 351 m 626 1032 l 560 1032 l 435 1194 l 310 1032 l 243 1032 l 396 1242 l 474 1242 l 626 1032 z "},"Ấ":{"ha":868,"x_min":26,"x_max":842,"o":"m 628 1026 l 563 1026 l 435 1196 l 306 1026 l 240 1026 l 396 1243 l 474 1243 l 628 1026 m 672 1378 l 738 1378 l 636 1186 l 585 1186 l 672 1378 m 842 0 l 768 0 l 653 288 l 215 288 l 100 0 l 26 0 l 393 917 l 475 917 l 842 0 m 240 351 l 628 351 l 433 849 l 240 351 z "},"Ậ":{"ha":868,"x_min":26,"x_max":842,"o":"m 842 0 l 768 0 l 653 288 l 215 288 l 100 0 l 26 0 l 393 917 l 475 917 l 842 0 m 240 351 l 628 351 l 433 849 l 240 351 m 435 -224 q 413 -215 421 -224 q 404 -193 404 -207 q 413 -172 404 -179 q 435 -164 421 -164 q 457 -172 449 -164 q 465 -193 465 -179 q 457 -215 465 -207 q 435 -224 449 -224 m 626 1032 l 560 1032 l 435 1194 l 310 1032 l 243 1032 l 396 1242 l 474 1242 l 626 1032 z "},"Ầ":{"ha":868,"x_min":26,"x_max":842,"o":"m 628 1026 l 563 1026 l 435 1196 l 306 1026 l 240 1026 l 396 1243 l 474 1243 l 628 1026 m 572 1378 l 660 1186 l 608 1186 l 507 1378 l 572 1378 m 842 0 l 768 0 l 653 288 l 215 288 l 100 0 l 26 0 l 393 917 l 475 917 l 842 0 m 240 351 l 628 351 l 433 849 l 240 351 z "},"Ẩ":{"ha":868,"x_min":26,"x_max":842,"o":"m 628 1026 l 563 1026 l 435 1196 l 306 1026 l 240 1026 l 396 1243 l 474 1243 l 628 1026 m 618 1158 l 592 1190 q 649 1233 631 1211 q 667 1285 667 1254 q 651 1324 667 1308 q 607 1339 635 1339 q 565 1326 582 1339 q 539 1293 549 1314 l 494 1321 q 542 1375 511 1356 q 617 1394 574 1394 q 673 1381 649 1394 q 711 1345 697 1368 q 725 1294 725 1322 q 713 1238 725 1264 q 676 1193 700 1213 q 618 1158 651 1174 m 842 0 l 768 0 l 653 288 l 215 288 l 100 0 l 26 0 l 393 917 l 475 917 l 842 0 m 240 351 l 628 351 l 433 849 l 240 351 z "},"Ẫ":{"ha":868,"x_min":26,"x_max":842,"o":"m 628 1026 l 563 1026 l 435 1196 l 306 1026 l 240 1026 l 396 1243 l 474 1243 l 628 1026 m 660 1425 q 617 1315 651 1350 q 528 1279 583 1279 q 465 1293 489 1279 q 422 1324 440 1307 q 385 1356 404 1342 q 340 1369 367 1369 q 290 1348 307 1369 q 264 1282 274 1326 l 208 1282 q 251 1392 217 1357 q 342 1426 285 1426 q 403 1413 379 1426 q 446 1382 428 1400 q 482 1350 464 1364 q 526 1336 500 1336 q 578 1358 561 1336 q 604 1425 596 1381 l 660 1425 m 842 0 l 768 0 l 653 288 l 215 288 l 100 0 l 26 0 l 393 917 l 475 917 l 842 0 m 240 351 l 628 351 l 433 849 l 240 351 z "},"Ȁ":{"ha":868,"x_min":26,"x_max":842,"o":"m 842 0 l 768 0 l 653 288 l 215 288 l 100 0 l 26 0 l 393 917 l 475 917 l 842 0 m 240 351 l 628 351 l 433 849 l 240 351 m 268 1246 l 367 1032 l 308 1032 l 194 1246 l 268 1246 m 476 1246 l 574 1032 l 517 1032 l 403 1246 l 476 1246 z "},"Ä":{"ha":868,"x_min":26,"x_max":842,"o":"m 842 0 l 768 0 l 653 288 l 215 288 l 100 0 l 26 0 l 393 917 l 475 917 l 842 0 m 240 351 l 628 351 l 433 849 l 240 351 m 303 1154 q 343 1139 328 1154 q 358 1097 358 1124 q 343 1057 358 1072 q 303 1042 328 1042 q 262 1057 278 1042 q 246 1097 246 1072 q 262 1139 246 1124 q 303 1154 278 1154 m 565 1154 q 607 1139 592 1154 q 622 1097 622 1124 q 607 1057 622 1072 q 565 1042 592 1042 q 525 1057 540 1042 q 510 1097 510 1072 q 525 1139 510 1124 q 565 1154 540 1154 z "},"Ạ":{"ha":868,"x_min":26,"x_max":842,"o":"m 842 0 l 768 0 l 653 288 l 215 288 l 100 0 l 26 0 l 393 917 l 475 917 l 842 0 m 240 351 l 628 351 l 433 849 l 240 351 m 435 -224 q 413 -215 421 -224 q 404 -193 404 -207 q 413 -172 404 -179 q 435 -164 421 -164 q 457 -172 449 -164 q 465 -193 465 -179 q 457 -215 465 -207 q 435 -224 449 -224 z "},"À":{"ha":868,"x_min":26,"x_max":842,"o":"m 842 0 l 768 0 l 653 288 l 215 288 l 100 0 l 26 0 l 393 917 l 475 917 l 842 0 m 240 351 l 628 351 l 433 849 l 240 351 m 369 1246 l 467 1032 l 410 1032 l 296 1246 l 369 1246 z "},"Ả":{"ha":868,"x_min":26,"x_max":842,"o":"m 842 0 l 768 0 l 653 288 l 215 288 l 100 0 l 26 0 l 393 917 l 475 917 l 842 0 m 240 351 l 628 351 l 433 849 l 240 351 m 436 993 l 411 1025 q 468 1067 450 1046 q 486 1119 486 1089 q 469 1158 486 1143 q 426 1174 453 1174 q 385 1161 401 1174 q 358 1128 368 1149 l 314 1156 q 362 1210 331 1190 q 435 1229 393 1229 q 492 1216 468 1229 q 530 1180 515 1203 q 544 1129 544 1157 q 532 1073 544 1099 q 495 1028 519 1047 q 436 993 471 1008 z "},"Ȃ":{"ha":868,"x_min":26,"x_max":842,"o":"m 842 0 l 768 0 l 653 288 l 215 288 l 100 0 l 26 0 l 393 917 l 475 917 l 842 0 m 240 351 l 628 351 l 433 849 l 240 351 m 622 1021 l 565 1021 q 532 1117 565 1078 q 435 1156 499 1156 q 338 1117 372 1156 q 304 1021 304 1078 l 247 1021 q 298 1157 247 1106 q 435 1208 349 1208 q 572 1157 521 1208 q 622 1021 622 1106 z "},"Ā":{"ha":868,"x_min":26,"x_max":842,"o":"m 842 0 l 768 0 l 653 288 l 215 288 l 100 0 l 26 0 l 393 917 l 475 917 l 842 0 m 240 351 l 628 351 l 433 849 l 240 351 m 650 1114 l 650 1056 l 219 1056 l 219 1114 l 650 1114 z "},"Ą":{"ha":868,"x_min":26,"x_max":858,"o":"m 751 -290 q 677 -276 710 -290 q 626 -233 644 -261 q 607 -162 607 -204 q 651 -54 607 -100 q 797 28 694 -8 l 842 0 q 733 -49 772 -24 q 679 -102 694 -75 q 664 -158 664 -129 q 691 -219 664 -199 q 758 -239 718 -239 q 806 -233 785 -239 q 843 -217 826 -228 l 858 -262 q 813 -283 840 -276 q 751 -290 785 -290 m 842 0 l 768 0 l 653 288 l 215 288 l 100 0 l 26 0 l 393 917 l 475 917 l 842 0 m 240 351 l 628 351 l 433 849 l 240 351 z "},"Å":{"ha":868,"x_min":26,"x_max":842,"o":"m 842 0 l 768 0 l 653 288 l 215 288 l 100 0 l 26 0 l 393 917 l 475 917 l 842 0 m 240 351 l 628 351 l 433 849 l 240 351 m 431 1150 q 536 1111 496 1150 q 576 1011 576 1072 q 536 910 576 950 q 431 871 496 871 q 326 910 367 871 q 285 1011 285 950 q 326 1111 285 1072 q 431 1150 367 1150 m 431 1104 q 363 1078 390 1104 q 336 1011 336 1051 q 363 944 336 971 q 431 917 390 917 q 499 944 472 917 q 526 1011 526 971 q 499 1078 526 1051 q 431 1104 472 1104 z "},"Ǻ":{"ha":868,"x_min":26,"x_max":842,"o":"m 842 0 l 768 0 l 653 288 l 215 288 l 100 0 l 26 0 l 393 917 l 475 917 l 842 0 m 240 351 l 628 351 l 433 849 l 240 351 m 431 1150 q 536 1111 496 1150 q 576 1011 576 1072 q 536 910 576 950 q 431 871 496 871 q 326 910 367 871 q 285 1011 285 950 q 326 1111 285 1072 q 431 1150 367 1150 m 431 1104 q 363 1078 390 1104 q 336 1011 336 1051 q 363 944 336 971 q 431 917 390 917 q 499 944 472 917 q 526 1011 526 971 q 499 1078 526 1051 q 431 1104 472 1104 m 497 1447 l 571 1447 l 456 1233 l 399 1233 l 497 1447 z "},"Ã":{"ha":868,"x_min":26,"x_max":842,"o":"m 842 0 l 768 0 l 653 288 l 215 288 l 100 0 l 26 0 l 393 917 l 475 917 l 842 0 m 240 351 l 628 351 l 433 849 l 240 351 m 671 1196 q 648 1111 665 1146 q 603 1060 631 1076 q 535 1043 575 1043 q 471 1058 497 1043 q 424 1090 444 1072 q 383 1123 403 1108 q 338 1138 363 1138 q 283 1112 301 1138 q 254 1042 264 1086 l 199 1042 q 242 1156 207 1118 q 339 1194 278 1194 q 400 1180 374 1194 q 447 1147 426 1165 q 488 1115 468 1129 q 533 1100 508 1100 q 589 1125 571 1100 q 615 1196 607 1150 l 671 1196 z "},"Æ":{"ha":1281,"x_min":-1,"x_max":1222,"o":"m 688 64 l 1222 64 l 1222 0 l 618 0 l 618 322 l 272 322 l 78 0 l -1 0 l 557 917 l 1201 917 l 1201 853 l 688 853 l 688 497 l 1088 497 l 1088 433 l 688 433 l 688 64 m 310 388 l 618 388 l 618 853 l 592 853 l 310 388 z "},"Ǽ":{"ha":1281,"x_min":-1,"x_max":1222,"o":"m 688 64 l 1222 64 l 1222 0 l 618 0 l 618 322 l 272 322 l 78 0 l -1 0 l 557 917 l 1201 917 l 1201 853 l 688 853 l 688 497 l 1088 497 l 1088 433 l 688 433 l 688 64 m 310 388 l 618 388 l 618 853 l 592 853 l 310 388 m 715 1246 l 789 1246 l 674 1032 l 617 1032 l 715 1246 z "},"B":{"ha":878,"x_min":144,"x_max":792,"o":"m 144 0 l 144 917 l 468 917 q 693 853 619 917 q 767 674 767 790 q 724 538 767 594 q 599 465 681 482 l 599 464 q 740 391 688 450 q 792 247 792 332 q 708 65 792 131 q 468 0 625 0 l 144 0 m 214 64 l 482 64 q 659 111 600 64 q 718 247 718 158 q 659 384 718 338 q 482 431 600 431 l 214 431 l 214 64 m 214 494 l 469 494 q 693 674 693 494 q 469 853 693 853 l 214 853 l 214 494 z "},"C":{"ha":929,"x_min":86,"x_max":869,"o":"m 869 232 q 791 100 843 156 q 666 15 739 44 q 503 -14 593 -14 q 284 44 378 -14 q 138 207 190 101 q 86 458 86 313 q 138 710 86 604 q 283 873 189 815 q 501 931 376 931 q 665 905 594 931 q 783 828 735 879 q 857 704 832 778 l 789 672 q 688 817 757 768 q 506 867 618 867 q 324 817 403 867 q 203 677 246 768 q 160 458 160 586 q 202 240 160 332 q 322 99 244 149 q 503 50 400 50 q 692 103 614 50 q 800 258 769 157 l 869 232 z "},"Ć":{"ha":929,"x_min":86,"x_max":869,"o":"m 869 232 q 791 100 843 156 q 666 15 739 44 q 503 -14 593 -14 q 284 44 378 -14 q 138 207 190 101 q 86 458 86 313 q 138 710 86 604 q 283 873 189 815 q 501 931 376 931 q 665 905 594 931 q 783 828 735 879 q 857 704 832 778 l 789 672 q 688 817 757 768 q 506 867 618 867 q 324 817 403 867 q 203 677 246 768 q 160 458 160 586 q 202 240 160 332 q 322 99 244 149 q 503 50 400 50 q 692 103 614 50 q 800 258 769 157 l 869 232 m 558 1246 l 632 1246 l 517 1032 l 460 1032 l 558 1246 z "},"Č":{"ha":929,"x_min":86,"x_max":869,"o":"m 869 232 q 791 100 843 156 q 666 15 739 44 q 503 -14 593 -14 q 284 44 378 -14 q 138 207 190 101 q 86 458 86 313 q 138 710 86 604 q 283 873 189 815 q 501 931 376 931 q 665 905 594 931 q 783 828 735 879 q 857 704 832 778 l 789 672 q 688 817 757 768 q 506 867 618 867 q 324 817 403 867 q 203 677 246 768 q 160 458 160 586 q 202 240 160 332 q 322 99 244 149 q 503 50 400 50 q 692 103 614 50 q 800 258 769 157 l 869 232 m 688 1242 l 535 1032 l 457 1032 l 304 1242 l 371 1242 l 496 1079 l 621 1242 l 688 1242 z "},"Ç":{"ha":929,"x_min":86,"x_max":869,"o":"m 869 232 q 791 100 843 156 q 666 15 739 44 q 503 -14 593 -14 q 284 44 378 -14 q 138 207 190 101 q 86 458 86 313 q 138 710 86 604 q 283 873 189 815 q 501 931 376 931 q 665 905 594 931 q 783 828 735 879 q 857 704 832 778 l 789 672 q 688 817 757 768 q 506 867 618 867 q 324 817 403 867 q 203 677 246 768 q 160 458 160 586 q 202 240 160 332 q 322 99 244 149 q 503 50 400 50 q 692 103 614 50 q 800 258 769 157 l 869 232 m 431 6 l 475 24 q 584 -49 553 -7 q 615 -147 615 -92 q 574 -249 615 -208 q 469 -290 533 -290 q 394 -278 426 -290 q 338 -242 363 -265 l 357 -190 q 406 -223 381 -211 q 463 -235 431 -235 q 531 -208 504 -235 q 557 -135 557 -182 q 530 -63 557 -94 q 431 6 503 -32 z "},"Ḉ":{"ha":929,"x_min":86,"x_max":869,"o":"m 869 232 q 791 100 843 156 q 666 15 739 44 q 503 -14 593 -14 q 284 44 378 -14 q 138 207 190 101 q 86 458 86 313 q 138 710 86 604 q 283 873 189 815 q 501 931 376 931 q 665 905 594 931 q 783 828 735 879 q 857 704 832 778 l 789 672 q 688 817 757 768 q 506 867 618 867 q 324 817 403 867 q 203 677 246 768 q 160 458 160 586 q 202 240 160 332 q 322 99 244 149 q 503 50 400 50 q 692 103 614 50 q 800 258 769 157 l 869 232 m 431 6 l 475 24 q 584 -49 553 -7 q 615 -147 615 -92 q 574 -249 615 -208 q 469 -290 533 -290 q 394 -278 426 -290 q 338 -242 363 -265 l 357 -190 q 406 -223 381 -211 q 463 -235 431 -235 q 531 -208 504 -235 q 557 -135 557 -182 q 530 -63 557 -94 q 431 6 503 -32 m 558 1246 l 632 1246 l 517 1032 l 460 1032 l 558 1246 z "},"Ĉ":{"ha":929,"x_min":86,"x_max":869,"o":"m 869 232 q 791 100 843 156 q 666 15 739 44 q 503 -14 593 -14 q 284 44 378 -14 q 138 207 190 101 q 86 458 86 313 q 138 710 86 604 q 283 873 189 815 q 501 931 376 931 q 665 905 594 931 q 783 828 735 879 q 857 704 832 778 l 789 672 q 688 817 757 768 q 506 867 618 867 q 324 817 403 867 q 203 677 246 768 q 160 458 160 586 q 202 240 160 332 q 322 99 244 149 q 503 50 400 50 q 692 103 614 50 q 800 258 769 157 l 869 232 m 688 1032 l 621 1032 l 496 1194 l 371 1032 l 304 1032 l 457 1242 l 535 1242 l 688 1032 z "},"Ċ":{"ha":929,"x_min":86,"x_max":869,"o":"m 869 232 q 791 100 843 156 q 666 15 739 44 q 503 -14 593 -14 q 284 44 378 -14 q 138 207 190 101 q 86 458 86 313 q 138 710 86 604 q 283 873 189 815 q 501 931 376 931 q 665 905 594 931 q 783 828 735 879 q 857 704 832 778 l 789 672 q 688 817 757 768 q 506 867 618 867 q 324 817 403 867 q 203 677 246 768 q 160 458 160 586 q 202 240 160 332 q 322 99 244 149 q 503 50 400 50 q 692 103 614 50 q 800 258 769 157 l 869 232 m 496 1168 q 538 1152 522 1168 q 554 1110 554 1136 q 538 1067 554 1083 q 496 1051 522 1051 q 453 1067 469 1051 q 438 1110 438 1083 q 453 1152 438 1136 q 496 1168 469 1168 z "},"D":{"ha":976,"x_min":144,"x_max":890,"o":"m 433 917 q 772 801 653 917 q 890 465 890 685 q 772 119 890 239 q 433 0 653 0 l 144 0 l 144 917 l 433 917 m 439 64 q 720 168 622 64 q 818 465 818 272 q 720 752 818 651 q 439 853 622 853 l 214 853 l 214 64 l 439 64 z "},"Ǳ":{"ha":1779,"x_min":144,"x_max":1722,"o":"m 433 917 q 772 801 653 917 q 890 465 890 685 q 772 119 890 239 q 433 0 653 0 l 144 0 l 144 917 l 433 917 m 439 64 q 720 168 622 64 q 818 465 818 272 q 720 752 818 651 q 439 853 622 853 l 214 853 l 214 64 l 439 64 m 1076 39 l 1064 64 l 1722 64 l 1722 0 l 1014 0 l 1014 61 l 1638 878 l 1650 853 l 1026 853 l 1026 917 l 1700 917 l 1700 856 l 1076 39 z "},"Ǆ":{"ha":1779,"x_min":144,"x_max":1722,"o":"m 433 917 q 772 801 653 917 q 890 465 890 685 q 772 119 890 239 q 433 0 653 0 l 144 0 l 144 917 l 433 917 m 439 64 q 720 168 622 64 q 818 465 818 272 q 720 752 818 651 q 439 853 622 853 l 214 853 l 214 64 l 439 64 m 1076 39 l 1064 64 l 1722 64 l 1722 0 l 1014 0 l 1014 61 l 1638 878 l 1650 853 l 1026 853 l 1026 917 l 1700 917 l 1700 856 l 1076 39 m 1553 1242 l 1400 1032 l 1322 1032 l 1169 1242 l 1236 1242 l 1361 1079 l 1486 1242 l 1553 1242 z "},"Ð":{"ha":993,"x_min":22,"x_max":907,"o":"m 22 432 l 22 496 l 511 496 l 511 432 l 22 432 m 450 917 q 788 801 669 917 q 907 465 907 685 q 788 119 907 239 q 450 0 669 0 l 161 0 l 161 917 l 450 917 m 457 64 q 737 168 639 64 q 835 465 835 272 q 737 752 835 651 q 457 853 639 853 l 231 853 l 231 64 l 457 64 z "},"Ď":{"ha":976,"x_min":144,"x_max":890,"o":"m 433 917 q 772 801 653 917 q 890 465 890 685 q 772 119 890 239 q 433 0 653 0 l 144 0 l 144 917 l 433 917 m 439 64 q 720 168 622 64 q 818 465 818 272 q 720 752 818 651 q 439 853 622 853 l 214 853 l 214 64 l 439 64 m 663 1242 l 510 1032 l 432 1032 l 279 1242 l 346 1242 l 471 1079 l 596 1242 l 663 1242 z "},"Đ":{"ha":993,"x_min":22,"x_max":907,"o":"m 22 432 l 22 496 l 511 496 l 511 432 l 22 432 m 450 917 q 788 801 669 917 q 907 465 907 685 q 788 119 907 239 q 450 0 669 0 l 161 0 l 161 917 l 450 917 m 457 64 q 737 168 639 64 q 835 465 835 272 q 737 752 835 651 q 457 853 639 853 l 231 853 l 231 64 l 457 64 z "},"Ḍ":{"ha":976,"x_min":144,"x_max":890,"o":"m 433 917 q 772 801 653 917 q 890 465 890 685 q 772 119 890 239 q 433 0 653 0 l 144 0 l 144 917 l 433 917 m 439 64 q 720 168 622 64 q 818 465 818 272 q 720 752 818 651 q 439 853 622 853 l 214 853 l 214 64 l 439 64 m 457 -224 q 435 -215 443 -224 q 426 -193 426 -207 q 435 -172 426 -179 q 457 -164 443 -164 q 479 -172 471 -164 q 488 -193 488 -179 q 479 -215 488 -207 q 457 -224 471 -224 z "},"Ḏ":{"ha":976,"x_min":144,"x_max":890,"o":"m 433 917 q 772 801 653 917 q 890 465 890 685 q 772 119 890 239 q 433 0 653 0 l 144 0 l 144 917 l 433 917 m 439 64 q 720 168 622 64 q 818 465 818 272 q 720 752 818 651 q 439 853 622 853 l 214 853 l 214 64 l 439 64 m 672 -140 l 672 -199 l 242 -199 l 242 -140 l 672 -140 z "},"ǲ":{"ha":1674,"x_min":144,"x_max":1615,"o":"m 433 917 q 772 801 653 917 q 890 465 890 685 q 772 119 890 239 q 433 0 653 0 l 144 0 l 144 917 l 433 917 m 439 64 q 720 168 622 64 q 818 465 818 272 q 720 752 818 651 q 439 853 622 853 l 214 853 l 214 64 l 439 64 m 1040 0 l 1040 54 l 1449 556 l 1521 636 l 1411 635 l 1036 635 l 1036 694 l 1599 694 l 1599 640 l 1203 151 l 1119 58 l 1244 60 l 1615 60 l 1615 0 l 1040 0 z "},"ǅ":{"ha":1674,"x_min":144,"x_max":1615,"o":"m 433 917 q 772 801 653 917 q 890 465 890 685 q 772 119 890 239 q 433 0 653 0 l 144 0 l 144 917 l 433 917 m 439 64 q 720 168 622 64 q 818 465 818 272 q 720 752 818 651 q 439 853 622 853 l 214 853 l 214 64 l 439 64 m 1040 0 l 1040 54 l 1449 556 l 1521 636 l 1411 635 l 1036 635 l 1036 694 l 1599 694 l 1599 640 l 1203 151 l 1119 58 l 1244 60 l 1615 60 l 1615 0 l 1040 0 m 1506 1025 l 1351 810 l 1274 810 l 1119 1025 l 1183 1025 l 1313 857 l 1442 1025 l 1506 1025 z "},"E":{"ha":850,"x_min":144,"x_max":793,"o":"m 144 0 l 144 917 l 771 917 l 771 853 l 214 853 l 214 499 l 654 499 l 654 433 l 214 433 l 214 64 l 793 64 l 793 0 l 144 0 z "},"É":{"ha":850,"x_min":144,"x_max":793,"o":"m 144 0 l 144 917 l 771 917 l 771 853 l 214 853 l 214 499 l 654 499 l 654 433 l 214 433 l 214 64 l 793 64 l 793 0 l 144 0 m 519 1246 l 593 1246 l 478 1032 l 421 1032 l 519 1246 z "},"Ĕ":{"ha":850,"x_min":144,"x_max":793,"o":"m 144 0 l 144 917 l 771 917 l 771 853 l 214 853 l 214 499 l 654 499 l 654 433 l 214 433 l 214 64 l 793 64 l 793 0 l 144 0 m 646 1214 q 595 1077 646 1128 q 458 1026 544 1026 q 322 1077 372 1026 q 271 1214 271 1128 l 328 1214 q 362 1118 328 1157 q 458 1079 396 1079 q 556 1118 522 1079 q 589 1214 589 1157 l 646 1214 z "},"Ě":{"ha":850,"x_min":144,"x_max":793,"o":"m 144 0 l 144 917 l 771 917 l 771 853 l 214 853 l 214 499 l 654 499 l 654 433 l 214 433 l 214 64 l 793 64 l 793 0 l 144 0 m 650 1242 l 497 1032 l 419 1032 l 267 1242 l 333 1242 l 458 1079 l 583 1242 l 650 1242 z "},"Ḝ":{"ha":850,"x_min":144,"x_max":793,"o":"m 144 0 l 144 917 l 771 917 l 771 853 l 214 853 l 214 499 l 654 499 l 654 433 l 214 433 l 214 64 l 793 64 l 793 0 l 144 0 m 411 6 l 456 24 q 565 -49 533 -7 q 596 -147 596 -92 q 555 -249 596 -208 q 450 -290 514 -290 q 375 -278 407 -290 q 318 -242 343 -265 l 338 -190 q 386 -223 361 -211 q 443 -235 411 -235 q 511 -208 485 -235 q 538 -135 538 -182 q 510 -63 538 -94 q 411 6 483 -32 m 646 1214 q 595 1077 646 1128 q 458 1026 544 1026 q 322 1077 372 1026 q 271 1214 271 1128 l 328 1214 q 362 1118 328 1157 q 458 1079 396 1079 q 556 1118 522 1079 q 589 1214 589 1157 l 646 1214 z "},"Ê":{"ha":850,"x_min":144,"x_max":793,"o":"m 144 0 l 144 917 l 771 917 l 771 853 l 214 853 l 214 499 l 654 499 l 654 433 l 214 433 l 214 64 l 793 64 l 793 0 l 144 0 m 650 1032 l 583 1032 l 458 1194 l 333 1032 l 267 1032 l 419 1242 l 497 1242 l 650 1032 z "},"Ế":{"ha":850,"x_min":144,"x_max":793,"o":"m 651 1026 l 586 1026 l 458 1196 l 329 1026 l 264 1026 l 419 1243 l 497 1243 l 651 1026 m 696 1378 l 761 1378 l 660 1186 l 608 1186 l 696 1378 m 144 0 l 144 917 l 771 917 l 771 853 l 214 853 l 214 499 l 654 499 l 654 433 l 214 433 l 214 64 l 793 64 l 793 0 l 144 0 z "},"Ệ":{"ha":850,"x_min":144,"x_max":793,"o":"m 144 0 l 144 917 l 771 917 l 771 853 l 214 853 l 214 499 l 654 499 l 654 433 l 214 433 l 214 64 l 793 64 l 793 0 l 144 0 m 475 -224 q 453 -215 461 -224 q 444 -193 444 -207 q 453 -172 444 -179 q 475 -164 461 -164 q 497 -172 489 -164 q 506 -193 506 -179 q 497 -215 506 -207 q 475 -224 489 -224 m 650 1032 l 583 1032 l 458 1194 l 333 1032 l 267 1032 l 419 1242 l 497 1242 l 650 1032 z "},"Ề":{"ha":850,"x_min":144,"x_max":793,"o":"m 651 1026 l 586 1026 l 458 1196 l 329 1026 l 264 1026 l 419 1243 l 497 1243 l 651 1026 m 596 1378 l 683 1186 l 632 1186 l 531 1378 l 596 1378 m 144 0 l 144 917 l 771 917 l 771 853 l 214 853 l 214 499 l 654 499 l 654 433 l 214 433 l 214 64 l 793 64 l 793 0 l 144 0 z "},"Ể":{"ha":850,"x_min":144,"x_max":793,"o":"m 651 1026 l 586 1026 l 458 1196 l 329 1026 l 264 1026 l 419 1243 l 497 1243 l 651 1026 m 642 1158 l 615 1190 q 672 1233 654 1211 q 690 1285 690 1254 q 674 1324 690 1308 q 631 1339 658 1339 q 589 1326 606 1339 q 563 1293 572 1314 l 518 1321 q 566 1375 535 1356 q 640 1394 597 1394 q 697 1381 672 1394 q 735 1345 721 1368 q 749 1294 749 1322 q 736 1238 749 1264 q 699 1193 724 1213 q 642 1158 675 1174 m 144 0 l 144 917 l 771 917 l 771 853 l 214 853 l 214 499 l 654 499 l 654 433 l 214 433 l 214 64 l 793 64 l 793 0 l 144 0 z "},"Ễ":{"ha":850,"x_min":144,"x_max":793,"o":"m 651 1026 l 586 1026 l 458 1196 l 329 1026 l 264 1026 l 419 1243 l 497 1243 l 651 1026 m 683 1425 q 641 1315 675 1350 q 551 1279 607 1279 q 488 1293 513 1279 q 446 1324 464 1307 q 410 1356 428 1342 q 364 1369 392 1369 q 314 1348 331 1369 q 288 1282 297 1326 l 232 1282 q 274 1392 240 1357 q 365 1426 308 1426 q 427 1413 403 1426 q 469 1382 451 1400 q 506 1350 488 1364 q 551 1336 524 1336 q 602 1358 585 1336 q 628 1425 619 1381 l 683 1425 m 144 0 l 144 917 l 771 917 l 771 853 l 214 853 l 214 499 l 654 499 l 654 433 l 214 433 l 214 64 l 793 64 l 793 0 l 144 0 z "},"Ȅ":{"ha":850,"x_min":144,"x_max":793,"o":"m 144 0 l 144 917 l 771 917 l 771 853 l 214 853 l 214 499 l 654 499 l 654 433 l 214 433 l 214 64 l 793 64 l 793 0 l 144 0 m 292 1246 l 390 1032 l 332 1032 l 218 1246 l 292 1246 m 500 1246 l 597 1032 l 540 1032 l 426 1246 l 500 1246 z "},"Ë":{"ha":850,"x_min":144,"x_max":793,"o":"m 144 0 l 144 917 l 771 917 l 771 853 l 214 853 l 214 499 l 654 499 l 654 433 l 214 433 l 214 64 l 793 64 l 793 0 l 144 0 m 326 1154 q 367 1139 351 1154 q 382 1097 382 1124 q 367 1057 382 1072 q 326 1042 351 1042 q 285 1057 301 1042 q 269 1097 269 1072 q 285 1139 269 1124 q 326 1154 301 1154 m 589 1154 q 631 1139 615 1154 q 646 1097 646 1124 q 631 1057 646 1072 q 589 1042 615 1042 q 549 1057 564 1042 q 533 1097 533 1072 q 549 1139 533 1124 q 589 1154 564 1154 z "},"Ė":{"ha":850,"x_min":144,"x_max":793,"o":"m 144 0 l 144 917 l 771 917 l 771 853 l 214 853 l 214 499 l 654 499 l 654 433 l 214 433 l 214 64 l 793 64 l 793 0 l 144 0 m 458 1168 q 501 1152 485 1168 q 517 1110 517 1136 q 501 1067 517 1083 q 458 1051 485 1051 q 416 1067 432 1051 q 400 1110 400 1083 q 416 1152 400 1136 q 458 1168 432 1168 z "},"Ẹ":{"ha":850,"x_min":144,"x_max":793,"o":"m 144 0 l 144 917 l 771 917 l 771 853 l 214 853 l 214 499 l 654 499 l 654 433 l 214 433 l 214 64 l 793 64 l 793 0 l 144 0 m 475 -224 q 453 -215 461 -224 q 444 -193 444 -207 q 453 -172 444 -179 q 475 -164 461 -164 q 497 -172 489 -164 q 506 -193 506 -179 q 497 -215 506 -207 q 475 -224 489 -224 z "},"È":{"ha":850,"x_min":144,"x_max":793,"o":"m 144 0 l 144 917 l 771 917 l 771 853 l 214 853 l 214 499 l 654 499 l 654 433 l 214 433 l 214 64 l 793 64 l 793 0 l 144 0 m 397 1246 l 494 1032 l 438 1032 l 324 1246 l 397 1246 z "},"Ẻ":{"ha":850,"x_min":144,"x_max":793,"o":"m 144 0 l 144 917 l 771 917 l 771 853 l 214 853 l 214 499 l 654 499 l 654 433 l 214 433 l 214 64 l 793 64 l 793 0 l 144 0 m 460 993 l 435 1025 q 492 1067 474 1046 q 510 1119 510 1089 q 493 1158 510 1143 q 450 1174 476 1174 q 408 1161 425 1174 q 382 1128 392 1149 l 338 1156 q 385 1210 354 1190 q 458 1229 417 1229 q 515 1216 492 1229 q 553 1180 539 1203 q 568 1129 568 1157 q 556 1073 568 1099 q 519 1028 543 1047 q 460 993 494 1008 z "},"Ȇ":{"ha":850,"x_min":144,"x_max":793,"o":"m 144 0 l 144 917 l 771 917 l 771 853 l 214 853 l 214 499 l 654 499 l 654 433 l 214 433 l 214 64 l 793 64 l 793 0 l 144 0 m 646 1021 l 589 1021 q 556 1117 589 1078 q 458 1156 522 1156 q 362 1117 396 1156 q 328 1021 328 1078 l 271 1021 q 322 1157 271 1106 q 458 1208 372 1208 q 595 1157 544 1208 q 646 1021 646 1106 z "},"Ē":{"ha":850,"x_min":144,"x_max":793,"o":"m 144 0 l 144 917 l 771 917 l 771 853 l 214 853 l 214 499 l 654 499 l 654 433 l 214 433 l 214 64 l 793 64 l 793 0 l 144 0 m 674 1114 l 674 1056 l 243 1056 l 243 1114 l 674 1114 z "},"Ḗ":{"ha":850,"x_min":144,"x_max":793,"o":"m 144 0 l 144 917 l 771 917 l 771 853 l 214 853 l 214 499 l 654 499 l 654 433 l 214 433 l 214 64 l 793 64 l 793 0 l 144 0 m 674 1114 l 674 1056 l 243 1056 l 243 1114 l 674 1114 m 521 1440 l 594 1440 l 479 1226 l 422 1226 l 521 1440 z "},"Ḕ":{"ha":850,"x_min":144,"x_max":793,"o":"m 144 0 l 144 917 l 771 917 l 771 853 l 214 853 l 214 499 l 654 499 l 654 433 l 214 433 l 214 64 l 793 64 l 793 0 l 144 0 m 674 1114 l 674 1056 l 243 1056 l 243 1114 l 674 1114 m 397 1440 l 494 1226 l 438 1226 l 324 1440 l 397 1440 z "},"Ę":{"ha":850,"x_min":144,"x_max":794,"o":"m 686 -307 q 613 -292 644 -307 q 563 -250 581 -278 q 544 -183 544 -222 q 593 -67 544 -115 q 749 21 642 -19 l 793 0 q 643 -87 685 -44 q 601 -175 601 -131 q 628 -235 601 -214 q 694 -256 656 -256 q 741 -250 719 -256 q 778 -235 763 -244 l 794 -281 q 748 -299 775 -292 q 686 -307 721 -307 m 144 0 l 144 917 l 771 917 l 771 853 l 214 853 l 214 499 l 654 499 l 654 433 l 214 433 l 214 64 l 793 64 l 793 0 l 144 0 z "},"Ǝ":{"ha":850,"x_min":58,"x_max":706,"o":"m 706 0 l 58 0 l 58 64 l 636 64 l 636 433 l 197 433 l 197 499 l 636 499 l 636 853 l 81 853 l 81 917 l 706 917 l 706 0 z "},"Ẽ":{"ha":850,"x_min":144,"x_max":793,"o":"m 144 0 l 144 917 l 771 917 l 771 853 l 214 853 l 214 499 l 654 499 l 654 433 l 214 433 l 214 64 l 793 64 l 793 0 l 144 0 m 694 1196 q 672 1111 689 1146 q 626 1060 654 1076 q 558 1043 599 1043 q 494 1058 521 1043 q 447 1090 468 1072 q 406 1123 426 1108 q 361 1138 386 1138 q 306 1112 325 1138 q 278 1042 288 1086 l 222 1042 q 266 1156 231 1118 q 363 1194 301 1194 q 424 1180 397 1194 q 471 1147 450 1165 q 512 1115 492 1129 q 557 1100 532 1100 q 613 1125 594 1100 q 639 1196 631 1150 l 694 1196 z "},"F":{"ha":811,"x_min":144,"x_max":769,"o":"m 769 853 l 214 853 l 214 499 l 654 499 l 654 433 l 214 433 l 214 0 l 144 0 l 144 917 l 769 917 l 769 853 z "},"G":{"ha":975,"x_min":86,"x_max":874,"o":"m 507 -14 q 283 44 378 -14 q 138 207 189 101 q 86 458 86 313 q 140 710 86 604 q 288 873 193 815 q 508 931 383 931 q 735 875 649 931 q 867 706 822 819 l 803 672 q 697 817 771 768 q 508 867 624 867 q 326 817 406 867 q 203 676 247 768 q 160 458 160 585 q 201 240 160 332 q 320 99 242 149 q 510 50 399 50 q 642 74 586 50 q 735 138 699 99 q 790 228 772 178 q 808 332 808 279 l 808 383 l 497 383 l 497 449 l 874 449 l 874 0 l 817 0 l 814 199 l 826 196 q 712 42 793 99 q 507 -14 631 -14 z "},"Ğ":{"ha":975,"x_min":86,"x_max":874,"o":"m 507 -14 q 283 44 378 -14 q 138 207 189 101 q 86 458 86 313 q 140 710 86 604 q 288 873 193 815 q 508 931 383 931 q 735 875 649 931 q 867 706 822 819 l 803 672 q 697 817 771 768 q 508 867 624 867 q 326 817 406 867 q 203 676 247 768 q 160 458 160 585 q 201 240 160 332 q 320 99 242 149 q 510 50 399 50 q 642 74 586 50 q 735 138 699 99 q 790 228 772 178 q 808 332 808 279 l 808 383 l 497 383 l 497 449 l 874 449 l 874 0 l 817 0 l 814 199 l 826 196 q 712 42 793 99 q 507 -14 631 -14 m 686 1214 q 635 1077 686 1128 q 499 1026 585 1026 q 362 1077 413 1026 q 311 1214 311 1128 l 368 1214 q 402 1118 368 1157 q 499 1079 436 1079 q 596 1118 563 1079 q 629 1214 629 1157 l 686 1214 z "},"Ǧ":{"ha":975,"x_min":86,"x_max":874,"o":"m 507 -14 q 283 44 378 -14 q 138 207 189 101 q 86 458 86 313 q 140 710 86 604 q 288 873 193 815 q 508 931 383 931 q 735 875 649 931 q 867 706 822 819 l 803 672 q 697 817 771 768 q 508 867 624 867 q 326 817 406 867 q 203 676 247 768 q 160 458 160 585 q 201 240 160 332 q 320 99 242 149 q 510 50 399 50 q 642 74 586 50 q 735 138 699 99 q 790 228 772 178 q 808 332 808 279 l 808 383 l 497 383 l 497 449 l 874 449 l 874 0 l 817 0 l 814 199 l 826 196 q 712 42 793 99 q 507 -14 631 -14 m 690 1242 l 538 1032 l 460 1032 l 307 1242 l 374 1242 l 499 1079 l 624 1242 l 690 1242 z "},"Ĝ":{"ha":975,"x_min":86,"x_max":874,"o":"m 507 -14 q 283 44 378 -14 q 138 207 189 101 q 86 458 86 313 q 140 710 86 604 q 288 873 193 815 q 508 931 383 931 q 735 875 649 931 q 867 706 822 819 l 803 672 q 697 817 771 768 q 508 867 624 867 q 326 817 406 867 q 203 676 247 768 q 160 458 160 585 q 201 240 160 332 q 320 99 242 149 q 510 50 399 50 q 642 74 586 50 q 735 138 699 99 q 790 228 772 178 q 808 332 808 279 l 808 383 l 497 383 l 497 449 l 874 449 l 874 0 l 817 0 l 814 199 l 826 196 q 712 42 793 99 q 507 -14 631 -14 m 690 1032 l 624 1032 l 499 1194 l 374 1032 l 307 1032 l 460 1242 l 538 1242 l 690 1032 z "},"Ģ":{"ha":975,"x_min":86,"x_max":874,"o":"m 507 -14 q 283 44 378 -14 q 138 207 189 101 q 86 458 86 313 q 140 710 86 604 q 288 873 193 815 q 508 931 383 931 q 735 875 649 931 q 867 706 822 819 l 803 672 q 697 817 771 768 q 508 867 624 867 q 326 817 406 867 q 203 676 247 768 q 160 458 160 585 q 201 240 160 332 q 320 99 242 149 q 510 50 399 50 q 642 74 586 50 q 735 138 699 99 q 790 228 772 178 q 808 332 808 279 l 808 383 l 497 383 l 497 449 l 874 449 l 874 0 l 817 0 l 814 199 l 826 196 q 712 42 793 99 q 507 -14 631 -14 m 564 -100 l 481 -324 l 425 -324 l 490 -100 l 564 -100 z "},"Ġ":{"ha":975,"x_min":86,"x_max":874,"o":"m 507 -14 q 283 44 378 -14 q 138 207 189 101 q 86 458 86 313 q 140 710 86 604 q 288 873 193 815 q 508 931 383 931 q 735 875 649 931 q 867 706 822 819 l 803 672 q 697 817 771 768 q 508 867 624 867 q 326 817 406 867 q 203 676 247 768 q 160 458 160 585 q 201 240 160 332 q 320 99 242 149 q 510 50 399 50 q 642 74 586 50 q 735 138 699 99 q 790 228 772 178 q 808 332 808 279 l 808 383 l 497 383 l 497 449 l 874 449 l 874 0 l 817 0 l 814 199 l 826 196 q 712 42 793 99 q 507 -14 631 -14 m 499 1168 q 541 1152 525 1168 q 557 1110 557 1136 q 541 1067 557 1083 q 499 1051 525 1051 q 456 1067 472 1051 q 440 1110 440 1083 q 456 1152 440 1136 q 499 1168 472 1168 z "},"Ɂ":{"ha":725,"x_min":40,"x_max":676,"o":"m 369 931 q 531 894 463 931 q 638 795 600 857 q 676 657 676 733 q 642 501 676 563 q 543 403 607 439 q 390 349 479 367 l 390 0 l 321 0 l 321 392 q 490 444 429 411 q 577 530 551 478 q 603 654 603 582 q 574 763 603 715 q 491 838 544 810 q 364 867 438 867 q 183 810 250 867 q 103 654 115 753 l 40 688 q 98 817 56 763 q 209 901 140 871 q 369 931 278 931 z "},"Ḡ":{"ha":975,"x_min":86,"x_max":874,"o":"m 507 -14 q 283 44 378 -14 q 138 207 189 101 q 86 458 86 313 q 140 710 86 604 q 288 873 193 815 q 508 931 383 931 q 735 875 649 931 q 867 706 822 819 l 803 672 q 697 817 771 768 q 508 867 624 867 q 326 817 406 867 q 203 676 247 768 q 160 458 160 585 q 201 240 160 332 q 320 99 242 149 q 510 50 399 50 q 642 74 586 50 q 735 138 699 99 q 790 228 772 178 q 808 332 808 279 l 808 383 l 497 383 l 497 449 l 874 449 l 874 0 l 817 0 l 814 199 l 826 196 q 712 42 793 99 q 507 -14 631 -14 m 714 1114 l 714 1056 l 283 1056 l 283 1114 l 714 1114 z "},"H":{"ha":994,"x_min":144,"x_max":850,"o":"m 850 917 l 850 0 l 781 0 l 781 917 l 850 917 m 214 917 l 214 0 l 144 0 l 144 917 l 214 917 m 814 499 l 814 433 l 181 433 l 181 499 l 814 499 z "},"Ħ":{"ha":994,"x_min":39,"x_max":957,"o":"m 850 917 l 850 0 l 781 0 l 781 917 l 850 917 m 214 917 l 214 0 l 144 0 l 144 917 l 214 917 m 814 499 l 814 433 l 181 433 l 181 499 l 814 499 m 957 735 l 957 675 l 39 675 l 39 735 l 957 735 z "},"Ḫ":{"ha":994,"x_min":144,"x_max":850,"o":"m 850 917 l 850 0 l 781 0 l 781 917 l 850 917 m 214 917 l 214 0 l 144 0 l 144 917 l 214 917 m 814 499 l 814 433 l 181 433 l 181 499 l 814 499 m 685 -104 q 634 -241 685 -190 q 497 -292 583 -292 q 360 -241 411 -292 q 310 -104 310 -190 l 367 -104 q 401 -200 367 -161 q 497 -239 435 -239 q 594 -200 561 -239 q 628 -104 628 -161 l 685 -104 z "},"Ĥ":{"ha":994,"x_min":144,"x_max":850,"o":"m 850 917 l 850 0 l 781 0 l 781 917 l 850 917 m 214 917 l 214 0 l 144 0 l 144 917 l 214 917 m 814 499 l 814 433 l 181 433 l 181 499 l 814 499 m 689 1032 l 622 1032 l 497 1194 l 372 1032 l 306 1032 l 458 1242 l 536 1242 l 689 1032 z "},"Ḥ":{"ha":994,"x_min":144,"x_max":850,"o":"m 850 917 l 850 0 l 781 0 l 781 917 l 850 917 m 214 917 l 214 0 l 144 0 l 144 917 l 214 917 m 814 499 l 814 433 l 181 433 l 181 499 l 814 499 m 497 -224 q 475 -215 483 -224 q 467 -193 467 -207 q 475 -172 467 -179 q 497 -164 483 -164 q 519 -172 511 -164 q 528 -193 528 -179 q 519 -215 528 -207 q 497 -224 511 -224 z "},"I":{"ha":358,"x_min":144,"x_max":214,"o":"m 214 917 l 214 0 l 144 0 l 144 917 l 214 917 z "},"Ĳ":{"ha":1100,"x_min":144,"x_max":965,"o":"m 214 917 l 214 0 l 144 0 l 144 917 l 214 917 m 965 917 l 965 303 q 890 71 965 156 q 674 -14 814 -14 q 513 24 576 -14 q 424 131 450 63 q 414 292 399 199 l 479 307 q 510 115 463 181 q 672 50 558 50 q 844 121 793 50 q 896 318 896 192 l 896 917 l 965 917 z "},"Í":{"ha":358,"x_min":144,"x_max":322,"o":"m 214 917 l 214 0 l 144 0 l 144 917 l 214 917 m 249 1246 l 322 1246 l 207 1032 l 150 1032 l 249 1246 z "},"Ĭ":{"ha":358,"x_min":-10,"x_max":367,"o":"m 214 917 l 214 0 l 144 0 l 144 917 l 214 917 m 367 1214 q 316 1077 367 1128 q 179 1026 265 1026 q 42 1077 93 1026 q -8 1214 -8 1128 l 49 1214 q 83 1118 49 1157 q 179 1079 117 1079 q 276 1118 243 1079 q 310 1214 310 1157 l 367 1214 z "},"Î":{"ha":358,"x_min":-12,"x_max":369,"o":"m 214 917 l 214 0 l 144 0 l 144 917 l 214 917 m 371 1032 l 304 1032 l 179 1194 l 54 1032 l -12 1032 l 140 1242 l 218 1242 l 371 1032 z "},"Ȉ":{"ha":358,"x_min":-61,"x_max":318,"o":"m 214 917 l 214 0 l 144 0 l 144 917 l 214 917 m 13 1246 l 111 1032 l 53 1032 l -61 1246 l 13 1246 m 221 1246 l 318 1032 l 261 1032 l 147 1246 l 221 1246 z "},"Ï":{"ha":358,"x_min":21,"x_max":338,"o":"m 76 1154 q 118 1139 103 1154 q 133 1097 133 1124 q 118 1057 133 1072 q 76 1042 103 1042 q 36 1057 51 1042 q 21 1097 21 1072 q 37 1139 21 1124 q 76 1154 53 1154 m 281 1154 q 322 1139 307 1154 q 338 1097 338 1124 q 322 1057 338 1072 q 281 1042 307 1042 q 240 1057 256 1042 q 225 1097 225 1072 q 240 1139 225 1124 q 281 1154 256 1154 m 214 917 l 214 0 l 144 0 l 144 917 l 214 917 z "},"Ḯ":{"ha":358,"x_min":-10,"x_max":367,"o":"m 214 917 l 214 0 l 144 0 l 144 917 l 214 917 m 47 1154 q 88 1139 72 1154 q 103 1097 103 1124 q 88 1057 103 1072 q 47 1042 72 1042 q 6 1057 22 1042 q -10 1097 -10 1072 q 6 1139 -10 1124 q 47 1154 22 1154 m 310 1154 q 351 1139 336 1154 q 367 1097 367 1124 q 351 1057 367 1072 q 310 1042 336 1042 q 269 1057 285 1042 q 254 1097 254 1072 q 269 1139 254 1124 q 310 1154 285 1154 m 242 1460 l 315 1460 l 200 1246 l 143 1246 l 242 1460 z "},"İ":{"ha":358,"x_min":121,"x_max":238,"o":"m 214 917 l 214 0 l 144 0 l 144 917 l 214 917 m 179 1168 q 222 1152 206 1168 q 238 1110 238 1136 q 222 1067 238 1083 q 179 1051 206 1051 q 137 1067 153 1051 q 121 1110 121 1083 q 137 1152 121 1136 q 179 1168 153 1168 z "},"Ị":{"ha":358,"x_min":144,"x_max":214,"o":"m 214 917 l 214 0 l 144 0 l 144 917 l 214 917 m 179 -224 q 157 -215 165 -224 q 149 -193 149 -207 q 157 -172 149 -179 q 179 -164 165 -164 q 201 -172 193 -164 q 210 -193 210 -179 q 201 -215 210 -207 q 179 -224 193 -224 z "},"Ì":{"ha":358,"x_min":36,"x_max":214,"o":"m 214 917 l 214 0 l 144 0 l 144 917 l 214 917 m 110 1246 l 207 1032 l 150 1032 l 36 1246 l 110 1246 z "},"Ỉ":{"ha":358,"x_min":58,"x_max":289,"o":"m 214 917 l 214 0 l 144 0 l 144 917 l 214 917 m 181 993 l 156 1025 q 213 1067 194 1046 q 231 1119 231 1089 q 214 1158 231 1143 q 171 1174 197 1174 q 129 1161 146 1174 q 103 1128 113 1149 l 58 1156 q 106 1210 75 1190 q 179 1229 138 1229 q 236 1216 213 1229 q 274 1180 260 1203 q 289 1129 289 1157 q 276 1073 289 1099 q 240 1028 264 1047 q 181 993 215 1008 z "},"Ȋ":{"ha":358,"x_min":-10,"x_max":367,"o":"m 214 917 l 214 0 l 144 0 l 144 917 l 214 917 m 367 1021 l 310 1021 q 276 1117 310 1078 q 179 1156 243 1156 q 83 1117 117 1156 q 49 1021 49 1078 l -8 1021 q 42 1157 -8 1106 q 179 1208 93 1208 q 316 1157 265 1208 q 367 1021 367 1106 z "},"Ī":{"ha":358,"x_min":28,"x_max":329,"o":"m 329 1114 l 329 1056 l 28 1056 l 28 1114 l 329 1114 m 214 917 l 214 0 l 144 0 l 144 917 l 214 917 z "},"Į":{"ha":358,"x_min":18,"x_max":242,"o":"m 151 -307 q 85 -292 115 -307 q 36 -249 54 -276 q 18 -183 18 -222 q 36 -108 18 -142 q 89 -43 54 -74 q 171 19 124 -12 l 214 0 q 107 -93 138 -51 q 76 -175 76 -135 q 99 -234 76 -212 q 160 -256 122 -256 q 198 -251 181 -256 q 226 -239 215 -246 l 242 -285 q 204 -300 226 -293 q 151 -307 182 -307 m 214 917 l 214 0 l 144 0 l 144 917 l 214 917 z "},"Ĩ":{"ha":358,"x_min":-57,"x_max":415,"o":"m 214 917 l 214 0 l 144 0 l 144 917 l 214 917 m 415 1196 q 392 1111 410 1146 q 347 1060 375 1076 q 279 1043 319 1043 q 215 1058 242 1043 q 168 1090 189 1072 q 127 1123 147 1108 q 82 1138 107 1138 q 27 1112 46 1138 q -1 1042 8 1086 l -57 1042 q -13 1156 -49 1118 q 83 1194 22 1194 q 144 1180 118 1194 q 192 1147 171 1165 q 233 1115 213 1129 q 278 1100 253 1100 q 333 1125 315 1100 q 360 1196 351 1150 l 415 1196 z "},"J":{"ha":742,"x_min":40,"x_max":607,"o":"m 607 917 l 607 303 q 531 71 607 156 q 315 -14 456 -14 q 155 24 218 -14 q 66 131 92 63 q 56 292 40 199 l 121 307 q 152 115 104 181 q 314 50 200 50 q 486 121 435 50 q 538 318 538 192 l 538 917 l 607 917 z "},"Ĵ":{"ha":742,"x_min":40,"x_max":764,"o":"m 607 917 l 607 303 q 531 71 607 156 q 315 -14 456 -14 q 155 24 218 -14 q 66 131 92 63 q 56 292 40 199 l 121 307 q 152 115 104 181 q 314 50 200 50 q 486 121 435 50 q 538 318 538 192 l 538 917 l 607 917 m 764 1032 l 697 1032 l 572 1194 l 447 1032 l 381 1032 l 533 1242 l 611 1242 l 764 1032 z "},"K":{"ha":847,"x_min":144,"x_max":818,"o":"m 808 917 l 425 524 l 414 513 l 178 272 l 178 367 l 717 917 l 808 917 m 214 917 l 214 0 l 144 0 l 144 917 l 214 917 m 431 569 l 818 0 l 733 0 l 375 528 l 431 569 z "},"Ķ":{"ha":847,"x_min":144,"x_max":818,"o":"m 808 917 l 425 524 l 414 513 l 178 272 l 178 367 l 717 917 l 808 917 m 214 917 l 214 0 l 144 0 l 144 917 l 214 917 m 431 569 l 818 0 l 733 0 l 375 528 l 431 569 m 519 -100 l 436 -324 l 381 -324 l 446 -100 l 519 -100 z "},"L":{"ha":794,"x_min":144,"x_max":764,"o":"m 214 64 l 764 64 l 764 0 l 144 0 l 144 917 l 214 917 l 214 64 z "},"Ǉ":{"ha":1536,"x_min":144,"x_max":1403,"o":"m 214 64 l 764 64 l 764 0 l 144 0 l 144 917 l 214 917 l 214 64 m 1401 917 l 1401 303 q 1326 71 1401 156 q 1110 -14 1250 -14 q 949 24 1013 -14 q 860 131 886 63 q 850 292 835 199 l 915 307 q 947 115 899 181 q 1108 50 994 50 q 1281 121 1229 50 q 1332 318 1332 192 l 1332 917 l 1401 917 z "},"Ĺ":{"ha":794,"x_min":143,"x_max":764,"o":"m 214 64 l 764 64 l 764 0 l 144 0 l 144 917 l 214 917 l 214 64 m 242 1246 l 315 1246 l 200 1032 l 143 1032 l 242 1246 z "},"Ľ":{"ha":794,"x_min":144,"x_max":764,"o":"m 519 917 l 471 643 l 421 643 l 453 917 l 519 917 m 214 64 l 764 64 l 764 0 l 144 0 l 144 917 l 214 917 l 214 64 z "},"Ļ":{"ha":794,"x_min":144,"x_max":764,"o":"m 214 64 l 764 64 l 764 0 l 144 0 l 144 917 l 214 917 l 214 64 m 518 -100 l 435 -324 l 379 -324 l 444 -100 l 518 -100 z "},"Ŀ":{"ha":810,"x_min":144,"x_max":764,"o":"m 214 64 l 764 64 l 764 0 l 144 0 l 144 917 l 214 917 l 214 64 m 590 547 q 635 530 618 547 q 653 485 653 513 q 635 440 653 457 q 590 422 618 422 q 545 440 563 422 q 528 485 528 457 q 545 530 528 513 q 590 547 563 547 z "},"Ḷ":{"ha":794,"x_min":144,"x_max":764,"o":"m 214 64 l 764 64 l 764 0 l 144 0 l 144 917 l 214 917 l 214 64 m 482 -224 q 460 -215 468 -224 q 451 -193 451 -207 q 460 -172 451 -179 q 482 -164 468 -164 q 504 -172 496 -164 q 513 -193 513 -179 q 504 -215 513 -207 q 482 -224 496 -224 z "},"ǈ":{"ha":1113,"x_min":144,"x_max":1013,"o":"m 214 64 l 764 64 l 764 0 l 144 0 l 144 917 l 214 917 l 214 64 m 953 829 q 910 845 926 829 q 894 888 894 861 q 910 930 894 914 q 953 946 926 946 q 995 930 979 946 q 1011 888 1011 914 q 995 845 1011 861 q 953 829 979 829 m 988 694 l 988 -79 q 959 -204 988 -156 q 885 -276 931 -253 q 790 -299 840 -299 q 722 -287 753 -299 q 669 -260 690 -276 l 686 -194 q 731 -222 704 -211 q 789 -232 758 -232 q 883 -192 847 -232 q 918 -74 918 -153 l 918 694 l 988 694 z "},"Ḻ":{"ha":794,"x_min":144,"x_max":764,"o":"m 214 64 l 764 64 l 764 0 l 144 0 l 144 917 l 214 917 l 214 64 m 697 -140 l 697 -199 l 267 -199 l 267 -140 l 697 -140 z "},"Ł":{"ha":824,"x_min":31,"x_max":793,"o":"m 508 640 l 508 567 l 31 283 l 31 357 l 508 640 m 243 64 l 793 64 l 793 0 l 174 0 l 174 917 l 243 917 l 243 64 z "},"M":{"ha":1142,"x_min":144,"x_max":997,"o":"m 997 917 l 997 0 l 931 0 l 931 683 l 939 850 l 938 850 l 603 0 l 539 0 l 204 850 l 203 850 l 211 683 l 211 0 l 144 0 l 144 917 l 249 917 l 525 222 l 571 82 l 572 82 l 617 221 l 893 917 l 997 917 z "},"Ṃ":{"ha":1142,"x_min":144,"x_max":997,"o":"m 997 917 l 997 0 l 931 0 l 931 683 l 939 850 l 938 850 l 603 0 l 539 0 l 204 850 l 203 850 l 211 683 l 211 0 l 144 0 l 144 917 l 249 917 l 525 222 l 571 82 l 572 82 l 617 221 l 893 917 l 997 917 m 571 -224 q 549 -215 557 -224 q 540 -193 540 -207 q 549 -172 540 -179 q 571 -164 557 -164 q 593 -172 585 -164 q 601 -193 601 -179 q 593 -215 601 -207 q 571 -224 585 -224 z "},"N":{"ha":993,"x_min":144,"x_max":849,"o":"m 849 917 l 849 0 l 763 0 l 276 719 l 208 838 l 207 838 l 211 726 l 211 0 l 144 0 l 144 917 l 232 917 l 717 199 l 786 79 l 786 79 l 783 190 l 783 917 l 849 917 z "},"Ǌ":{"ha":1735,"x_min":144,"x_max":1601,"o":"m 849 917 l 849 0 l 763 0 l 276 719 l 208 838 l 207 838 l 211 726 l 211 0 l 144 0 l 144 917 l 232 917 l 717 199 l 786 79 l 786 79 l 783 190 l 783 917 l 849 917 m 1600 917 l 1600 303 q 1524 71 1600 156 q 1308 -14 1449 -14 q 1148 24 1211 -14 q 1059 131 1085 63 q 1049 292 1033 199 l 1114 307 q 1145 115 1097 181 q 1307 50 1193 50 q 1479 121 1428 50 q 1531 318 1531 192 l 1531 917 l 1600 917 z "},"Ń":{"ha":993,"x_min":144,"x_max":849,"o":"m 849 917 l 849 0 l 763 0 l 276 719 l 208 838 l 207 838 l 211 726 l 211 0 l 144 0 l 144 917 l 232 917 l 717 199 l 786 79 l 786 79 l 783 190 l 783 917 l 849 917 m 567 1246 l 640 1246 l 525 1032 l 468 1032 l 567 1246 z "},"Ň":{"ha":993,"x_min":144,"x_max":849,"o":"m 849 917 l 849 0 l 763 0 l 276 719 l 208 838 l 207 838 l 211 726 l 211 0 l 144 0 l 144 917 l 232 917 l 717 199 l 786 79 l 786 79 l 783 190 l 783 917 l 849 917 m 696 1242 l 543 1032 l 465 1032 l 313 1242 l 379 1242 l 504 1079 l 629 1242 l 696 1242 z "},"Ņ":{"ha":993,"x_min":144,"x_max":849,"o":"m 849 917 l 849 0 l 763 0 l 276 719 l 208 838 l 207 838 l 211 726 l 211 0 l 144 0 l 144 917 l 232 917 l 717 199 l 786 79 l 786 79 l 783 190 l 783 917 l 849 917 m 556 -100 l 472 -324 l 417 -324 l 482 -100 l 556 -100 z "},"Ṅ":{"ha":993,"x_min":144,"x_max":849,"o":"m 849 917 l 849 0 l 763 0 l 276 719 l 208 838 l 207 838 l 211 726 l 211 0 l 144 0 l 144 917 l 232 917 l 717 199 l 786 79 l 786 79 l 783 190 l 783 917 l 849 917 m 504 1168 q 547 1152 531 1168 q 563 1110 563 1136 q 547 1067 563 1083 q 504 1051 531 1051 q 462 1067 478 1051 q 446 1110 446 1083 q 462 1152 446 1136 q 504 1168 478 1168 z "},"Ṇ":{"ha":993,"x_min":144,"x_max":849,"o":"m 849 917 l 849 0 l 763 0 l 276 719 l 208 838 l 207 838 l 211 726 l 211 0 l 144 0 l 144 917 l 232 917 l 717 199 l 786 79 l 786 79 l 783 190 l 783 917 l 849 917 m 519 -224 q 497 -215 506 -224 q 489 -193 489 -207 q 497 -172 489 -179 q 519 -164 506 -164 q 542 -172 533 -164 q 550 -193 550 -179 q 542 -215 550 -207 q 519 -224 533 -224 z "},"Ŋ":{"ha":993,"x_min":144,"x_max":849,"o":"m 651 -299 q 583 -287 615 -299 q 531 -260 551 -276 l 547 -194 q 592 -222 565 -211 q 650 -232 619 -232 q 746 -192 708 -232 q 783 -74 783 -153 l 783 3 l 276 719 l 208 842 l 207 842 l 211 726 l 211 0 l 144 0 l 144 917 l 232 917 l 739 199 l 783 121 l 783 121 l 783 917 l 849 917 l 849 -79 q 821 -204 849 -156 q 748 -276 793 -253 q 651 -299 703 -299 z "},"ǋ":{"ha":1311,"x_min":144,"x_max":1211,"o":"m 849 917 l 849 0 l 763 0 l 276 719 l 208 838 l 207 838 l 211 726 l 211 0 l 144 0 l 144 917 l 232 917 l 717 199 l 786 79 l 786 79 l 783 190 l 783 917 l 849 917 m 1151 829 q 1109 845 1125 829 q 1093 888 1093 861 q 1109 930 1093 914 q 1151 946 1125 946 q 1194 930 1178 946 q 1210 888 1210 914 q 1194 845 1210 861 q 1151 829 1178 829 m 1186 694 l 1186 -79 q 1158 -204 1186 -156 q 1084 -276 1129 -253 q 989 -299 1039 -299 q 920 -287 951 -299 q 868 -260 889 -276 l 885 -194 q 930 -222 903 -211 q 988 -232 957 -232 q 1081 -192 1046 -232 q 1117 -74 1117 -153 l 1117 694 l 1186 694 z "},"Ṉ":{"ha":993,"x_min":144,"x_max":849,"o":"m 849 917 l 849 0 l 763 0 l 276 719 l 208 838 l 207 838 l 211 726 l 211 0 l 144 0 l 144 917 l 232 917 l 717 199 l 786 79 l 786 79 l 783 190 l 783 917 l 849 917 m 735 -140 l 735 -199 l 304 -199 l 304 -140 l 735 -140 z "},"Ñ":{"ha":993,"x_min":144,"x_max":849,"o":"m 849 917 l 849 0 l 763 0 l 276 719 l 208 838 l 207 838 l 211 726 l 211 0 l 144 0 l 144 917 l 232 917 l 717 199 l 786 79 l 786 79 l 783 190 l 783 917 l 849 917 m 740 1196 q 717 1111 735 1146 q 672 1060 700 1076 q 604 1043 644 1043 q 540 1058 567 1043 q 493 1090 514 1072 q 452 1123 472 1108 q 407 1138 432 1138 q 352 1112 371 1138 q 324 1042 333 1086 l 268 1042 q 312 1156 276 1118 q 408 1194 347 1194 q 469 1180 443 1194 q 517 1147 496 1165 q 558 1115 538 1129 q 603 1100 578 1100 q 658 1125 640 1100 q 685 1196 676 1150 l 740 1196 z "},"O":{"ha":1017,"x_min":86,"x_max":931,"o":"m 508 931 q 733 873 639 931 q 879 710 828 815 q 931 458 931 604 q 879 207 931 313 q 733 44 828 101 q 508 -14 639 -14 q 284 44 379 -14 q 138 207 189 101 q 86 458 86 313 q 138 710 86 604 q 284 873 189 815 q 508 931 379 931 m 508 867 q 323 817 401 867 q 202 676 244 768 q 160 458 160 585 q 202 240 160 332 q 323 99 244 149 q 508 50 401 50 q 694 99 617 50 q 815 240 772 149 q 858 458 858 332 q 815 676 858 585 q 694 817 772 768 q 508 867 617 867 z "},"Ó":{"ha":1017,"x_min":86,"x_max":931,"o":"m 508 931 q 733 873 639 931 q 879 710 828 815 q 931 458 931 604 q 879 207 931 313 q 733 44 828 101 q 508 -14 639 -14 q 284 44 379 -14 q 138 207 189 101 q 86 458 86 313 q 138 710 86 604 q 284 873 189 815 q 508 931 379 931 m 508 867 q 323 817 401 867 q 202 676 244 768 q 160 458 160 585 q 202 240 160 332 q 323 99 244 149 q 508 50 401 50 q 694 99 617 50 q 815 240 772 149 q 858 458 858 332 q 815 676 858 585 q 694 817 772 768 q 508 867 617 867 m 571 1246 l 644 1246 l 529 1032 l 472 1032 l 571 1246 z "},"Ŏ":{"ha":1017,"x_min":86,"x_max":931,"o":"m 508 931 q 733 873 639 931 q 879 710 828 815 q 931 458 931 604 q 879 207 931 313 q 733 44 828 101 q 508 -14 639 -14 q 284 44 379 -14 q 138 207 189 101 q 86 458 86 313 q 138 710 86 604 q 284 873 189 815 q 508 931 379 931 m 508 867 q 323 817 401 867 q 202 676 244 768 q 160 458 160 585 q 202 240 160 332 q 323 99 244 149 q 508 50 401 50 q 694 99 617 50 q 815 240 772 149 q 858 458 858 332 q 815 676 858 585 q 694 817 772 768 q 508 867 617 867 m 696 1214 q 645 1077 696 1128 q 508 1026 594 1026 q 372 1077 422 1026 q 321 1214 321 1128 l 378 1214 q 412 1118 378 1157 q 508 1079 446 1079 q 606 1118 572 1079 q 639 1214 639 1157 l 696 1214 z "},"Ô":{"ha":1017,"x_min":86,"x_max":931,"o":"m 508 931 q 733 873 639 931 q 879 710 828 815 q 931 458 931 604 q 879 207 931 313 q 733 44 828 101 q 508 -14 639 -14 q 284 44 379 -14 q 138 207 189 101 q 86 458 86 313 q 138 710 86 604 q 284 873 189 815 q 508 931 379 931 m 508 867 q 323 817 401 867 q 202 676 244 768 q 160 458 160 585 q 202 240 160 332 q 323 99 244 149 q 508 50 401 50 q 694 99 617 50 q 815 240 772 149 q 858 458 858 332 q 815 676 858 585 q 694 817 772 768 q 508 867 617 867 m 700 1032 l 633 1032 l 508 1194 l 383 1032 l 317 1032 l 469 1242 l 547 1242 l 700 1032 z "},"Ố":{"ha":1017,"x_min":86,"x_max":931,"o":"m 701 1026 l 638 1026 l 508 1196 l 379 1026 l 315 1026 l 469 1243 l 547 1243 l 701 1026 m 746 1378 l 813 1378 l 710 1186 l 658 1186 l 746 1378 m 508 931 q 733 873 639 931 q 879 710 828 815 q 931 458 931 604 q 879 207 931 313 q 733 44 828 101 q 508 -14 639 -14 q 284 44 379 -14 q 138 207 189 101 q 86 458 86 313 q 138 710 86 604 q 284 873 189 815 q 508 931 379 931 m 508 867 q 323 817 401 867 q 202 676 244 768 q 160 458 160 585 q 202 240 160 332 q 323 99 244 149 q 508 50 401 50 q 694 99 617 50 q 815 240 772 149 q 858 458 858 332 q 815 676 858 585 q 694 817 772 768 q 508 867 617 867 z "},"Ộ":{"ha":1017,"x_min":86,"x_max":931,"o":"m 508 931 q 733 873 639 931 q 879 710 828 815 q 931 458 931 604 q 879 207 931 313 q 733 44 828 101 q 508 -14 639 -14 q 284 44 379 -14 q 138 207 189 101 q 86 458 86 313 q 138 710 86 604 q 284 873 189 815 q 508 931 379 931 m 508 867 q 323 817 401 867 q 202 676 244 768 q 160 458 160 585 q 202 240 160 332 q 323 99 244 149 q 508 50 401 50 q 694 99 617 50 q 815 240 772 149 q 858 458 858 332 q 815 676 858 585 q 694 817 772 768 q 508 867 617 867 m 508 -224 q 486 -215 494 -224 q 478 -193 478 -207 q 486 -172 478 -179 q 508 -164 494 -164 q 531 -172 522 -164 q 539 -193 539 -179 q 531 -215 539 -207 q 508 -224 522 -224 m 700 1032 l 633 1032 l 508 1194 l 383 1032 l 317 1032 l 469 1242 l 547 1242 l 700 1032 z "},"Ồ":{"ha":1017,"x_min":86,"x_max":931,"o":"m 701 1026 l 638 1026 l 508 1196 l 379 1026 l 315 1026 l 469 1243 l 547 1243 l 701 1026 m 646 1378 l 735 1186 l 683 1186 l 581 1378 l 646 1378 m 508 931 q 733 873 639 931 q 879 710 828 815 q 931 458 931 604 q 879 207 931 313 q 733 44 828 101 q 508 -14 639 -14 q 284 44 379 -14 q 138 207 189 101 q 86 458 86 313 q 138 710 86 604 q 284 873 189 815 q 508 931 379 931 m 508 867 q 323 817 401 867 q 202 676 244 768 q 160 458 160 585 q 202 240 160 332 q 323 99 244 149 q 508 50 401 50 q 694 99 617 50 q 815 240 772 149 q 858 458 858 332 q 815 676 858 585 q 694 817 772 768 q 508 867 617 867 z "},"Ổ":{"ha":1017,"x_min":86,"x_max":931,"o":"m 701 1026 l 638 1026 l 508 1196 l 379 1026 l 315 1026 l 469 1243 l 547 1243 l 701 1026 m 692 1158 l 665 1190 q 722 1233 704 1211 q 740 1285 740 1254 q 724 1324 740 1308 q 682 1339 708 1339 q 639 1326 656 1339 q 613 1293 622 1314 l 569 1321 q 616 1375 585 1356 q 690 1394 647 1394 q 747 1381 722 1394 q 785 1345 771 1368 q 799 1294 799 1322 q 787 1238 799 1264 q 751 1193 775 1213 q 692 1158 726 1174 m 508 931 q 733 873 639 931 q 879 710 828 815 q 931 458 931 604 q 879 207 931 313 q 733 44 828 101 q 508 -14 639 -14 q 284 44 379 -14 q 138 207 189 101 q 86 458 86 313 q 138 710 86 604 q 284 873 189 815 q 508 931 379 931 m 508 867 q 323 817 401 867 q 202 676 244 768 q 160 458 160 585 q 202 240 160 332 q 323 99 244 149 q 508 50 401 50 q 694 99 617 50 q 815 240 772 149 q 858 458 858 332 q 815 676 858 585 q 694 817 772 768 q 508 867 617 867 z "},"Ỗ":{"ha":1017,"x_min":86,"x_max":931,"o":"m 701 1026 l 638 1026 l 508 1196 l 379 1026 l 315 1026 l 469 1243 l 547 1243 l 701 1026 m 735 1425 q 691 1315 725 1350 q 601 1279 657 1279 q 538 1293 563 1279 q 497 1324 514 1307 q 460 1356 479 1342 q 414 1369 442 1369 q 364 1348 381 1369 q 339 1282 347 1326 l 282 1282 q 326 1392 292 1357 q 415 1426 360 1426 q 477 1413 453 1426 q 519 1382 501 1400 q 556 1350 538 1364 q 601 1336 575 1336 q 652 1358 635 1336 q 678 1425 669 1381 l 735 1425 m 508 931 q 733 873 639 931 q 879 710 828 815 q 931 458 931 604 q 879 207 931 313 q 733 44 828 101 q 508 -14 639 -14 q 284 44 379 -14 q 138 207 189 101 q 86 458 86 313 q 138 710 86 604 q 284 873 189 815 q 508 931 379 931 m 508 867 q 323 817 401 867 q 202 676 244 768 q 160 458 160 585 q 202 240 160 332 q 323 99 244 149 q 508 50 401 50 q 694 99 617 50 q 815 240 772 149 q 858 458 858 332 q 815 676 858 585 q 694 817 772 768 q 508 867 617 867 z "},"Ȍ":{"ha":1017,"x_min":86,"x_max":931,"o":"m 508 931 q 733 873 639 931 q 879 710 828 815 q 931 458 931 604 q 879 207 931 313 q 733 44 828 101 q 508 -14 639 -14 q 284 44 379 -14 q 138 207 189 101 q 86 458 86 313 q 138 710 86 604 q 284 873 189 815 q 508 931 379 931 m 508 867 q 323 817 401 867 q 202 676 244 768 q 160 458 160 585 q 202 240 160 332 q 323 99 244 149 q 508 50 401 50 q 694 99 617 50 q 815 240 772 149 q 858 458 858 332 q 815 676 858 585 q 694 817 772 768 q 508 867 617 867 m 342 1246 l 440 1032 l 382 1032 l 268 1246 l 342 1246 m 550 1246 l 647 1032 l 590 1032 l 476 1246 l 550 1246 z "},"Ö":{"ha":1017,"x_min":86,"x_max":931,"o":"m 508 931 q 733 873 639 931 q 879 710 828 815 q 931 458 931 604 q 879 207 931 313 q 733 44 828 101 q 508 -14 639 -14 q 284 44 379 -14 q 138 207 189 101 q 86 458 86 313 q 138 710 86 604 q 284 873 189 815 q 508 931 379 931 m 508 867 q 323 817 401 867 q 202 676 244 768 q 160 458 160 585 q 202 240 160 332 q 323 99 244 149 q 508 50 401 50 q 694 99 617 50 q 815 240 772 149 q 858 458 858 332 q 815 676 858 585 q 694 817 772 768 q 508 867 617 867 m 376 1154 q 417 1139 401 1154 q 432 1097 432 1124 q 417 1057 432 1072 q 376 1042 401 1042 q 335 1057 351 1042 q 319 1097 319 1072 q 335 1139 319 1124 q 376 1154 351 1154 m 639 1154 q 681 1139 665 1154 q 696 1097 696 1124 q 681 1057 696 1072 q 639 1042 665 1042 q 599 1057 614 1042 q 583 1097 583 1072 q 599 1139 583 1124 q 639 1154 614 1154 z "},"Ȫ":{"ha":1017,"x_min":86,"x_max":931,"o":"m 508 931 q 733 873 639 931 q 879 710 828 815 q 931 458 931 604 q 879 207 931 313 q 733 44 828 101 q 508 -14 639 -14 q 284 44 379 -14 q 138 207 189 101 q 86 458 86 313 q 138 710 86 604 q 284 873 189 815 q 508 931 379 931 m 508 867 q 323 817 401 867 q 202 676 244 768 q 160 458 160 585 q 202 240 160 332 q 323 99 244 149 q 508 50 401 50 q 694 99 617 50 q 815 240 772 149 q 858 458 858 332 q 815 676 858 585 q 694 817 772 768 q 508 867 617 867 m 376 1154 q 417 1139 401 1154 q 432 1097 432 1124 q 417 1057 432 1072 q 376 1042 401 1042 q 335 1057 351 1042 q 319 1097 319 1072 q 335 1139 319 1124 q 376 1154 351 1154 m 639 1154 q 681 1139 665 1154 q 696 1097 696 1124 q 681 1057 696 1072 q 639 1042 665 1042 q 599 1057 614 1042 q 583 1097 583 1072 q 599 1139 583 1124 q 639 1154 614 1154 m 724 1328 l 724 1269 l 293 1269 l 293 1328 l 724 1328 z "},"Ȱ":{"ha":1017,"x_min":86,"x_max":931,"o":"m 508 931 q 733 873 639 931 q 879 710 828 815 q 931 458 931 604 q 879 207 931 313 q 733 44 828 101 q 508 -14 639 -14 q 284 44 379 -14 q 138 207 189 101 q 86 458 86 313 q 138 710 86 604 q 284 873 189 815 q 508 931 379 931 m 508 867 q 323 817 401 867 q 202 676 244 768 q 160 458 160 585 q 202 240 160 332 q 323 99 244 149 q 508 50 401 50 q 694 99 617 50 q 815 240 772 149 q 858 458 858 332 q 815 676 858 585 q 694 817 772 768 q 508 867 617 867 m 508 1168 q 551 1152 535 1168 q 567 1110 567 1136 q 551 1067 567 1083 q 508 1051 535 1051 q 466 1067 482 1051 q 450 1110 450 1083 q 466 1152 450 1136 q 508 1168 482 1168 m 724 1343 l 724 1285 l 293 1285 l 293 1343 l 724 1343 z "},"Ọ":{"ha":1017,"x_min":86,"x_max":931,"o":"m 508 931 q 733 873 639 931 q 879 710 828 815 q 931 458 931 604 q 879 207 931 313 q 733 44 828 101 q 508 -14 639 -14 q 284 44 379 -14 q 138 207 189 101 q 86 458 86 313 q 138 710 86 604 q 284 873 189 815 q 508 931 379 931 m 508 867 q 323 817 401 867 q 202 676 244 768 q 160 458 160 585 q 202 240 160 332 q 323 99 244 149 q 508 50 401 50 q 694 99 617 50 q 815 240 772 149 q 858 458 858 332 q 815 676 858 585 q 694 817 772 768 q 508 867 617 867 m 508 -224 q 486 -215 494 -224 q 478 -193 478 -207 q 486 -172 478 -179 q 508 -164 494 -164 q 531 -172 522 -164 q 539 -193 539 -179 q 531 -215 539 -207 q 508 -224 522 -224 z "},"Ò":{"ha":1017,"x_min":86,"x_max":931,"o":"m 508 931 q 733 873 639 931 q 879 710 828 815 q 931 458 931 604 q 879 207 931 313 q 733 44 828 101 q 508 -14 639 -14 q 284 44 379 -14 q 138 207 189 101 q 86 458 86 313 q 138 710 86 604 q 284 873 189 815 q 508 931 379 931 m 508 867 q 323 817 401 867 q 202 676 244 768 q 160 458 160 585 q 202 240 160 332 q 323 99 244 149 q 508 50 401 50 q 694 99 617 50 q 815 240 772 149 q 858 458 858 332 q 815 676 858 585 q 694 817 772 768 q 508 867 617 867 m 440 1246 l 538 1032 l 481 1032 l 367 1246 l 440 1246 z "},"Ỏ":{"ha":1017,"x_min":86,"x_max":931,"o":"m 508 931 q 733 873 639 931 q 879 710 828 815 q 931 458 931 604 q 879 207 931 313 q 733 44 828 101 q 508 -14 639 -14 q 284 44 379 -14 q 138 207 189 101 q 86 458 86 313 q 138 710 86 604 q 284 873 189 815 q 508 931 379 931 m 508 867 q 323 817 401 867 q 202 676 244 768 q 160 458 160 585 q 202 240 160 332 q 323 99 244 149 q 508 50 401 50 q 694 99 617 50 q 815 240 772 149 q 858 458 858 332 q 815 676 858 585 q 694 817 772 768 q 508 867 617 867 m 510 993 l 485 1025 q 542 1067 524 1046 q 560 1119 560 1089 q 543 1158 560 1143 q 500 1174 526 1174 q 458 1161 475 1174 q 432 1128 442 1149 l 388 1156 q 435 1210 404 1190 q 508 1229 467 1229 q 565 1216 542 1229 q 603 1180 589 1203 q 618 1129 618 1157 q 606 1073 618 1099 q 569 1028 593 1047 q 510 993 544 1008 z "},"Ơ":{"ha":1017,"x_min":86,"x_max":931,"o":"m 875 1067 q 813 916 875 969 q 640 863 751 863 l 619 917 q 766 956 722 917 q 810 1067 810 996 l 875 1067 m 508 931 q 733 873 639 931 q 879 710 828 815 q 931 458 931 604 q 879 207 931 313 q 733 44 828 101 q 508 -14 639 -14 q 284 44 379 -14 q 138 207 189 101 q 86 458 86 313 q 138 710 86 604 q 284 873 189 815 q 508 931 379 931 m 508 867 q 323 817 401 867 q 202 676 244 768 q 160 458 160 585 q 202 240 160 332 q 323 99 244 149 q 508 50 401 50 q 694 99 617 50 q 815 240 772 149 q 858 458 858 332 q 815 676 858 585 q 694 817 772 768 q 508 867 617 867 z "},"Ớ":{"ha":1017,"x_min":86,"x_max":931,"o":"m 875 1067 q 813 916 875 969 q 640 863 751 863 l 619 917 q 766 956 722 917 q 810 1067 810 996 l 875 1067 m 508 931 q 733 873 639 931 q 879 710 828 815 q 931 458 931 604 q 879 207 931 313 q 733 44 828 101 q 508 -14 639 -14 q 284 44 379 -14 q 138 207 189 101 q 86 458 86 313 q 138 710 86 604 q 284 873 189 815 q 508 931 379 931 m 508 867 q 323 817 401 867 q 202 676 244 768 q 160 458 160 585 q 202 240 160 332 q 323 99 244 149 q 508 50 401 50 q 694 99 617 50 q 815 240 772 149 q 858 458 858 332 q 815 676 858 585 q 694 817 772 768 q 508 867 617 867 m 571 1246 l 644 1246 l 529 1032 l 472 1032 l 571 1246 z "},"Ợ":{"ha":1017,"x_min":86,"x_max":931,"o":"m 875 1067 q 813 916 875 969 q 640 863 751 863 l 619 917 q 766 956 722 917 q 810 1067 810 996 l 875 1067 m 508 931 q 733 873 639 931 q 879 710 828 815 q 931 458 931 604 q 879 207 931 313 q 733 44 828 101 q 508 -14 639 -14 q 284 44 379 -14 q 138 207 189 101 q 86 458 86 313 q 138 710 86 604 q 284 873 189 815 q 508 931 379 931 m 508 867 q 323 817 401 867 q 202 676 244 768 q 160 458 160 585 q 202 240 160 332 q 323 99 244 149 q 508 50 401 50 q 694 99 617 50 q 815 240 772 149 q 858 458 858 332 q 815 676 858 585 q 694 817 772 768 q 508 867 617 867 m 508 -224 q 486 -215 494 -224 q 478 -193 478 -207 q 486 -172 478 -179 q 508 -164 494 -164 q 531 -172 522 -164 q 539 -193 539 -179 q 531 -215 539 -207 q 508 -224 522 -224 z "},"Ờ":{"ha":1017,"x_min":86,"x_max":931,"o":"m 875 1067 q 813 916 875 969 q 640 863 751 863 l 619 917 q 766 956 722 917 q 810 1067 810 996 l 875 1067 m 508 931 q 733 873 639 931 q 879 710 828 815 q 931 458 931 604 q 879 207 931 313 q 733 44 828 101 q 508 -14 639 -14 q 284 44 379 -14 q 138 207 189 101 q 86 458 86 313 q 138 710 86 604 q 284 873 189 815 q 508 931 379 931 m 508 867 q 323 817 401 867 q 202 676 244 768 q 160 458 160 585 q 202 240 160 332 q 323 99 244 149 q 508 50 401 50 q 694 99 617 50 q 815 240 772 149 q 858 458 858 332 q 815 676 858 585 q 694 817 772 768 q 508 867 617 867 m 447 1246 l 544 1032 l 488 1032 l 374 1246 l 447 1246 z "},"Ở":{"ha":1017,"x_min":86,"x_max":931,"o":"m 875 1067 q 813 916 875 969 q 640 863 751 863 l 619 917 q 766 956 722 917 q 810 1067 810 996 l 875 1067 m 508 931 q 733 873 639 931 q 879 710 828 815 q 931 458 931 604 q 879 207 931 313 q 733 44 828 101 q 508 -14 639 -14 q 284 44 379 -14 q 138 207 189 101 q 86 458 86 313 q 138 710 86 604 q 284 873 189 815 q 508 931 379 931 m 508 867 q 323 817 401 867 q 202 676 244 768 q 160 458 160 585 q 202 240 160 332 q 323 99 244 149 q 508 50 401 50 q 694 99 617 50 q 815 240 772 149 q 858 458 858 332 q 815 676 858 585 q 694 817 772 768 q 508 867 617 867 m 510 993 l 485 1025 q 542 1067 524 1046 q 560 1119 560 1089 q 543 1158 560 1143 q 500 1174 526 1174 q 458 1161 475 1174 q 432 1128 442 1149 l 388 1156 q 435 1210 404 1190 q 508 1229 467 1229 q 565 1216 542 1229 q 603 1180 589 1203 q 618 1129 618 1157 q 606 1073 618 1099 q 569 1028 593 1047 q 510 993 544 1008 z "},"Ỡ":{"ha":1017,"x_min":86,"x_max":931,"o":"m 875 1067 q 813 916 875 969 q 640 863 751 863 l 619 917 q 766 956 722 917 q 810 1067 810 996 l 875 1067 m 508 931 q 733 873 639 931 q 879 710 828 815 q 931 458 931 604 q 879 207 931 313 q 733 44 828 101 q 508 -14 639 -14 q 284 44 379 -14 q 138 207 189 101 q 86 458 86 313 q 138 710 86 604 q 284 873 189 815 q 508 931 379 931 m 508 867 q 323 817 401 867 q 202 676 244 768 q 160 458 160 585 q 202 240 160 332 q 323 99 244 149 q 508 50 401 50 q 694 99 617 50 q 815 240 772 149 q 858 458 858 332 q 815 676 858 585 q 694 817 772 768 q 508 867 617 867 m 728 1196 q 705 1111 722 1146 q 660 1060 688 1076 q 592 1043 632 1043 q 528 1058 554 1043 q 481 1090 501 1072 q 440 1123 460 1108 q 394 1138 419 1138 q 340 1112 358 1138 q 311 1042 321 1086 l 256 1042 q 299 1156 264 1118 q 396 1194 335 1194 q 457 1180 431 1194 q 504 1147 483 1165 q 545 1115 525 1129 q 590 1100 565 1100 q 646 1125 628 1100 q 672 1196 664 1150 l 728 1196 z "},"Ő":{"ha":1017,"x_min":86,"x_max":931,"o":"m 508 931 q 733 873 639 931 q 879 710 828 815 q 931 458 931 604 q 879 207 931 313 q 733 44 828 101 q 508 -14 639 -14 q 284 44 379 -14 q 138 207 189 101 q 86 458 86 313 q 138 710 86 604 q 284 873 189 815 q 508 931 379 931 m 508 867 q 323 817 401 867 q 202 676 244 768 q 160 458 160 585 q 202 240 160 332 q 323 99 244 149 q 508 50 401 50 q 694 99 617 50 q 815 240 772 149 q 858 458 858 332 q 815 676 858 585 q 694 817 772 768 q 508 867 617 867 m 675 1246 l 749 1246 l 633 1032 l 576 1032 l 675 1246 m 468 1246 l 542 1246 l 426 1032 l 369 1032 l 468 1246 z "},"Ȏ":{"ha":1017,"x_min":86,"x_max":931,"o":"m 508 931 q 733 873 639 931 q 879 710 828 815 q 931 458 931 604 q 879 207 931 313 q 733 44 828 101 q 508 -14 639 -14 q 284 44 379 -14 q 138 207 189 101 q 86 458 86 313 q 138 710 86 604 q 284 873 189 815 q 508 931 379 931 m 508 867 q 323 817 401 867 q 202 676 244 768 q 160 458 160 585 q 202 240 160 332 q 323 99 244 149 q 508 50 401 50 q 694 99 617 50 q 815 240 772 149 q 858 458 858 332 q 815 676 858 585 q 694 817 772 768 q 508 867 617 867 m 696 1021 l 639 1021 q 606 1117 639 1078 q 508 1156 572 1156 q 412 1117 446 1156 q 378 1021 378 1078 l 321 1021 q 372 1157 321 1106 q 508 1208 422 1208 q 645 1157 594 1208 q 696 1021 696 1106 z "},"Ō":{"ha":1017,"x_min":86,"x_max":931,"o":"m 508 931 q 733 873 639 931 q 879 710 828 815 q 931 458 931 604 q 879 207 931 313 q 733 44 828 101 q 508 -14 639 -14 q 284 44 379 -14 q 138 207 189 101 q 86 458 86 313 q 138 710 86 604 q 284 873 189 815 q 508 931 379 931 m 508 867 q 323 817 401 867 q 202 676 244 768 q 160 458 160 585 q 202 240 160 332 q 323 99 244 149 q 508 50 401 50 q 694 99 617 50 q 815 240 772 149 q 858 458 858 332 q 815 676 858 585 q 694 817 772 768 q 508 867 617 867 m 724 1114 l 724 1056 l 293 1056 l 293 1114 l 724 1114 z "},"Ṓ":{"ha":1017,"x_min":86,"x_max":931,"o":"m 508 931 q 733 873 639 931 q 879 710 828 815 q 931 458 931 604 q 879 207 931 313 q 733 44 828 101 q 508 -14 639 -14 q 284 44 379 -14 q 138 207 189 101 q 86 458 86 313 q 138 710 86 604 q 284 873 189 815 q 508 931 379 931 m 508 867 q 323 817 401 867 q 202 676 244 768 q 160 458 160 585 q 202 240 160 332 q 323 99 244 149 q 508 50 401 50 q 694 99 617 50 q 815 240 772 149 q 858 458 858 332 q 815 676 858 585 q 694 817 772 768 q 508 867 617 867 m 724 1114 l 724 1056 l 293 1056 l 293 1114 l 724 1114 m 571 1440 l 644 1440 l 529 1226 l 472 1226 l 571 1440 z "},"Ṑ":{"ha":1017,"x_min":86,"x_max":931,"o":"m 508 931 q 733 873 639 931 q 879 710 828 815 q 931 458 931 604 q 879 207 931 313 q 733 44 828 101 q 508 -14 639 -14 q 284 44 379 -14 q 138 207 189 101 q 86 458 86 313 q 138 710 86 604 q 284 873 189 815 q 508 931 379 931 m 508 867 q 323 817 401 867 q 202 676 244 768 q 160 458 160 585 q 202 240 160 332 q 323 99 244 149 q 508 50 401 50 q 694 99 617 50 q 815 240 772 149 q 858 458 858 332 q 815 676 858 585 q 694 817 772 768 q 508 867 617 867 m 724 1114 l 724 1056 l 293 1056 l 293 1114 l 724 1114 m 447 1440 l 544 1226 l 488 1226 l 374 1440 l 447 1440 z "},"Ǫ":{"ha":1017,"x_min":86,"x_max":931,"o":"m 508 931 q 733 873 639 931 q 879 710 828 815 q 931 458 931 604 q 879 207 931 313 q 733 44 828 101 q 508 -14 639 -14 q 284 44 379 -14 q 138 207 189 101 q 86 458 86 313 q 138 710 86 604 q 284 873 189 815 q 508 931 379 931 m 508 867 q 323 817 401 867 q 202 676 244 768 q 160 458 160 585 q 202 240 160 332 q 323 99 244 149 q 508 50 401 50 q 694 99 617 50 q 815 240 772 149 q 858 458 858 332 q 815 676 858 585 q 694 817 772 768 q 508 867 617 867 m 538 -303 q 433 -269 472 -303 q 393 -176 393 -235 q 440 -63 393 -108 q 592 22 486 -18 l 635 4 q 519 -53 558 -25 q 465 -110 479 -82 q 450 -169 450 -137 q 476 -231 450 -210 q 543 -251 503 -251 q 594 -245 572 -251 q 631 -229 615 -239 l 643 -278 q 599 -295 625 -287 q 538 -303 574 -303 z "},"Ø":{"ha":1017,"x_min":86,"x_max":931,"o":"m 279 85 l 239 119 l 735 818 l 778 786 l 279 85 m 121 -47 l 239 119 l 279 85 l 186 -47 l 121 -47 m 778 786 l 735 818 l 831 953 l 897 953 l 778 786 m 508 931 q 733 873 639 931 q 879 710 828 815 q 931 458 931 604 q 879 207 931 313 q 733 44 828 101 q 508 -14 639 -14 q 284 44 379 -14 q 138 207 189 101 q 86 458 86 313 q 138 710 86 604 q 284 873 189 815 q 508 931 379 931 m 508 867 q 323 817 401 867 q 202 676 244 768 q 160 458 160 585 q 202 240 160 332 q 323 99 244 149 q 508 50 401 50 q 694 99 617 50 q 815 240 772 149 q 858 458 858 332 q 815 676 858 585 q 694 817 772 768 q 508 867 617 867 z "},"Ǿ":{"ha":1017,"x_min":86,"x_max":931,"o":"m 279 85 l 239 119 l 735 818 l 778 786 l 279 85 m 121 -47 l 239 119 l 279 85 l 186 -47 l 121 -47 m 778 786 l 735 818 l 831 953 l 897 953 l 778 786 m 508 931 q 733 873 639 931 q 879 710 828 815 q 931 458 931 604 q 879 207 931 313 q 733 44 828 101 q 508 -14 639 -14 q 284 44 379 -14 q 138 207 189 101 q 86 458 86 313 q 138 710 86 604 q 284 873 189 815 q 508 931 379 931 m 508 867 q 323 817 401 867 q 202 676 244 768 q 160 458 160 585 q 202 240 160 332 q 323 99 244 149 q 508 50 401 50 q 694 99 617 50 q 815 240 772 149 q 858 458 858 332 q 815 676 858 585 q 694 817 772 768 q 508 867 617 867 m 571 1246 l 644 1246 l 529 1032 l 472 1032 l 571 1246 z "},"Õ":{"ha":1017,"x_min":86,"x_max":931,"o":"m 508 931 q 733 873 639 931 q 879 710 828 815 q 931 458 931 604 q 879 207 931 313 q 733 44 828 101 q 508 -14 639 -14 q 284 44 379 -14 q 138 207 189 101 q 86 458 86 313 q 138 710 86 604 q 284 873 189 815 q 508 931 379 931 m 508 867 q 323 817 401 867 q 202 676 244 768 q 160 458 160 585 q 202 240 160 332 q 323 99 244 149 q 508 50 401 50 q 694 99 617 50 q 815 240 772 149 q 858 458 858 332 q 815 676 858 585 q 694 817 772 768 q 508 867 617 867 m 744 1196 q 722 1111 739 1146 q 676 1060 704 1076 q 608 1043 649 1043 q 544 1058 571 1043 q 497 1090 518 1072 q 456 1123 476 1108 q 411 1138 436 1138 q 356 1112 375 1138 q 328 1042 338 1086 l 272 1042 q 316 1156 281 1118 q 413 1194 351 1194 q 474 1180 447 1194 q 521 1147 500 1165 q 562 1115 542 1129 q 607 1100 582 1100 q 663 1125 644 1100 q 689 1196 681 1150 l 744 1196 z "},"Ṍ":{"ha":1017,"x_min":86,"x_max":931,"o":"m 508 931 q 733 873 639 931 q 879 710 828 815 q 931 458 931 604 q 879 207 931 313 q 733 44 828 101 q 508 -14 639 -14 q 284 44 379 -14 q 138 207 189 101 q 86 458 86 313 q 138 710 86 604 q 284 873 189 815 q 508 931 379 931 m 508 867 q 323 817 401 867 q 202 676 244 768 q 160 458 160 585 q 202 240 160 332 q 323 99 244 149 q 508 50 401 50 q 694 99 617 50 q 815 240 772 149 q 858 458 858 332 q 815 676 858 585 q 694 817 772 768 q 508 867 617 867 m 744 1196 q 722 1111 739 1146 q 676 1060 704 1076 q 608 1043 649 1043 q 544 1058 571 1043 q 497 1090 518 1072 q 456 1123 476 1108 q 411 1138 436 1138 q 356 1112 375 1138 q 328 1042 338 1086 l 272 1042 q 316 1156 281 1118 q 413 1194 351 1194 q 474 1180 447 1194 q 521 1147 500 1165 q 562 1115 542 1129 q 607 1100 582 1100 q 663 1125 644 1100 q 689 1196 681 1150 l 744 1196 m 571 1496 l 644 1496 l 529 1282 l 472 1282 l 571 1496 z "},"Ṏ":{"ha":1017,"x_min":86,"x_max":931,"o":"m 508 931 q 733 873 639 931 q 879 710 828 815 q 931 458 931 604 q 879 207 931 313 q 733 44 828 101 q 508 -14 639 -14 q 284 44 379 -14 q 138 207 189 101 q 86 458 86 313 q 138 710 86 604 q 284 873 189 815 q 508 931 379 931 m 508 867 q 323 817 401 867 q 202 676 244 768 q 160 458 160 585 q 202 240 160 332 q 323 99 244 149 q 508 50 401 50 q 694 99 617 50 q 815 240 772 149 q 858 458 858 332 q 815 676 858 585 q 694 817 772 768 q 508 867 617 867 m 744 1196 q 722 1111 739 1146 q 676 1060 704 1076 q 608 1043 649 1043 q 544 1058 571 1043 q 497 1090 518 1072 q 456 1123 476 1108 q 411 1138 436 1138 q 356 1112 375 1138 q 328 1042 338 1086 l 272 1042 q 316 1156 281 1118 q 413 1194 351 1194 q 474 1180 447 1194 q 521 1147 500 1165 q 562 1115 542 1129 q 607 1100 582 1100 q 663 1125 644 1100 q 689 1196 681 1150 l 744 1196 m 376 1404 q 417 1389 401 1404 q 432 1347 432 1374 q 417 1307 432 1322 q 376 1292 401 1292 q 335 1307 351 1292 q 319 1347 319 1322 q 335 1389 319 1374 q 376 1404 351 1404 m 639 1404 q 681 1389 665 1404 q 696 1347 696 1374 q 681 1307 696 1322 q 639 1292 665 1292 q 599 1307 614 1292 q 583 1347 583 1322 q 599 1389 583 1374 q 639 1404 614 1404 z "},"Ȭ":{"ha":1017,"x_min":86,"x_max":931,"o":"m 508 931 q 733 873 639 931 q 879 710 828 815 q 931 458 931 604 q 879 207 931 313 q 733 44 828 101 q 508 -14 639 -14 q 284 44 379 -14 q 138 207 189 101 q 86 458 86 313 q 138 710 86 604 q 284 873 189 815 q 508 931 379 931 m 508 867 q 323 817 401 867 q 202 676 244 768 q 160 458 160 585 q 202 240 160 332 q 323 99 244 149 q 508 50 401 50 q 694 99 617 50 q 815 240 772 149 q 858 458 858 332 q 815 676 858 585 q 694 817 772 768 q 508 867 617 867 m 744 1196 q 722 1111 739 1146 q 676 1060 704 1076 q 608 1043 649 1043 q 544 1058 571 1043 q 497 1090 518 1072 q 456 1123 476 1108 q 411 1138 436 1138 q 356 1112 375 1138 q 328 1042 338 1086 l 272 1042 q 316 1156 281 1118 q 413 1194 351 1194 q 474 1180 447 1194 q 521 1147 500 1165 q 562 1115 542 1129 q 607 1100 582 1100 q 663 1125 644 1100 q 689 1196 681 1150 l 744 1196 m 724 1364 l 724 1306 l 293 1306 l 293 1364 l 724 1364 z "},"Œ":{"ha":1481,"x_min":86,"x_max":1422,"o":"m 882 64 l 1422 64 l 1422 0 l 818 0 l 818 194 q 695 39 776 92 q 494 -14 614 -14 q 278 44 369 -14 q 137 207 188 101 q 86 458 86 313 q 136 710 86 604 q 278 873 186 815 q 497 931 369 931 q 696 878 615 931 q 818 724 776 826 l 818 917 l 1400 917 l 1400 853 l 882 853 l 882 499 l 1290 499 l 1290 433 l 882 433 l 882 64 m 497 50 q 673 97 601 50 q 781 234 744 143 q 818 458 818 325 q 781 683 818 592 q 673 820 744 774 q 497 867 601 867 q 317 817 393 867 q 200 676 240 768 q 160 458 160 585 q 200 240 160 332 q 317 99 240 149 q 497 50 393 50 z "},"P":{"ha":815,"x_min":144,"x_max":760,"o":"m 449 917 q 614 884 544 917 q 722 792 683 851 q 760 649 760 732 q 722 504 760 564 q 614 412 683 444 q 449 379 544 379 l 214 379 l 214 0 l 144 0 l 144 917 l 449 917 m 440 444 q 624 498 561 444 q 686 649 686 551 q 624 799 686 746 q 440 853 561 853 l 214 853 l 214 444 l 440 444 z "},"Þ":{"ha":832,"x_min":144,"x_max":765,"o":"m 433 742 q 682 672 599 742 q 765 469 765 603 q 682 269 765 339 q 433 199 599 199 l 179 199 l 179 263 l 444 263 q 693 469 693 263 q 631 626 693 574 q 444 678 569 678 l 179 678 l 179 742 l 433 742 m 214 917 l 214 0 l 144 0 l 144 917 l 214 917 z "},"Q":{"ha":1017,"x_min":86,"x_max":931,"o":"m 743 -271 q 613 -242 672 -271 q 516 -151 553 -212 q 479 8 479 -89 q 480 25 479 17 q 481 42 481 33 l 543 40 q 542 25 542 32 q 542 11 542 18 q 569 -114 542 -67 q 642 -181 596 -161 q 744 -201 689 -201 q 831 -189 790 -201 q 899 -150 872 -176 l 924 -214 q 844 -256 893 -242 q 743 -271 794 -271 m 508 931 q 733 873 639 931 q 879 710 828 815 q 931 458 931 604 q 879 207 931 313 q 733 44 828 101 q 508 -14 639 -14 q 284 44 379 -14 q 138 207 189 101 q 86 458 86 313 q 138 710 86 604 q 284 873 189 815 q 508 931 379 931 m 508 867 q 323 817 401 867 q 202 676 244 768 q 160 458 160 585 q 202 240 160 332 q 323 99 244 149 q 508 50 401 50 q 694 99 617 50 q 815 240 772 149 q 858 458 858 332 q 815 676 858 585 q 694 817 772 768 q 508 867 617 867 z "},"R":{"ha":889,"x_min":144,"x_max":833,"o":"m 485 917 q 703 847 622 917 q 785 657 785 778 q 703 469 785 536 q 483 401 621 401 l 476 397 l 214 397 l 214 0 l 144 0 l 144 917 l 485 917 m 483 463 q 653 513 594 463 q 713 657 713 563 q 653 802 713 751 q 483 853 594 853 l 214 853 l 214 463 l 483 463 m 538 450 l 833 0 l 751 0 l 479 411 l 538 450 z "},"Ŕ":{"ha":889,"x_min":144,"x_max":833,"o":"m 485 917 q 703 847 622 917 q 785 657 785 778 q 703 469 785 536 q 483 401 621 401 l 476 397 l 214 397 l 214 0 l 144 0 l 144 917 l 485 917 m 483 463 q 653 513 594 463 q 713 657 713 563 q 653 802 713 751 q 483 853 594 853 l 214 853 l 214 463 l 483 463 m 538 450 l 833 0 l 751 0 l 479 411 l 538 450 m 490 1246 l 564 1246 l 449 1032 l 392 1032 l 490 1246 z "},"Ř":{"ha":889,"x_min":144,"x_max":833,"o":"m 485 917 q 703 847 622 917 q 785 657 785 778 q 703 469 785 536 q 483 401 621 401 l 476 397 l 214 397 l 214 0 l 144 0 l 144 917 l 485 917 m 483 463 q 653 513 594 463 q 713 657 713 563 q 653 802 713 751 q 483 853 594 853 l 214 853 l 214 463 l 483 463 m 538 450 l 833 0 l 751 0 l 479 411 l 538 450 m 619 1242 l 467 1032 l 389 1032 l 236 1242 l 303 1242 l 428 1079 l 553 1242 l 619 1242 z "},"Ŗ":{"ha":889,"x_min":144,"x_max":833,"o":"m 485 917 q 703 847 622 917 q 785 657 785 778 q 703 469 785 536 q 483 401 621 401 l 476 397 l 214 397 l 214 0 l 144 0 l 144 917 l 485 917 m 483 463 q 653 513 594 463 q 713 657 713 563 q 653 802 713 751 q 483 853 594 853 l 214 853 l 214 463 l 483 463 m 538 450 l 833 0 l 751 0 l 479 411 l 538 450 m 531 -100 l 447 -324 l 392 -324 l 457 -100 l 531 -100 z "},"Ȑ":{"ha":889,"x_min":144,"x_max":833,"o":"m 485 917 q 703 847 622 917 q 785 657 785 778 q 703 469 785 536 q 483 401 621 401 l 476 397 l 214 397 l 214 0 l 144 0 l 144 917 l 485 917 m 483 463 q 653 513 594 463 q 713 657 713 563 q 653 802 713 751 q 483 853 594 853 l 214 853 l 214 463 l 483 463 m 538 450 l 833 0 l 751 0 l 479 411 l 538 450 m 261 1246 l 360 1032 l 301 1032 l 188 1246 l 261 1246 m 469 1246 l 567 1032 l 510 1032 l 396 1246 l 469 1246 z "},"Ṛ":{"ha":889,"x_min":144,"x_max":833,"o":"m 485 917 q 703 847 622 917 q 785 657 785 778 q 703 469 785 536 q 483 401 621 401 l 476 397 l 214 397 l 214 0 l 144 0 l 144 917 l 485 917 m 483 463 q 653 513 594 463 q 713 657 713 563 q 653 802 713 751 q 483 853 594 853 l 214 853 l 214 463 l 483 463 m 538 450 l 833 0 l 751 0 l 479 411 l 538 450 m 494 -224 q 472 -215 481 -224 q 464 -193 464 -207 q 472 -172 464 -179 q 494 -164 481 -164 q 517 -172 508 -164 q 525 -193 525 -179 q 517 -215 525 -207 q 494 -224 508 -224 z "},"Ȓ":{"ha":889,"x_min":144,"x_max":833,"o":"m 485 917 q 703 847 622 917 q 785 657 785 778 q 703 469 785 536 q 483 401 621 401 l 476 397 l 214 397 l 214 0 l 144 0 l 144 917 l 485 917 m 483 463 q 653 513 594 463 q 713 657 713 563 q 653 802 713 751 q 483 853 594 853 l 214 853 l 214 463 l 483 463 m 538 450 l 833 0 l 751 0 l 479 411 l 538 450 m 615 1021 l 558 1021 q 525 1117 558 1078 q 428 1156 492 1156 q 331 1117 365 1156 q 297 1021 297 1078 l 240 1021 q 291 1157 240 1106 q 428 1208 342 1208 q 565 1157 514 1208 q 615 1021 615 1106 z "},"Ṟ":{"ha":889,"x_min":144,"x_max":833,"o":"m 485 917 q 703 847 622 917 q 785 657 785 778 q 703 469 785 536 q 483 401 621 401 l 476 397 l 214 397 l 214 0 l 144 0 l 144 917 l 485 917 m 483 463 q 653 513 594 463 q 713 657 713 563 q 653 802 713 751 q 483 853 594 853 l 214 853 l 214 463 l 483 463 m 538 450 l 833 0 l 751 0 l 479 411 l 538 450 m 710 -140 l 710 -199 l 279 -199 l 279 -140 l 710 -140 z "},"S":{"ha":860,"x_min":60,"x_max":786,"o":"m 428 931 q 641 881 554 931 q 774 728 728 831 l 715 683 q 602 824 675 781 q 422 867 529 867 q 283 841 340 867 q 197 773 226 815 q 168 678 168 731 q 209 573 168 615 q 363 506 250 531 l 542 467 q 731 383 676 438 q 786 242 786 329 q 742 108 786 167 q 622 18 699 50 q 443 -14 546 -14 q 267 13 344 -14 q 138 90 190 40 q 60 208 85 139 l 121 256 q 185 144 140 190 q 297 74 231 97 q 446 50 364 50 q 585 72 524 50 q 680 135 646 93 q 714 238 714 176 q 673 336 714 296 q 528 397 632 376 l 339 439 q 197 490 251 458 q 119 567 143 522 q 94 669 94 613 q 135 799 94 740 q 250 894 175 858 q 428 931 325 931 z "},"Ś":{"ha":860,"x_min":60,"x_max":786,"o":"m 428 931 q 641 881 554 931 q 774 728 728 831 l 715 683 q 602 824 675 781 q 422 867 529 867 q 283 841 340 867 q 197 773 226 815 q 168 678 168 731 q 209 573 168 615 q 363 506 250 531 l 542 467 q 731 383 676 438 q 786 242 786 329 q 742 108 786 167 q 622 18 699 50 q 443 -14 546 -14 q 267 13 344 -14 q 138 90 190 40 q 60 208 85 139 l 121 256 q 185 144 140 190 q 297 74 231 97 q 446 50 364 50 q 585 72 524 50 q 680 135 646 93 q 714 238 714 176 q 673 336 714 296 q 528 397 632 376 l 339 439 q 197 490 251 458 q 119 567 143 522 q 94 669 94 613 q 135 799 94 740 q 250 894 175 858 q 428 931 325 931 m 492 1246 l 565 1246 l 450 1032 l 393 1032 l 492 1246 z "},"Ṥ":{"ha":860,"x_min":60,"x_max":786,"o":"m 428 931 q 641 881 554 931 q 774 728 728 831 l 715 683 q 602 824 675 781 q 422 867 529 867 q 283 841 340 867 q 197 773 226 815 q 168 678 168 731 q 209 573 168 615 q 363 506 250 531 l 542 467 q 731 383 676 438 q 786 242 786 329 q 742 108 786 167 q 622 18 699 50 q 443 -14 546 -14 q 267 13 344 -14 q 138 90 190 40 q 60 208 85 139 l 121 256 q 185 144 140 190 q 297 74 231 97 q 446 50 364 50 q 585 72 524 50 q 680 135 646 93 q 714 238 714 176 q 673 336 714 296 q 528 397 632 376 l 339 439 q 197 490 251 458 q 119 567 143 522 q 94 669 94 613 q 135 799 94 740 q 250 894 175 858 q 428 931 325 931 m 492 1246 l 565 1246 l 450 1032 l 393 1032 l 492 1246 m 429 1436 q 472 1420 456 1436 q 488 1378 488 1404 q 472 1335 488 1351 q 429 1319 456 1319 q 387 1335 403 1319 q 371 1378 371 1351 q 387 1420 371 1404 q 429 1436 403 1436 z "},"Š":{"ha":860,"x_min":60,"x_max":786,"o":"m 428 931 q 641 881 554 931 q 774 728 728 831 l 715 683 q 602 824 675 781 q 422 867 529 867 q 283 841 340 867 q 197 773 226 815 q 168 678 168 731 q 209 573 168 615 q 363 506 250 531 l 542 467 q 731 383 676 438 q 786 242 786 329 q 742 108 786 167 q 622 18 699 50 q 443 -14 546 -14 q 267 13 344 -14 q 138 90 190 40 q 60 208 85 139 l 121 256 q 185 144 140 190 q 297 74 231 97 q 446 50 364 50 q 585 72 524 50 q 680 135 646 93 q 714 238 714 176 q 673 336 714 296 q 528 397 632 376 l 339 439 q 197 490 251 458 q 119 567 143 522 q 94 669 94 613 q 135 799 94 740 q 250 894 175 858 q 428 931 325 931 m 621 1242 l 468 1032 l 390 1032 l 238 1242 l 304 1242 l 429 1079 l 554 1242 l 621 1242 z "},"Ṧ":{"ha":860,"x_min":60,"x_max":786,"o":"m 428 931 q 641 881 554 931 q 774 728 728 831 l 715 683 q 602 824 675 781 q 422 867 529 867 q 283 841 340 867 q 197 773 226 815 q 168 678 168 731 q 209 573 168 615 q 363 506 250 531 l 542 467 q 731 383 676 438 q 786 242 786 329 q 742 108 786 167 q 622 18 699 50 q 443 -14 546 -14 q 267 13 344 -14 q 138 90 190 40 q 60 208 85 139 l 121 256 q 185 144 140 190 q 297 74 231 97 q 446 50 364 50 q 585 72 524 50 q 680 135 646 93 q 714 238 714 176 q 673 336 714 296 q 528 397 632 376 l 339 439 q 197 490 251 458 q 119 567 143 522 q 94 669 94 613 q 135 799 94 740 q 250 894 175 858 q 428 931 325 931 m 621 1242 l 468 1032 l 390 1032 l 238 1242 l 304 1242 l 429 1079 l 554 1242 l 621 1242 m 429 1428 q 472 1412 456 1428 q 488 1369 488 1396 q 472 1327 488 1343 q 429 1311 456 1311 q 387 1327 403 1311 q 371 1369 371 1343 q 387 1412 371 1396 q 429 1428 403 1428 z "},"Ş":{"ha":860,"x_min":60,"x_max":786,"o":"m 428 931 q 641 881 554 931 q 774 728 728 831 l 715 683 q 602 824 675 781 q 422 867 529 867 q 283 841 340 867 q 197 773 226 815 q 168 678 168 731 q 209 573 168 615 q 363 506 250 531 l 542 467 q 731 383 676 438 q 786 242 786 329 q 742 108 786 167 q 622 18 699 50 q 443 -14 546 -14 q 267 13 344 -14 q 138 90 190 40 q 60 208 85 139 l 121 256 q 185 144 140 190 q 297 74 231 97 q 446 50 364 50 q 585 72 524 50 q 680 135 646 93 q 714 238 714 176 q 673 336 714 296 q 528 397 632 376 l 339 439 q 197 490 251 458 q 119 567 143 522 q 94 669 94 613 q 135 799 94 740 q 250 894 175 858 q 428 931 325 931 m 371 6 l 415 24 q 524 -49 493 -7 q 556 -147 556 -92 q 515 -249 556 -208 q 410 -290 474 -290 q 335 -278 367 -290 q 278 -242 303 -265 l 297 -190 q 346 -223 321 -211 q 403 -235 371 -235 q 471 -208 444 -235 q 497 -135 497 -182 q 470 -63 497 -94 q 371 6 443 -32 z "},"Ŝ":{"ha":860,"x_min":60,"x_max":786,"o":"m 428 931 q 641 881 554 931 q 774 728 728 831 l 715 683 q 602 824 675 781 q 422 867 529 867 q 283 841 340 867 q 197 773 226 815 q 168 678 168 731 q 209 573 168 615 q 363 506 250 531 l 542 467 q 731 383 676 438 q 786 242 786 329 q 742 108 786 167 q 622 18 699 50 q 443 -14 546 -14 q 267 13 344 -14 q 138 90 190 40 q 60 208 85 139 l 121 256 q 185 144 140 190 q 297 74 231 97 q 446 50 364 50 q 585 72 524 50 q 680 135 646 93 q 714 238 714 176 q 673 336 714 296 q 528 397 632 376 l 339 439 q 197 490 251 458 q 119 567 143 522 q 94 669 94 613 q 135 799 94 740 q 250 894 175 858 q 428 931 325 931 m 621 1032 l 554 1032 l 429 1194 l 304 1032 l 238 1032 l 390 1242 l 468 1242 l 621 1032 z "},"Ș":{"ha":860,"x_min":60,"x_max":786,"o":"m 428 931 q 641 881 554 931 q 774 728 728 831 l 715 683 q 602 824 675 781 q 422 867 529 867 q 283 841 340 867 q 197 773 226 815 q 168 678 168 731 q 209 573 168 615 q 363 506 250 531 l 542 467 q 731 383 676 438 q 786 242 786 329 q 742 108 786 167 q 622 18 699 50 q 443 -14 546 -14 q 267 13 344 -14 q 138 90 190 40 q 60 208 85 139 l 121 256 q 185 144 140 190 q 297 74 231 97 q 446 50 364 50 q 585 72 524 50 q 680 135 646 93 q 714 238 714 176 q 673 336 714 296 q 528 397 632 376 l 339 439 q 197 490 251 458 q 119 567 143 522 q 94 669 94 613 q 135 799 94 740 q 250 894 175 858 q 428 931 325 931 m 471 -100 l 388 -324 l 332 -324 l 397 -100 l 471 -100 z "},"Ṡ":{"ha":860,"x_min":60,"x_max":786,"o":"m 428 931 q 641 881 554 931 q 774 728 728 831 l 715 683 q 602 824 675 781 q 422 867 529 867 q 283 841 340 867 q 197 773 226 815 q 168 678 168 731 q 209 573 168 615 q 363 506 250 531 l 542 467 q 731 383 676 438 q 786 242 786 329 q 742 108 786 167 q 622 18 699 50 q 443 -14 546 -14 q 267 13 344 -14 q 138 90 190 40 q 60 208 85 139 l 121 256 q 185 144 140 190 q 297 74 231 97 q 446 50 364 50 q 585 72 524 50 q 680 135 646 93 q 714 238 714 176 q 673 336 714 296 q 528 397 632 376 l 339 439 q 197 490 251 458 q 119 567 143 522 q 94 669 94 613 q 135 799 94 740 q 250 894 175 858 q 428 931 325 931 m 429 1168 q 472 1152 456 1168 q 488 1110 488 1136 q 472 1067 488 1083 q 429 1051 456 1051 q 387 1067 403 1051 q 371 1110 371 1083 q 387 1152 371 1136 q 429 1168 403 1168 z "},"Ṣ":{"ha":860,"x_min":60,"x_max":786,"o":"m 428 931 q 641 881 554 931 q 774 728 728 831 l 715 683 q 602 824 675 781 q 422 867 529 867 q 283 841 340 867 q 197 773 226 815 q 168 678 168 731 q 209 573 168 615 q 363 506 250 531 l 542 467 q 731 383 676 438 q 786 242 786 329 q 742 108 786 167 q 622 18 699 50 q 443 -14 546 -14 q 267 13 344 -14 q 138 90 190 40 q 60 208 85 139 l 121 256 q 185 144 140 190 q 297 74 231 97 q 446 50 364 50 q 585 72 524 50 q 680 135 646 93 q 714 238 714 176 q 673 336 714 296 q 528 397 632 376 l 339 439 q 197 490 251 458 q 119 567 143 522 q 94 669 94 613 q 135 799 94 740 q 250 894 175 858 q 428 931 325 931 m 435 -224 q 413 -215 421 -224 q 404 -193 404 -207 q 413 -172 404 -179 q 435 -164 421 -164 q 457 -172 449 -164 q 465 -193 465 -179 q 457 -215 465 -207 q 435 -224 449 -224 z "},"Ṩ":{"ha":860,"x_min":60,"x_max":786,"o":"m 428 931 q 641 881 554 931 q 774 728 728 831 l 715 683 q 602 824 675 781 q 422 867 529 867 q 283 841 340 867 q 197 773 226 815 q 168 678 168 731 q 209 573 168 615 q 363 506 250 531 l 542 467 q 731 383 676 438 q 786 242 786 329 q 742 108 786 167 q 622 18 699 50 q 443 -14 546 -14 q 267 13 344 -14 q 138 90 190 40 q 60 208 85 139 l 121 256 q 185 144 140 190 q 297 74 231 97 q 446 50 364 50 q 585 72 524 50 q 680 135 646 93 q 714 238 714 176 q 673 336 714 296 q 528 397 632 376 l 339 439 q 197 490 251 458 q 119 567 143 522 q 94 669 94 613 q 135 799 94 740 q 250 894 175 858 q 428 931 325 931 m 429 1168 q 472 1152 456 1168 q 488 1110 488 1136 q 472 1067 488 1083 q 429 1051 456 1051 q 387 1067 403 1051 q 371 1110 371 1083 q 387 1152 371 1136 q 429 1168 403 1168 m 435 -224 q 413 -215 421 -224 q 404 -193 404 -207 q 413 -172 404 -179 q 435 -164 421 -164 q 457 -172 449 -164 q 465 -193 465 -179 q 457 -215 465 -207 q 435 -224 449 -224 z "},"ẞ":{"ha":896,"x_min":126,"x_max":850,"o":"m 581 -7 q 438 18 494 -7 q 354 72 381 43 l 388 131 q 463 78 415 101 q 576 56 511 56 q 686 83 640 56 q 756 155 732 110 q 779 256 779 200 q 725 392 779 347 q 569 438 671 438 l 428 438 l 428 497 l 714 853 l 429 853 q 308 822 361 853 q 226 738 256 792 q 196 614 196 685 l 196 0 l 126 0 l 126 615 q 165 774 126 706 q 271 879 203 842 q 429 917 339 917 l 796 917 l 796 851 l 503 497 l 496 497 l 585 497 q 727 469 668 497 q 818 388 786 442 q 850 257 850 335 q 816 119 850 179 q 722 26 782 60 q 581 -7 663 -7 z "},"Ə":{"ha":964,"x_min":74,"x_max":878,"o":"m 469 -14 q 262 40 351 -14 q 123 193 172 93 q 74 431 74 293 q 74 456 74 443 q 76 481 75 468 l 831 481 l 831 413 l 114 413 l 151 442 q 150 426 150 433 q 150 410 150 418 q 192 217 150 297 q 307 93 233 136 q 474 50 381 50 q 651 98 576 50 q 765 237 725 146 q 806 458 806 328 q 765 676 806 585 q 649 817 724 768 q 469 867 574 867 q 276 809 356 867 q 158 644 196 751 l 88 671 q 173 812 118 754 q 303 900 228 869 q 469 931 379 931 q 686 873 594 931 q 828 710 778 815 q 878 458 878 604 q 828 207 878 313 q 685 44 778 101 q 469 -14 593 -14 z "},"T":{"ha":800,"x_min":31,"x_max":769,"o":"m 769 917 l 769 853 l 435 853 l 435 0 l 365 0 l 365 853 l 31 853 l 31 917 l 769 917 z "},"Ŧ":{"ha":800,"x_min":31,"x_max":769,"o":"m 769 917 l 769 853 l 435 853 l 435 0 l 365 0 l 365 853 l 31 853 l 31 917 l 769 917 m 661 490 l 661 426 l 140 426 l 140 490 l 661 490 z "},"Ť":{"ha":800,"x_min":31,"x_max":769,"o":"m 769 917 l 769 853 l 435 853 l 435 0 l 365 0 l 365 853 l 31 853 l 31 917 l 769 917 m 592 1242 l 439 1032 l 361 1032 l 208 1242 l 275 1242 l 400 1079 l 525 1242 l 592 1242 z "},"Ţ":{"ha":800,"x_min":31,"x_max":769,"o":"m 365 0 l 393 24 q 499 -49 471 -7 q 528 -147 528 -92 q 487 -249 528 -208 q 381 -290 446 -290 q 307 -278 339 -290 q 250 -242 275 -265 l 269 -190 q 317 -223 292 -211 q 374 -235 342 -235 q 442 -208 415 -235 q 469 -135 469 -182 q 447 -63 469 -94 q 365 0 425 -32 m 769 917 l 769 853 l 435 853 l 435 0 l 365 0 l 365 853 l 31 853 l 31 917 l 769 917 z "},"Ț":{"ha":800,"x_min":31,"x_max":769,"o":"m 769 917 l 769 853 l 435 853 l 435 0 l 365 0 l 365 853 l 31 853 l 31 917 l 769 917 m 450 -100 l 367 -324 l 311 -324 l 376 -100 l 450 -100 z "},"Ṭ":{"ha":800,"x_min":31,"x_max":769,"o":"m 769 917 l 769 853 l 435 853 l 435 0 l 365 0 l 365 853 l 31 853 l 31 917 l 769 917 m 400 -224 q 378 -215 386 -224 q 369 -193 369 -207 q 378 -172 369 -179 q 400 -164 386 -164 q 422 -172 414 -164 q 431 -193 431 -179 q 422 -215 431 -207 q 400 -224 414 -224 z "},"Ṯ":{"ha":800,"x_min":31,"x_max":769,"o":"m 769 917 l 769 853 l 435 853 l 435 0 l 365 0 l 365 853 l 31 853 l 31 917 l 769 917 m 615 -140 l 615 -199 l 185 -199 l 185 -140 l 615 -140 z "},"U":{"ha":954,"x_min":124,"x_max":831,"o":"m 831 917 l 831 335 q 738 75 831 164 q 478 -14 646 -14 q 217 75 310 -14 q 124 335 124 164 l 124 917 l 193 917 l 193 349 q 266 126 193 201 q 478 50 339 50 q 689 126 617 50 q 761 349 761 201 l 761 917 l 831 917 z "},"Ú":{"ha":954,"x_min":124,"x_max":831,"o":"m 831 917 l 831 335 q 738 75 831 164 q 478 -14 646 -14 q 217 75 310 -14 q 124 335 124 164 l 124 917 l 193 917 l 193 349 q 266 126 193 201 q 478 50 339 50 q 689 126 617 50 q 761 349 761 201 l 761 917 l 831 917 m 540 1201 l 614 1201 l 499 988 l 442 988 l 540 1201 z "},"Ŭ":{"ha":954,"x_min":124,"x_max":831,"o":"m 831 917 l 831 335 q 738 75 831 164 q 478 -14 646 -14 q 217 75 310 -14 q 124 335 124 164 l 124 917 l 193 917 l 193 349 q 266 126 193 201 q 478 50 339 50 q 689 126 617 50 q 761 349 761 201 l 761 917 l 831 917 m 665 1169 q 615 1033 665 1083 q 478 982 564 982 q 341 1033 392 982 q 290 1169 290 1083 l 347 1169 q 381 1074 347 1113 q 478 1035 415 1035 q 575 1074 542 1035 q 608 1169 608 1113 l 665 1169 z "},"Û":{"ha":954,"x_min":124,"x_max":831,"o":"m 831 917 l 831 335 q 738 75 831 164 q 478 -14 646 -14 q 217 75 310 -14 q 124 335 124 164 l 124 917 l 193 917 l 193 349 q 266 126 193 201 q 478 50 339 50 q 689 126 617 50 q 761 349 761 201 l 761 917 l 831 917 m 669 988 l 603 988 l 478 1150 l 353 988 l 286 988 l 439 1197 l 517 1197 l 669 988 z "},"Ȕ":{"ha":954,"x_min":124,"x_max":831,"o":"m 831 917 l 831 335 q 738 75 831 164 q 478 -14 646 -14 q 217 75 310 -14 q 124 335 124 164 l 124 917 l 193 917 l 193 349 q 266 126 193 201 q 478 50 339 50 q 689 126 617 50 q 761 349 761 201 l 761 917 l 831 917 m 311 1201 l 410 988 l 351 988 l 238 1201 l 311 1201 m 519 1201 l 617 988 l 560 988 l 446 1201 l 519 1201 z "},"Ü":{"ha":954,"x_min":124,"x_max":831,"o":"m 831 917 l 831 335 q 738 75 831 164 q 478 -14 646 -14 q 217 75 310 -14 q 124 335 124 164 l 124 917 l 193 917 l 193 349 q 266 126 193 201 q 478 50 339 50 q 689 126 617 50 q 761 349 761 201 l 761 917 l 831 917 m 346 1110 q 386 1094 371 1110 q 401 1053 401 1079 q 386 1013 401 1028 q 346 997 371 997 q 305 1013 321 997 q 289 1053 289 1028 q 305 1094 289 1079 q 346 1110 321 1110 m 608 1110 q 650 1094 635 1110 q 665 1053 665 1079 q 650 1013 665 1028 q 608 997 635 997 q 568 1013 583 997 q 553 1053 553 1028 q 568 1094 553 1079 q 608 1110 583 1110 z "},"Ụ":{"ha":954,"x_min":124,"x_max":831,"o":"m 831 917 l 831 335 q 738 75 831 164 q 478 -14 646 -14 q 217 75 310 -14 q 124 335 124 164 l 124 917 l 193 917 l 193 349 q 266 126 193 201 q 478 50 339 50 q 689 126 617 50 q 761 349 761 201 l 761 917 l 831 917 m 478 -224 q 456 -215 464 -224 q 447 -193 447 -207 q 456 -172 447 -179 q 478 -164 464 -164 q 500 -172 492 -164 q 508 -193 508 -179 q 500 -215 508 -207 q 478 -224 492 -224 z "},"Ù":{"ha":954,"x_min":124,"x_max":831,"o":"m 831 917 l 831 335 q 738 75 831 164 q 478 -14 646 -14 q 217 75 310 -14 q 124 335 124 164 l 124 917 l 193 917 l 193 349 q 266 126 193 201 q 478 50 339 50 q 689 126 617 50 q 761 349 761 201 l 761 917 l 831 917 m 449 1228 l 546 1014 l 489 1014 l 375 1228 l 449 1228 z "},"Ủ":{"ha":954,"x_min":124,"x_max":831,"o":"m 831 917 l 831 335 q 738 75 831 164 q 478 -14 646 -14 q 217 75 310 -14 q 124 335 124 164 l 124 917 l 193 917 l 193 349 q 266 126 193 201 q 478 50 339 50 q 689 126 617 50 q 761 349 761 201 l 761 917 l 831 917 m 479 949 l 454 981 q 511 1023 493 1001 q 529 1075 529 1044 q 513 1114 529 1099 q 469 1129 496 1129 q 428 1117 444 1129 q 401 1083 411 1104 l 357 1111 q 405 1165 374 1146 q 478 1185 436 1185 q 535 1172 511 1185 q 573 1135 558 1158 q 588 1085 588 1113 q 575 1028 588 1054 q 538 983 563 1003 q 479 949 514 964 z "},"Ư":{"ha":954,"x_min":124,"x_max":975,"o":"m 831 917 l 831 335 q 738 75 831 164 q 478 -14 646 -14 q 217 75 310 -14 q 124 335 124 164 l 124 917 l 193 917 l 193 349 q 266 126 193 201 q 478 50 339 50 q 689 126 617 50 q 761 349 761 201 l 761 917 l 831 917 m 976 1067 q 923 915 976 969 q 779 861 869 861 l 764 917 q 876 956 840 917 q 911 1067 911 996 l 976 1067 z "},"Ứ":{"ha":954,"x_min":124,"x_max":975,"o":"m 831 917 l 831 335 q 738 75 831 164 q 478 -14 646 -14 q 217 75 310 -14 q 124 335 124 164 l 124 917 l 193 917 l 193 349 q 266 126 193 201 q 478 50 339 50 q 689 126 617 50 q 761 349 761 201 l 761 917 l 831 917 m 976 1067 q 923 915 976 969 q 779 861 869 861 l 764 917 q 876 956 840 917 q 911 1067 911 996 l 976 1067 m 540 1201 l 614 1201 l 499 988 l 442 988 l 540 1201 z "},"Ự":{"ha":954,"x_min":124,"x_max":975,"o":"m 831 917 l 831 335 q 738 75 831 164 q 478 -14 646 -14 q 217 75 310 -14 q 124 335 124 164 l 124 917 l 193 917 l 193 349 q 266 126 193 201 q 478 50 339 50 q 689 126 617 50 q 761 349 761 201 l 761 917 l 831 917 m 976 1067 q 923 915 976 969 q 779 861 869 861 l 764 917 q 876 956 840 917 q 911 1067 911 996 l 976 1067 m 478 -224 q 456 -215 464 -224 q 447 -193 447 -207 q 456 -172 447 -179 q 478 -164 464 -164 q 500 -172 492 -164 q 508 -193 508 -179 q 500 -215 508 -207 q 478 -224 492 -224 z "},"Ừ":{"ha":954,"x_min":124,"x_max":975,"o":"m 831 917 l 831 335 q 738 75 831 164 q 478 -14 646 -14 q 217 75 310 -14 q 124 335 124 164 l 124 917 l 193 917 l 193 349 q 266 126 193 201 q 478 50 339 50 q 689 126 617 50 q 761 349 761 201 l 761 917 l 831 917 m 976 1067 q 923 915 976 969 q 779 861 869 861 l 764 917 q 876 956 840 917 q 911 1067 911 996 l 976 1067 m 417 1201 l 514 988 l 457 988 l 343 1201 l 417 1201 z "},"Ử":{"ha":954,"x_min":124,"x_max":975,"o":"m 831 917 l 831 335 q 738 75 831 164 q 478 -14 646 -14 q 217 75 310 -14 q 124 335 124 164 l 124 917 l 193 917 l 193 349 q 266 126 193 201 q 478 50 339 50 q 689 126 617 50 q 761 349 761 201 l 761 917 l 831 917 m 976 1067 q 923 915 976 969 q 779 861 869 861 l 764 917 q 876 956 840 917 q 911 1067 911 996 l 976 1067 m 479 949 l 454 981 q 511 1023 493 1001 q 529 1075 529 1044 q 513 1114 529 1099 q 469 1129 496 1129 q 428 1117 444 1129 q 401 1083 411 1104 l 357 1111 q 405 1165 374 1146 q 478 1185 436 1185 q 535 1172 511 1185 q 573 1135 558 1158 q 588 1085 588 1113 q 575 1028 588 1054 q 538 983 563 1003 q 479 949 514 964 z "},"Ữ":{"ha":954,"x_min":124,"x_max":975,"o":"m 831 917 l 831 335 q 738 75 831 164 q 478 -14 646 -14 q 217 75 310 -14 q 124 335 124 164 l 124 917 l 193 917 l 193 349 q 266 126 193 201 q 478 50 339 50 q 689 126 617 50 q 761 349 761 201 l 761 917 l 831 917 m 976 1067 q 923 915 976 969 q 779 861 869 861 l 764 917 q 876 956 840 917 q 911 1067 911 996 l 976 1067 m 714 1151 q 691 1067 708 1101 q 646 1015 674 1032 q 578 999 618 999 q 514 1013 540 999 q 467 1046 488 1028 q 426 1078 446 1064 q 381 1093 406 1093 q 326 1067 344 1093 q 297 997 307 1042 l 242 997 q 285 1112 250 1074 q 382 1150 321 1150 q 443 1135 417 1150 q 490 1103 469 1121 q 531 1070 511 1085 q 576 1056 551 1056 q 632 1081 614 1056 q 658 1151 650 1106 l 714 1151 z "},"Ű":{"ha":954,"x_min":124,"x_max":831,"o":"m 831 917 l 831 335 q 738 75 831 164 q 478 -14 646 -14 q 217 75 310 -14 q 124 335 124 164 l 124 917 l 193 917 l 193 349 q 266 126 193 201 q 478 50 339 50 q 689 126 617 50 q 761 349 761 201 l 761 917 l 831 917 m 644 1201 l 718 1201 l 603 988 l 546 988 l 644 1201 m 438 1201 l 511 1201 l 396 988 l 339 988 l 438 1201 z "},"Ȗ":{"ha":954,"x_min":124,"x_max":831,"o":"m 831 917 l 831 335 q 738 75 831 164 q 478 -14 646 -14 q 217 75 310 -14 q 124 335 124 164 l 124 917 l 193 917 l 193 349 q 266 126 193 201 q 478 50 339 50 q 689 126 617 50 q 761 349 761 201 l 761 917 l 831 917 m 665 976 l 608 976 q 575 1072 608 1033 q 478 1111 542 1111 q 381 1072 415 1111 q 347 976 347 1033 l 290 976 q 341 1113 290 1061 q 478 1164 392 1164 q 615 1113 564 1164 q 665 976 665 1061 z "},"Ū":{"ha":954,"x_min":124,"x_max":831,"o":"m 831 917 l 831 335 q 738 75 831 164 q 478 -14 646 -14 q 217 75 310 -14 q 124 335 124 164 l 124 917 l 193 917 l 193 349 q 266 126 193 201 q 478 50 339 50 q 689 126 617 50 q 761 349 761 201 l 761 917 l 831 917 m 693 1069 l 693 1011 l 263 1011 l 263 1069 l 693 1069 z "},"Ṻ":{"ha":954,"x_min":124,"x_max":831,"o":"m 831 917 l 831 335 q 738 75 831 164 q 478 -14 646 -14 q 217 75 310 -14 q 124 335 124 164 l 124 917 l 193 917 l 193 349 q 266 126 193 201 q 478 50 339 50 q 689 126 617 50 q 761 349 761 201 l 761 917 l 831 917 m 693 1069 l 693 1011 l 263 1011 l 263 1069 l 693 1069 m 346 1304 q 386 1289 371 1304 q 401 1247 401 1274 q 386 1207 401 1222 q 346 1192 371 1192 q 305 1207 321 1192 q 289 1247 289 1222 q 305 1289 289 1274 q 346 1304 321 1304 m 608 1304 q 650 1289 635 1304 q 665 1247 665 1274 q 650 1207 665 1222 q 608 1192 635 1192 q 568 1207 583 1192 q 553 1247 553 1222 q 568 1289 553 1274 q 608 1304 583 1304 z "},"Ų":{"ha":954,"x_min":124,"x_max":831,"o":"m 831 917 l 831 335 q 738 75 831 164 q 478 -14 646 -14 q 217 75 310 -14 q 124 335 124 164 l 124 917 l 193 917 l 193 349 q 266 126 193 201 q 478 50 339 50 q 689 126 617 50 q 761 349 761 201 l 761 917 l 831 917 m 535 -294 q 430 -260 469 -294 q 390 -168 390 -226 q 437 -55 390 -100 q 589 31 483 -10 l 632 13 q 516 -45 556 -17 q 462 -101 476 -74 q 447 -161 447 -129 q 474 -222 447 -201 q 540 -243 500 -243 q 591 -237 569 -243 q 628 -221 613 -231 l 640 -269 q 597 -287 622 -279 q 535 -294 571 -294 z "},"Ů":{"ha":954,"x_min":124,"x_max":831,"o":"m 831 917 l 831 335 q 738 75 831 164 q 478 -14 646 -14 q 217 75 310 -14 q 124 335 124 164 l 124 917 l 193 917 l 193 349 q 266 126 193 201 q 478 50 339 50 q 689 126 617 50 q 761 349 761 201 l 761 917 l 831 917 m 474 1221 q 579 1182 539 1221 q 619 1082 619 1143 q 579 981 619 1021 q 474 942 539 942 q 369 981 410 942 q 328 1082 328 1021 q 369 1182 328 1143 q 474 1221 410 1221 m 474 1175 q 406 1149 433 1175 q 379 1082 379 1122 q 406 1015 379 1042 q 474 988 433 988 q 542 1015 515 988 q 569 1082 569 1042 q 542 1149 569 1122 q 474 1175 515 1175 z "},"Ũ":{"ha":954,"x_min":124,"x_max":831,"o":"m 831 917 l 831 335 q 738 75 831 164 q 478 -14 646 -14 q 217 75 310 -14 q 124 335 124 164 l 124 917 l 193 917 l 193 349 q 266 126 193 201 q 478 50 339 50 q 689 126 617 50 q 761 349 761 201 l 761 917 l 831 917 m 714 1151 q 691 1067 708 1101 q 646 1015 674 1032 q 578 999 618 999 q 514 1013 540 999 q 467 1046 488 1028 q 426 1078 446 1064 q 381 1093 406 1093 q 326 1067 344 1093 q 297 997 307 1042 l 242 997 q 285 1112 250 1074 q 382 1150 321 1150 q 443 1135 417 1150 q 490 1103 469 1121 q 531 1070 511 1085 q 576 1056 551 1056 q 632 1081 614 1056 q 658 1151 650 1106 l 714 1151 z "},"Ṹ":{"ha":954,"x_min":124,"x_max":831,"o":"m 831 917 l 831 335 q 738 75 831 164 q 478 -14 646 -14 q 217 75 310 -14 q 124 335 124 164 l 124 917 l 193 917 l 193 349 q 266 126 193 201 q 478 50 339 50 q 689 126 617 50 q 761 349 761 201 l 761 917 l 831 917 m 714 1151 q 691 1067 708 1101 q 646 1015 674 1032 q 578 999 618 999 q 514 1013 540 999 q 467 1046 488 1028 q 426 1078 446 1064 q 381 1093 406 1093 q 326 1067 344 1093 q 297 997 307 1042 l 242 997 q 285 1112 250 1074 q 382 1150 321 1150 q 443 1135 417 1150 q 490 1103 469 1121 q 531 1070 511 1085 q 576 1056 551 1056 q 632 1081 614 1056 q 658 1151 650 1106 l 714 1151 m 539 1451 l 613 1451 l 497 1238 l 440 1238 l 539 1451 z "},"V":{"ha":853,"x_min":32,"x_max":821,"o":"m 821 917 l 468 0 l 386 0 l 32 917 l 107 917 l 378 207 l 426 65 l 475 207 l 747 917 l 821 917 z "},"W":{"ha":1301,"x_min":42,"x_max":1260,"o":"m 328 0 l 42 917 l 114 917 l 372 64 l 611 917 l 692 917 l 932 63 l 1190 917 l 1260 917 l 974 0 l 888 0 l 703 643 l 651 842 l 650 842 l 599 643 l 414 0 l 328 0 z "},"Ẃ":{"ha":1301,"x_min":42,"x_max":1260,"o":"m 328 0 l 42 917 l 114 917 l 372 64 l 611 917 l 692 917 l 932 63 l 1190 917 l 1260 917 l 974 0 l 888 0 l 703 643 l 651 842 l 650 842 l 599 643 l 414 0 l 328 0 m 714 1246 l 788 1246 l 672 1032 l 615 1032 l 714 1246 z "},"Ŵ":{"ha":1301,"x_min":42,"x_max":1260,"o":"m 328 0 l 42 917 l 114 917 l 372 64 l 611 917 l 692 917 l 932 63 l 1190 917 l 1260 917 l 974 0 l 888 0 l 703 643 l 651 842 l 650 842 l 599 643 l 414 0 l 328 0 m 843 1032 l 776 1032 l 651 1194 l 526 1032 l 460 1032 l 613 1242 l 690 1242 l 843 1032 z "},"Ẅ":{"ha":1301,"x_min":42,"x_max":1260,"o":"m 328 0 l 42 917 l 114 917 l 372 64 l 611 917 l 692 917 l 932 63 l 1190 917 l 1260 917 l 974 0 l 888 0 l 703 643 l 651 842 l 650 842 l 599 643 l 414 0 l 328 0 m 519 1154 q 560 1139 544 1154 q 575 1097 575 1124 q 560 1057 575 1072 q 519 1042 544 1042 q 478 1057 494 1042 q 463 1097 463 1072 q 478 1139 463 1124 q 519 1154 494 1154 m 782 1154 q 824 1139 808 1154 q 839 1097 839 1124 q 824 1057 839 1072 q 782 1042 808 1042 q 742 1057 757 1042 q 726 1097 726 1072 q 742 1139 726 1124 q 782 1154 757 1154 z "},"Ẁ":{"ha":1301,"x_min":42,"x_max":1260,"o":"m 328 0 l 42 917 l 114 917 l 372 64 l 611 917 l 692 917 l 932 63 l 1190 917 l 1260 917 l 974 0 l 888 0 l 703 643 l 651 842 l 650 842 l 599 643 l 414 0 l 328 0 m 590 1246 l 688 1032 l 631 1032 l 517 1246 l 590 1246 z "},"X":{"ha":786,"x_min":26,"x_max":751,"o":"m 751 0 l 671 0 l 392 413 l 108 0 l 26 0 l 354 471 l 54 917 l 138 917 l 397 529 l 661 917 l 740 917 l 435 472 l 751 0 z "},"Y":{"ha":756,"x_min":18,"x_max":738,"o":"m 738 917 l 413 357 l 413 0 l 343 0 l 343 357 l 18 917 l 100 917 l 279 603 l 378 429 l 476 603 l 656 917 l 738 917 z "},"Ý":{"ha":756,"x_min":18,"x_max":738,"o":"m 738 917 l 413 357 l 413 0 l 343 0 l 343 357 l 18 917 l 100 917 l 279 603 l 378 429 l 476 603 l 656 917 l 738 917 m 440 1206 l 514 1206 l 399 992 l 342 992 l 440 1206 z "},"Ŷ":{"ha":756,"x_min":18,"x_max":738,"o":"m 738 917 l 413 357 l 413 0 l 343 0 l 343 357 l 18 917 l 100 917 l 279 603 l 378 429 l 476 603 l 656 917 l 738 917 m 569 992 l 503 992 l 378 1154 l 253 992 l 186 992 l 339 1201 l 417 1201 l 569 992 z "},"Ÿ":{"ha":756,"x_min":18,"x_max":738,"o":"m 738 917 l 413 357 l 413 0 l 343 0 l 343 357 l 18 917 l 100 917 l 279 603 l 378 429 l 476 603 l 656 917 l 738 917 m 246 1114 q 286 1099 271 1114 q 301 1057 301 1083 q 286 1017 301 1032 q 246 1001 271 1001 q 205 1017 221 1001 q 189 1057 189 1032 q 205 1099 189 1083 q 246 1114 221 1114 m 508 1114 q 550 1099 535 1114 q 565 1057 565 1083 q 550 1017 565 1032 q 508 1001 535 1001 q 468 1017 483 1001 q 453 1057 453 1032 q 468 1099 453 1083 q 508 1114 483 1114 z "},"Ẏ":{"ha":756,"x_min":18,"x_max":738,"o":"m 738 917 l 413 357 l 413 0 l 343 0 l 343 357 l 18 917 l 100 917 l 279 603 l 378 429 l 476 603 l 656 917 l 738 917 m 378 1128 q 420 1112 404 1128 q 436 1069 436 1096 q 420 1027 436 1043 q 378 1011 404 1011 q 335 1027 351 1011 q 319 1069 319 1043 q 335 1112 319 1096 q 378 1128 351 1128 z "},"Ỵ":{"ha":756,"x_min":18,"x_max":738,"o":"m 738 917 l 413 357 l 413 0 l 343 0 l 343 357 l 18 917 l 100 917 l 279 603 l 378 429 l 476 603 l 656 917 l 738 917 m 378 -224 q 356 -215 364 -224 q 347 -193 347 -207 q 356 -172 347 -179 q 378 -164 364 -164 q 400 -172 392 -164 q 408 -193 408 -179 q 400 -215 408 -207 q 378 -224 392 -224 z "},"Ỳ":{"ha":756,"x_min":18,"x_max":738,"o":"m 738 917 l 413 357 l 413 0 l 343 0 l 343 357 l 18 917 l 100 917 l 279 603 l 378 429 l 476 603 l 656 917 l 738 917 m 317 1206 l 414 992 l 357 992 l 243 1206 l 317 1206 z "},"Ỷ":{"ha":756,"x_min":18,"x_max":738,"o":"m 738 917 l 413 357 l 413 0 l 343 0 l 343 357 l 18 917 l 100 917 l 279 603 l 378 429 l 476 603 l 656 917 l 738 917 m 379 953 l 354 985 q 411 1027 393 1006 q 429 1079 429 1049 q 413 1118 429 1103 q 369 1133 396 1133 q 328 1121 344 1133 q 301 1088 311 1108 l 257 1115 q 305 1169 274 1150 q 378 1189 336 1189 q 435 1176 411 1189 q 473 1140 458 1163 q 488 1089 488 1117 q 475 1033 488 1058 q 438 988 463 1007 q 379 953 414 968 z "},"Ȳ":{"ha":756,"x_min":18,"x_max":738,"o":"m 738 917 l 413 357 l 413 0 l 343 0 l 343 357 l 18 917 l 100 917 l 279 603 l 378 429 l 476 603 l 656 917 l 738 917 m 593 1074 l 593 1015 l 163 1015 l 163 1074 l 593 1074 z "},"Ỹ":{"ha":756,"x_min":18,"x_max":738,"o":"m 738 917 l 413 357 l 413 0 l 343 0 l 343 357 l 18 917 l 100 917 l 279 603 l 378 429 l 476 603 l 656 917 l 738 917 m 614 1156 q 591 1071 608 1106 q 546 1019 574 1036 q 478 1003 518 1003 q 414 1017 440 1003 q 367 1050 388 1032 q 326 1083 346 1068 q 281 1097 306 1097 q 226 1072 244 1097 q 197 1001 207 1046 l 142 1001 q 185 1116 150 1078 q 282 1154 221 1154 q 343 1140 317 1154 q 390 1107 369 1125 q 431 1074 411 1089 q 476 1060 451 1060 q 532 1085 514 1060 q 558 1156 550 1110 l 614 1156 z "},"Z":{"ha":824,"x_min":60,"x_max":768,"o":"m 122 39 l 110 64 l 768 64 l 768 0 l 60 0 l 60 61 l 683 878 l 696 853 l 72 853 l 72 917 l 746 917 l 746 856 l 122 39 z "},"Ź":{"ha":824,"x_min":60,"x_max":768,"o":"m 122 39 l 110 64 l 768 64 l 768 0 l 60 0 l 60 61 l 683 878 l 696 853 l 72 853 l 72 917 l 746 917 l 746 856 l 122 39 m 468 1246 l 542 1246 l 426 1032 l 369 1032 l 468 1246 z "},"Ž":{"ha":824,"x_min":60,"x_max":768,"o":"m 122 39 l 110 64 l 768 64 l 768 0 l 60 0 l 60 61 l 683 878 l 696 853 l 72 853 l 72 917 l 746 917 l 746 856 l 122 39 m 597 1242 l 444 1032 l 367 1032 l 214 1242 l 281 1242 l 406 1079 l 531 1242 l 597 1242 z "},"Ż":{"ha":824,"x_min":60,"x_max":768,"o":"m 122 39 l 110 64 l 768 64 l 768 0 l 60 0 l 60 61 l 683 878 l 696 853 l 72 853 l 72 917 l 746 917 l 746 856 l 122 39 m 406 1168 q 448 1152 432 1168 q 464 1110 464 1136 q 448 1067 464 1083 q 406 1051 432 1051 q 363 1067 379 1051 q 347 1110 347 1083 q 363 1152 347 1136 q 406 1168 379 1168 z "},"Ẓ":{"ha":824,"x_min":60,"x_max":768,"o":"m 122 39 l 110 64 l 768 64 l 768 0 l 60 0 l 60 61 l 683 878 l 696 853 l 72 853 l 72 917 l 746 917 l 746 856 l 122 39 m 406 -224 q 383 -215 392 -224 q 375 -193 375 -207 q 383 -172 375 -179 q 406 -164 392 -164 q 428 -172 419 -164 q 436 -193 436 -179 q 428 -215 436 -207 q 406 -224 419 -224 z "},"a":{"ha":754,"x_min":76,"x_max":735,"o":"m 549 457 q 500 597 549 547 q 361 647 451 647 q 225 613 282 647 q 140 500 168 579 l 83 536 q 185 663 114 618 q 363 708 257 708 q 497 681 439 708 q 586 601 554 654 q 618 469 618 549 l 618 122 q 685 49 618 49 q 735 58 714 49 l 731 3 q 669 -10 707 -10 q 610 3 638 -10 q 565 44 582 15 q 547 124 547 74 l 547 161 l 567 163 q 512 63 554 103 q 414 5 469 24 q 303 -14 358 -14 q 186 7 238 -14 q 106 67 135 28 q 76 165 76 107 q 128 291 76 243 q 275 357 181 339 l 563 414 l 563 356 l 310 306 q 188 257 228 289 q 147 171 147 225 q 190 80 147 113 q 313 47 233 47 q 394 58 353 47 q 472 94 436 69 q 528 155 507 118 q 549 244 549 192 l 549 457 z "},"á":{"ha":754,"x_min":76,"x_max":735,"o":"m 549 457 q 500 597 549 547 q 361 647 451 647 q 225 613 282 647 q 140 500 168 579 l 83 536 q 185 663 114 618 q 363 708 257 708 q 497 681 439 708 q 586 601 554 654 q 618 469 618 549 l 618 122 q 685 49 618 49 q 735 58 714 49 l 731 3 q 669 -10 707 -10 q 610 3 638 -10 q 565 44 582 15 q 547 124 547 74 l 547 161 l 567 163 q 512 63 554 103 q 414 5 469 24 q 303 -14 358 -14 q 186 7 238 -14 q 106 67 135 28 q 76 165 76 107 q 128 291 76 243 q 275 357 181 339 l 563 414 l 563 356 l 310 306 q 188 257 228 289 q 147 171 147 225 q 190 80 147 113 q 313 47 233 47 q 394 58 353 47 q 472 94 436 69 q 528 155 507 118 q 549 244 549 192 l 549 457 m 432 1029 l 508 1029 l 378 810 l 321 810 l 432 1029 z "},"ă":{"ha":754,"x_min":76,"x_max":735,"o":"m 549 457 q 500 597 549 547 q 361 647 451 647 q 225 613 282 647 q 140 500 168 579 l 83 536 q 185 663 114 618 q 363 708 257 708 q 497 681 439 708 q 586 601 554 654 q 618 469 618 549 l 618 122 q 685 49 618 49 q 735 58 714 49 l 731 3 q 669 -10 707 -10 q 610 3 638 -10 q 565 44 582 15 q 547 124 547 74 l 547 161 l 567 163 q 512 63 554 103 q 414 5 469 24 q 303 -14 358 -14 q 186 7 238 -14 q 106 67 135 28 q 76 165 76 107 q 128 291 76 243 q 275 357 181 339 l 563 414 l 563 356 l 310 306 q 188 257 228 289 q 147 171 147 225 q 190 80 147 113 q 313 47 233 47 q 394 58 353 47 q 472 94 436 69 q 528 155 507 118 q 549 244 549 192 l 549 457 m 549 992 q 498 855 549 906 q 361 804 447 804 q 224 855 275 804 q 174 992 174 906 l 231 992 q 265 896 231 935 q 361 857 299 857 q 458 896 425 857 q 492 992 492 935 l 549 992 z "},"ắ":{"ha":754,"x_min":76,"x_max":735,"o":"m 549 992 q 498 855 549 906 q 361 804 447 804 q 224 855 275 804 q 174 992 174 906 l 231 992 q 265 896 231 935 q 361 857 299 857 q 458 896 425 857 q 492 992 492 935 l 549 992 m 321 1006 l 400 1192 l 472 1192 l 376 1006 l 321 1006 m 549 457 q 500 597 549 547 q 361 647 451 647 q 225 613 282 647 q 140 500 168 579 l 83 536 q 185 663 114 618 q 363 708 257 708 q 497 681 439 708 q 586 601 554 654 q 618 469 618 549 l 618 122 q 685 49 618 49 q 735 58 714 49 l 731 3 q 669 -10 707 -10 q 610 3 638 -10 q 565 44 582 15 q 547 124 547 74 l 547 161 l 567 163 q 512 63 554 103 q 414 5 469 24 q 303 -14 358 -14 q 186 7 238 -14 q 106 67 135 28 q 76 165 76 107 q 128 291 76 243 q 275 357 181 339 l 563 414 l 563 356 l 310 306 q 188 257 228 289 q 147 171 147 225 q 190 80 147 113 q 313 47 233 47 q 394 58 353 47 q 472 94 436 69 q 528 155 507 118 q 549 244 549 192 l 549 457 z "},"ặ":{"ha":754,"x_min":76,"x_max":735,"o":"m 549 457 q 500 597 549 547 q 361 647 451 647 q 225 613 282 647 q 140 500 168 579 l 83 536 q 185 663 114 618 q 363 708 257 708 q 497 681 439 708 q 586 601 554 654 q 618 469 618 549 l 618 122 q 685 49 618 49 q 735 58 714 49 l 731 3 q 669 -10 707 -10 q 610 3 638 -10 q 565 44 582 15 q 547 124 547 74 l 547 161 l 567 163 q 512 63 554 103 q 414 5 469 24 q 303 -14 358 -14 q 186 7 238 -14 q 106 67 135 28 q 76 165 76 107 q 128 291 76 243 q 275 357 181 339 l 563 414 l 563 356 l 310 306 q 188 257 228 289 q 147 171 147 225 q 190 80 147 113 q 313 47 233 47 q 394 58 353 47 q 472 94 436 69 q 528 155 507 118 q 549 244 549 192 l 549 457 m 361 -224 q 339 -215 347 -224 q 331 -193 331 -207 q 339 -172 331 -179 q 361 -164 347 -164 q 383 -172 375 -164 q 392 -193 392 -179 q 383 -215 392 -207 q 361 -224 375 -224 m 549 992 q 498 855 549 906 q 361 804 447 804 q 224 855 275 804 q 174 992 174 906 l 231 992 q 265 896 231 935 q 361 857 299 857 q 458 896 425 857 q 492 992 492 935 l 549 992 z "},"ằ":{"ha":754,"x_min":76,"x_max":735,"o":"m 549 992 q 498 855 549 906 q 361 804 447 804 q 224 855 275 804 q 174 992 174 906 l 231 992 q 265 896 231 935 q 361 857 299 857 q 458 896 425 857 q 492 992 492 935 l 549 992 m 401 1006 l 346 1006 l 250 1192 l 322 1192 l 401 1006 m 549 457 q 500 597 549 547 q 361 647 451 647 q 225 613 282 647 q 140 500 168 579 l 83 536 q 185 663 114 618 q 363 708 257 708 q 497 681 439 708 q 586 601 554 654 q 618 469 618 549 l 618 122 q 685 49 618 49 q 735 58 714 49 l 731 3 q 669 -10 707 -10 q 610 3 638 -10 q 565 44 582 15 q 547 124 547 74 l 547 161 l 567 163 q 512 63 554 103 q 414 5 469 24 q 303 -14 358 -14 q 186 7 238 -14 q 106 67 135 28 q 76 165 76 107 q 128 291 76 243 q 275 357 181 339 l 563 414 l 563 356 l 310 306 q 188 257 228 289 q 147 171 147 225 q 190 80 147 113 q 313 47 233 47 q 394 58 353 47 q 472 94 436 69 q 528 155 507 118 q 549 244 549 192 l 549 457 z "},"ẳ":{"ha":754,"x_min":76,"x_max":735,"o":"m 549 992 q 498 855 549 906 q 361 804 447 804 q 224 855 275 804 q 174 992 174 906 l 231 992 q 265 896 231 935 q 361 857 299 857 q 458 896 425 857 q 492 992 492 935 l 549 992 m 364 992 l 338 1022 q 394 1065 376 1044 q 413 1117 413 1086 q 397 1157 413 1142 q 353 1172 381 1172 q 311 1159 328 1172 q 285 1125 294 1146 l 240 1154 q 288 1207 257 1188 q 361 1226 319 1226 q 419 1214 394 1226 q 457 1178 443 1201 q 471 1126 471 1156 q 458 1071 471 1096 q 422 1026 446 1046 q 364 992 397 1007 m 549 457 q 500 597 549 547 q 361 647 451 647 q 225 613 282 647 q 140 500 168 579 l 83 536 q 185 663 114 618 q 363 708 257 708 q 497 681 439 708 q 586 601 554 654 q 618 469 618 549 l 618 122 q 685 49 618 49 q 735 58 714 49 l 731 3 q 669 -10 707 -10 q 610 3 638 -10 q 565 44 582 15 q 547 124 547 74 l 547 161 l 567 163 q 512 63 554 103 q 414 5 469 24 q 303 -14 358 -14 q 186 7 238 -14 q 106 67 135 28 q 76 165 76 107 q 128 291 76 243 q 275 357 181 339 l 563 414 l 563 356 l 310 306 q 188 257 228 289 q 147 171 147 225 q 190 80 147 113 q 313 47 233 47 q 394 58 353 47 q 472 94 436 69 q 528 155 507 118 q 549 244 549 192 l 549 457 z "},"ẵ":{"ha":754,"x_min":76,"x_max":735,"o":"m 549 992 q 498 855 549 906 q 361 804 447 804 q 224 855 275 804 q 174 992 174 906 l 231 992 q 265 896 231 935 q 361 857 299 857 q 458 896 425 857 q 492 992 492 935 l 549 992 m 588 1189 q 544 1079 578 1114 q 454 1044 510 1044 q 391 1058 415 1044 q 349 1090 367 1072 q 313 1121 332 1107 q 267 1135 294 1135 q 217 1113 233 1135 q 192 1046 200 1090 l 135 1046 q 178 1156 144 1121 q 268 1192 213 1192 q 330 1178 306 1192 q 372 1147 354 1164 q 409 1115 390 1129 q 454 1101 428 1101 q 505 1124 488 1101 q 531 1189 522 1146 l 588 1189 m 549 457 q 500 597 549 547 q 361 647 451 647 q 225 613 282 647 q 140 500 168 579 l 83 536 q 185 663 114 618 q 363 708 257 708 q 497 681 439 708 q 586 601 554 654 q 618 469 618 549 l 618 122 q 685 49 618 49 q 735 58 714 49 l 731 3 q 669 -10 707 -10 q 610 3 638 -10 q 565 44 582 15 q 547 124 547 74 l 547 161 l 567 163 q 512 63 554 103 q 414 5 469 24 q 303 -14 358 -14 q 186 7 238 -14 q 106 67 135 28 q 76 165 76 107 q 128 291 76 243 q 275 357 181 339 l 563 414 l 563 356 l 310 306 q 188 257 228 289 q 147 171 147 225 q 190 80 147 113 q 313 47 233 47 q 394 58 353 47 q 472 94 436 69 q 528 155 507 118 q 549 244 549 192 l 549 457 z "},"â":{"ha":754,"x_min":76,"x_max":735,"o":"m 549 457 q 500 597 549 547 q 361 647 451 647 q 225 613 282 647 q 140 500 168 579 l 83 536 q 185 663 114 618 q 363 708 257 708 q 497 681 439 708 q 586 601 554 654 q 618 469 618 549 l 618 122 q 685 49 618 49 q 735 58 714 49 l 731 3 q 669 -10 707 -10 q 610 3 638 -10 q 565 44 582 15 q 547 124 547 74 l 547 161 l 567 163 q 512 63 554 103 q 414 5 469 24 q 303 -14 358 -14 q 186 7 238 -14 q 106 67 135 28 q 76 165 76 107 q 128 291 76 243 q 275 357 181 339 l 563 414 l 563 356 l 310 306 q 188 257 228 289 q 147 171 147 225 q 190 80 147 113 q 313 47 233 47 q 394 58 353 47 q 472 94 436 69 q 528 155 507 118 q 549 244 549 192 l 549 457 m 554 804 l 490 804 l 361 974 l 232 804 l 168 804 l 322 1021 l 400 1021 l 554 804 z "},"ấ":{"ha":754,"x_min":76,"x_max":735,"o":"m 554 804 l 490 804 l 361 974 l 233 804 l 168 804 l 322 1021 l 400 1021 l 554 804 m 599 1156 l 665 1156 l 563 964 l 511 964 l 599 1156 m 549 457 q 500 597 549 547 q 361 647 451 647 q 225 613 282 647 q 140 500 168 579 l 83 536 q 185 663 114 618 q 363 708 257 708 q 497 681 439 708 q 586 601 554 654 q 618 469 618 549 l 618 122 q 685 49 618 49 q 735 58 714 49 l 731 3 q 669 -10 707 -10 q 610 3 638 -10 q 565 44 582 15 q 547 124 547 74 l 547 161 l 567 163 q 512 63 554 103 q 414 5 469 24 q 303 -14 358 -14 q 186 7 238 -14 q 106 67 135 28 q 76 165 76 107 q 128 291 76 243 q 275 357 181 339 l 563 414 l 563 356 l 310 306 q 188 257 228 289 q 147 171 147 225 q 190 80 147 113 q 313 47 233 47 q 394 58 353 47 q 472 94 436 69 q 528 155 507 118 q 549 244 549 192 l 549 457 z "},"ậ":{"ha":754,"x_min":76,"x_max":735,"o":"m 549 457 q 500 597 549 547 q 361 647 451 647 q 225 613 282 647 q 140 500 168 579 l 83 536 q 185 663 114 618 q 363 708 257 708 q 497 681 439 708 q 586 601 554 654 q 618 469 618 549 l 618 122 q 685 49 618 49 q 735 58 714 49 l 731 3 q 669 -10 707 -10 q 610 3 638 -10 q 565 44 582 15 q 547 124 547 74 l 547 161 l 567 163 q 512 63 554 103 q 414 5 469 24 q 303 -14 358 -14 q 186 7 238 -14 q 106 67 135 28 q 76 165 76 107 q 128 291 76 243 q 275 357 181 339 l 563 414 l 563 356 l 310 306 q 188 257 228 289 q 147 171 147 225 q 190 80 147 113 q 313 47 233 47 q 394 58 353 47 q 472 94 436 69 q 528 155 507 118 q 549 244 549 192 l 549 457 m 361 -224 q 339 -215 347 -224 q 331 -193 331 -207 q 339 -172 331 -179 q 361 -164 347 -164 q 383 -172 375 -164 q 392 -193 392 -179 q 383 -215 392 -207 q 361 -224 375 -224 m 554 804 l 490 804 l 361 974 l 232 804 l 168 804 l 322 1021 l 400 1021 l 554 804 z "},"ầ":{"ha":754,"x_min":76,"x_max":735,"o":"m 554 804 l 490 804 l 361 974 l 233 804 l 168 804 l 322 1021 l 400 1021 l 554 804 m 499 1156 l 588 964 l 536 964 l 433 1156 l 499 1156 m 549 457 q 500 597 549 547 q 361 647 451 647 q 225 613 282 647 q 140 500 168 579 l 83 536 q 185 663 114 618 q 363 708 257 708 q 497 681 439 708 q 586 601 554 654 q 618 469 618 549 l 618 122 q 685 49 618 49 q 735 58 714 49 l 731 3 q 669 -10 707 -10 q 610 3 638 -10 q 565 44 582 15 q 547 124 547 74 l 547 161 l 567 163 q 512 63 554 103 q 414 5 469 24 q 303 -14 358 -14 q 186 7 238 -14 q 106 67 135 28 q 76 165 76 107 q 128 291 76 243 q 275 357 181 339 l 563 414 l 563 356 l 310 306 q 188 257 228 289 q 147 171 147 225 q 190 80 147 113 q 313 47 233 47 q 394 58 353 47 q 472 94 436 69 q 528 155 507 118 q 549 244 549 192 l 549 457 z "},"ẩ":{"ha":754,"x_min":76,"x_max":735,"o":"m 554 804 l 490 804 l 361 974 l 233 804 l 168 804 l 322 1021 l 400 1021 l 554 804 m 544 936 l 518 968 q 575 1010 557 989 q 593 1063 593 1032 q 577 1101 593 1086 q 535 1117 561 1117 q 492 1104 508 1117 q 465 1071 475 1092 l 422 1099 q 469 1153 438 1133 q 543 1172 501 1172 q 599 1159 575 1172 q 638 1123 624 1146 q 651 1072 651 1100 q 640 1016 651 1042 q 603 971 628 990 q 544 936 579 951 m 549 457 q 500 597 549 547 q 361 647 451 647 q 225 613 282 647 q 140 500 168 579 l 83 536 q 185 663 114 618 q 363 708 257 708 q 497 681 439 708 q 586 601 554 654 q 618 469 618 549 l 618 122 q 685 49 618 49 q 735 58 714 49 l 731 3 q 669 -10 707 -10 q 610 3 638 -10 q 565 44 582 15 q 547 124 547 74 l 547 161 l 567 163 q 512 63 554 103 q 414 5 469 24 q 303 -14 358 -14 q 186 7 238 -14 q 106 67 135 28 q 76 165 76 107 q 128 291 76 243 q 275 357 181 339 l 563 414 l 563 356 l 310 306 q 188 257 228 289 q 147 171 147 225 q 190 80 147 113 q 313 47 233 47 q 394 58 353 47 q 472 94 436 69 q 528 155 507 118 q 549 244 549 192 l 549 457 z "},"ẫ":{"ha":754,"x_min":76,"x_max":735,"o":"m 554 804 l 490 804 l 361 974 l 233 804 l 168 804 l 322 1021 l 400 1021 l 554 804 m 588 1203 q 544 1092 578 1128 q 454 1057 510 1057 q 391 1071 415 1057 q 349 1102 367 1085 q 313 1133 332 1119 q 267 1147 294 1147 q 217 1126 233 1147 q 192 1060 200 1104 l 135 1060 q 178 1169 144 1135 q 268 1204 213 1204 q 330 1191 306 1204 q 372 1160 354 1178 q 409 1128 390 1142 q 454 1114 428 1114 q 505 1136 488 1114 q 531 1203 522 1158 l 588 1203 m 549 457 q 500 597 549 547 q 361 647 451 647 q 225 613 282 647 q 140 500 168 579 l 83 536 q 185 663 114 618 q 363 708 257 708 q 497 681 439 708 q 586 601 554 654 q 618 469 618 549 l 618 122 q 685 49 618 49 q 735 58 714 49 l 731 3 q 669 -10 707 -10 q 610 3 638 -10 q 565 44 582 15 q 547 124 547 74 l 547 161 l 567 163 q 512 63 554 103 q 414 5 469 24 q 303 -14 358 -14 q 186 7 238 -14 q 106 67 135 28 q 76 165 76 107 q 128 291 76 243 q 275 357 181 339 l 563 414 l 563 356 l 310 306 q 188 257 228 289 q 147 171 147 225 q 190 80 147 113 q 313 47 233 47 q 394 58 353 47 q 472 94 436 69 q 528 155 507 118 q 549 244 549 192 l 549 457 z "},"ȁ":{"ha":754,"x_min":76,"x_max":735,"o":"m 549 457 q 500 597 549 547 q 361 647 451 647 q 225 613 282 647 q 140 500 168 579 l 83 536 q 185 663 114 618 q 363 708 257 708 q 497 681 439 708 q 586 601 554 654 q 618 469 618 549 l 618 122 q 685 49 618 49 q 735 58 714 49 l 731 3 q 669 -10 707 -10 q 610 3 638 -10 q 565 44 582 15 q 547 124 547 74 l 547 161 l 567 163 q 512 63 554 103 q 414 5 469 24 q 303 -14 358 -14 q 186 7 238 -14 q 106 67 135 28 q 76 165 76 107 q 128 291 76 243 q 275 357 181 339 l 563 414 l 563 356 l 310 306 q 188 257 228 289 q 147 171 147 225 q 190 80 147 113 q 313 47 233 47 q 394 58 353 47 q 472 94 436 69 q 528 155 507 118 q 549 244 549 192 l 549 457 m 297 810 l 239 810 l 110 1029 l 185 1029 l 297 810 m 513 810 l 454 810 l 325 1029 l 400 1029 l 513 810 z "},"ä":{"ha":754,"x_min":76,"x_max":735,"o":"m 549 457 q 500 597 549 547 q 361 647 451 647 q 225 613 282 647 q 140 500 168 579 l 83 536 q 185 663 114 618 q 363 708 257 708 q 497 681 439 708 q 586 601 554 654 q 618 469 618 549 l 618 122 q 685 49 618 49 q 735 58 714 49 l 731 3 q 669 -10 707 -10 q 610 3 638 -10 q 565 44 582 15 q 547 124 547 74 l 547 161 l 567 163 q 512 63 554 103 q 414 5 469 24 q 303 -14 358 -14 q 186 7 238 -14 q 106 67 135 28 q 76 165 76 107 q 128 291 76 243 q 275 357 181 339 l 563 414 l 563 356 l 310 306 q 188 257 228 289 q 147 171 147 225 q 190 80 147 113 q 313 47 233 47 q 394 58 353 47 q 472 94 436 69 q 528 155 507 118 q 549 244 549 192 l 549 457 m 229 932 q 269 917 254 932 q 285 875 285 901 q 269 835 285 850 q 229 819 254 819 q 188 835 204 819 q 172 875 172 850 q 188 917 172 901 q 229 932 204 932 m 492 932 q 533 917 518 932 q 549 875 549 901 q 533 835 549 850 q 492 819 518 819 q 451 835 467 819 q 436 875 436 850 q 451 917 436 901 q 492 932 467 932 z "},"ạ":{"ha":754,"x_min":76,"x_max":735,"o":"m 549 457 q 500 597 549 547 q 361 647 451 647 q 225 613 282 647 q 140 500 168 579 l 83 536 q 185 663 114 618 q 363 708 257 708 q 497 681 439 708 q 586 601 554 654 q 618 469 618 549 l 618 122 q 685 49 618 49 q 735 58 714 49 l 731 3 q 669 -10 707 -10 q 610 3 638 -10 q 565 44 582 15 q 547 124 547 74 l 547 161 l 567 163 q 512 63 554 103 q 414 5 469 24 q 303 -14 358 -14 q 186 7 238 -14 q 106 67 135 28 q 76 165 76 107 q 128 291 76 243 q 275 357 181 339 l 563 414 l 563 356 l 310 306 q 188 257 228 289 q 147 171 147 225 q 190 80 147 113 q 313 47 233 47 q 394 58 353 47 q 472 94 436 69 q 528 155 507 118 q 549 244 549 192 l 549 457 m 361 -224 q 339 -215 347 -224 q 331 -193 331 -207 q 339 -172 331 -179 q 361 -164 347 -164 q 383 -172 375 -164 q 392 -193 392 -179 q 383 -215 392 -207 q 361 -224 375 -224 z "},"à":{"ha":754,"x_min":76,"x_max":735,"o":"m 549 457 q 500 597 549 547 q 361 647 451 647 q 225 613 282 647 q 140 500 168 579 l 83 536 q 185 663 114 618 q 363 708 257 708 q 497 681 439 708 q 586 601 554 654 q 618 469 618 549 l 618 122 q 685 49 618 49 q 735 58 714 49 l 731 3 q 669 -10 707 -10 q 610 3 638 -10 q 565 44 582 15 q 547 124 547 74 l 547 161 l 567 163 q 512 63 554 103 q 414 5 469 24 q 303 -14 358 -14 q 186 7 238 -14 q 106 67 135 28 q 76 165 76 107 q 128 291 76 243 q 275 357 181 339 l 563 414 l 563 356 l 310 306 q 188 257 228 289 q 147 171 147 225 q 190 80 147 113 q 313 47 233 47 q 394 58 353 47 q 472 94 436 69 q 528 155 507 118 q 549 244 549 192 l 549 457 m 288 1029 l 399 810 l 342 810 l 213 1029 l 288 1029 z "},"ả":{"ha":754,"x_min":76,"x_max":735,"o":"m 549 457 q 500 597 549 547 q 361 647 451 647 q 225 613 282 647 q 140 500 168 579 l 83 536 q 185 663 114 618 q 363 708 257 708 q 497 681 439 708 q 586 601 554 654 q 618 469 618 549 l 618 122 q 685 49 618 49 q 735 58 714 49 l 731 3 q 669 -10 707 -10 q 610 3 638 -10 q 565 44 582 15 q 547 124 547 74 l 547 161 l 567 163 q 512 63 554 103 q 414 5 469 24 q 303 -14 358 -14 q 186 7 238 -14 q 106 67 135 28 q 76 165 76 107 q 128 291 76 243 q 275 357 181 339 l 563 414 l 563 356 l 310 306 q 188 257 228 289 q 147 171 147 225 q 190 80 147 113 q 313 47 233 47 q 394 58 353 47 q 472 94 436 69 q 528 155 507 118 q 549 244 549 192 l 549 457 m 353 778 l 328 813 q 389 859 369 836 q 408 914 408 882 q 392 957 408 940 q 347 974 376 974 q 305 960 322 974 q 275 924 288 946 l 232 953 q 277 1008 246 986 q 356 1029 308 1029 q 415 1016 390 1029 q 454 978 440 1003 q 468 924 468 954 q 455 865 468 892 q 416 818 442 839 q 353 778 390 797 z "},"ȃ":{"ha":754,"x_min":76,"x_max":735,"o":"m 549 457 q 500 597 549 547 q 361 647 451 647 q 225 613 282 647 q 140 500 168 579 l 83 536 q 185 663 114 618 q 363 708 257 708 q 497 681 439 708 q 586 601 554 654 q 618 469 618 549 l 618 122 q 685 49 618 49 q 735 58 714 49 l 731 3 q 669 -10 707 -10 q 610 3 638 -10 q 565 44 582 15 q 547 124 547 74 l 547 161 l 567 163 q 512 63 554 103 q 414 5 469 24 q 303 -14 358 -14 q 186 7 238 -14 q 106 67 135 28 q 76 165 76 107 q 128 291 76 243 q 275 357 181 339 l 563 414 l 563 356 l 310 306 q 188 257 228 289 q 147 171 147 225 q 190 80 147 113 q 313 47 233 47 q 394 58 353 47 q 472 94 436 69 q 528 155 507 118 q 549 244 549 192 l 549 457 m 549 799 l 492 799 q 458 894 492 856 q 361 933 425 933 q 265 894 299 933 q 231 799 231 856 l 174 799 q 224 935 174 883 q 361 986 275 986 q 498 935 447 986 q 549 799 549 883 z "},"ā":{"ha":754,"x_min":76,"x_max":735,"o":"m 549 457 q 500 597 549 547 q 361 647 451 647 q 225 613 282 647 q 140 500 168 579 l 83 536 q 185 663 114 618 q 363 708 257 708 q 497 681 439 708 q 586 601 554 654 q 618 469 618 549 l 618 122 q 685 49 618 49 q 735 58 714 49 l 731 3 q 669 -10 707 -10 q 610 3 638 -10 q 565 44 582 15 q 547 124 547 74 l 547 161 l 567 163 q 512 63 554 103 q 414 5 469 24 q 303 -14 358 -14 q 186 7 238 -14 q 106 67 135 28 q 76 165 76 107 q 128 291 76 243 q 275 357 181 339 l 563 414 l 563 356 l 310 306 q 188 257 228 289 q 147 171 147 225 q 190 80 147 113 q 313 47 233 47 q 394 58 353 47 q 472 94 436 69 q 528 155 507 118 q 549 244 549 192 l 549 457 m 576 892 l 576 833 l 146 833 l 146 892 l 576 892 z "},"ą":{"ha":754,"x_min":76,"x_max":738,"o":"m 628 -306 q 553 -290 585 -306 q 501 -247 521 -275 q 482 -181 482 -219 q 530 -68 482 -114 q 682 21 578 -22 l 731 3 q 617 -58 658 -29 q 558 -115 575 -86 q 540 -174 540 -143 q 567 -233 540 -212 q 635 -254 594 -254 q 685 -248 663 -254 q 722 -232 707 -242 l 738 -278 q 692 -298 719 -290 q 628 -306 664 -306 m 549 457 q 500 597 549 547 q 361 647 451 647 q 225 613 282 647 q 140 500 168 579 l 83 536 q 185 663 114 618 q 363 708 257 708 q 497 681 439 708 q 586 601 554 654 q 618 469 618 549 l 618 122 q 685 49 618 49 q 735 58 714 49 l 731 3 q 669 -10 707 -10 q 610 3 638 -10 q 565 44 582 15 q 547 124 547 74 l 547 161 l 567 163 q 512 63 554 103 q 414 5 469 24 q 303 -14 358 -14 q 186 7 238 -14 q 106 67 135 28 q 76 165 76 107 q 128 291 76 243 q 275 357 181 339 l 563 414 l 563 356 l 310 306 q 188 257 228 289 q 147 171 147 225 q 190 80 147 113 q 313 47 233 47 q 394 58 353 47 q 472 94 436 69 q 528 155 507 118 q 549 244 549 192 l 549 457 z "},"å":{"ha":754,"x_min":76,"x_max":735,"o":"m 549 457 q 500 597 549 547 q 361 647 451 647 q 225 613 282 647 q 140 500 168 579 l 83 536 q 185 663 114 618 q 363 708 257 708 q 497 681 439 708 q 586 601 554 654 q 618 469 618 549 l 618 122 q 685 49 618 49 q 735 58 714 49 l 731 3 q 669 -10 707 -10 q 610 3 638 -10 q 565 44 582 15 q 547 124 547 74 l 547 161 l 567 163 q 512 63 554 103 q 414 5 469 24 q 303 -14 358 -14 q 186 7 238 -14 q 106 67 135 28 q 76 165 76 107 q 128 291 76 243 q 275 357 181 339 l 563 414 l 563 356 l 310 306 q 188 257 228 289 q 147 171 147 225 q 190 80 147 113 q 313 47 233 47 q 394 58 353 47 q 472 94 436 69 q 528 155 507 118 q 549 244 549 192 l 549 457 m 357 1078 q 463 1039 422 1078 q 503 939 503 1000 q 463 838 503 878 q 357 799 422 799 q 252 838 293 799 q 211 939 211 878 q 252 1039 211 1000 q 357 1078 293 1078 m 357 1032 q 290 1006 317 1032 q 263 939 263 979 q 290 872 263 899 q 357 844 317 844 q 426 872 399 844 q 453 939 453 899 q 426 1006 453 979 q 357 1032 399 1032 z "},"ǻ":{"ha":754,"x_min":76,"x_max":735,"o":"m 549 457 q 500 597 549 547 q 361 647 451 647 q 225 613 282 647 q 140 500 168 579 l 83 536 q 185 663 114 618 q 363 708 257 708 q 497 681 439 708 q 586 601 554 654 q 618 469 618 549 l 618 122 q 685 49 618 49 q 735 58 714 49 l 731 3 q 669 -10 707 -10 q 610 3 638 -10 q 565 44 582 15 q 547 124 547 74 l 547 161 l 567 163 q 512 63 554 103 q 414 5 469 24 q 303 -14 358 -14 q 186 7 238 -14 q 106 67 135 28 q 76 165 76 107 q 128 291 76 243 q 275 357 181 339 l 563 414 l 563 356 l 310 306 q 188 257 228 289 q 147 171 147 225 q 190 80 147 113 q 313 47 233 47 q 394 58 353 47 q 472 94 436 69 q 528 155 507 118 q 549 244 549 192 l 549 457 m 357 1078 q 463 1039 422 1078 q 503 939 503 1000 q 463 838 503 878 q 357 799 422 799 q 252 838 293 799 q 211 939 211 878 q 252 1039 211 1000 q 357 1078 293 1078 m 357 1032 q 290 1006 317 1032 q 263 939 263 979 q 290 872 263 899 q 357 844 317 844 q 426 872 399 844 q 453 939 453 899 q 426 1006 453 979 q 357 1032 399 1032 m 332 1128 l 411 1313 l 483 1313 l 388 1128 l 332 1128 z "},"ã":{"ha":754,"x_min":76,"x_max":735,"o":"m 549 457 q 500 597 549 547 q 361 647 451 647 q 225 613 282 647 q 140 500 168 579 l 83 536 q 185 663 114 618 q 363 708 257 708 q 497 681 439 708 q 586 601 554 654 q 618 469 618 549 l 618 122 q 685 49 618 49 q 735 58 714 49 l 731 3 q 669 -10 707 -10 q 610 3 638 -10 q 565 44 582 15 q 547 124 547 74 l 547 161 l 567 163 q 512 63 554 103 q 414 5 469 24 q 303 -14 358 -14 q 186 7 238 -14 q 106 67 135 28 q 76 165 76 107 q 128 291 76 243 q 275 357 181 339 l 563 414 l 563 356 l 310 306 q 188 257 228 289 q 147 171 147 225 q 190 80 147 113 q 313 47 233 47 q 394 58 353 47 q 472 94 436 69 q 528 155 507 118 q 549 244 549 192 l 549 457 m 597 974 q 574 889 592 924 q 529 838 557 854 q 461 821 501 821 q 397 835 424 821 q 350 868 371 850 q 309 901 329 886 q 264 915 289 915 q 209 890 228 915 q 181 819 190 864 l 125 819 q 169 934 133 896 q 265 972 204 972 q 326 958 300 972 q 374 925 353 943 q 415 892 394 907 q 460 878 435 878 q 515 903 497 878 q 542 974 533 928 l 597 974 z "},"æ":{"ha":1229,"x_min":76,"x_max":1153,"o":"m 306 -14 q 188 7 239 -14 q 106 67 136 28 q 76 165 76 107 q 128 291 76 243 q 272 357 179 339 l 549 410 l 549 457 q 498 597 549 547 q 360 647 447 647 q 227 613 285 647 q 140 500 169 579 l 83 536 q 144 630 106 592 q 238 688 183 668 q 358 708 293 708 q 526 659 460 708 q 606 507 593 610 l 586 511 q 648 617 607 572 q 745 685 689 661 q 865 708 801 708 q 1020 667 956 708 q 1119 554 1085 626 q 1153 390 1153 482 q 1152 365 1153 376 q 1150 344 1151 353 l 618 344 l 618 331 q 690 122 622 197 q 872 47 757 47 q 1003 82 946 47 q 1092 178 1060 117 l 1147 146 q 1080 60 1121 96 q 986 6 1039 25 q 874 -14 933 -14 q 685 43 764 -14 q 576 204 606 100 l 597 211 q 565 110 593 153 q 495 40 538 68 q 403 -1 453 13 q 306 -14 354 -14 m 313 47 q 397 59 356 47 q 474 95 439 71 q 528 158 508 119 q 549 250 549 197 l 549 350 l 310 306 q 188 257 228 289 q 147 171 147 225 q 190 80 147 113 q 313 47 233 47 m 622 406 l 1085 406 q 1056 532 1083 478 q 981 617 1029 586 q 864 647 932 647 q 701 584 767 647 q 622 406 636 521 z "},"ǽ":{"ha":1229,"x_min":76,"x_max":1153,"o":"m 306 -14 q 188 7 239 -14 q 106 67 136 28 q 76 165 76 107 q 128 291 76 243 q 272 357 179 339 l 549 410 l 549 457 q 498 597 549 547 q 360 647 447 647 q 227 613 285 647 q 140 500 169 579 l 83 536 q 144 630 106 592 q 238 688 183 668 q 358 708 293 708 q 526 659 460 708 q 606 507 593 610 l 586 511 q 648 617 607 572 q 745 685 689 661 q 865 708 801 708 q 1020 667 956 708 q 1119 554 1085 626 q 1153 390 1153 482 q 1152 365 1153 376 q 1150 344 1151 353 l 618 344 l 618 331 q 690 122 622 197 q 872 47 757 47 q 1003 82 946 47 q 1092 178 1060 117 l 1147 146 q 1080 60 1121 96 q 986 6 1039 25 q 874 -14 933 -14 q 685 43 764 -14 q 576 204 606 100 l 597 211 q 565 110 593 153 q 495 40 538 68 q 403 -1 453 13 q 306 -14 354 -14 m 313 47 q 397 59 356 47 q 474 95 439 71 q 528 158 508 119 q 549 250 549 197 l 549 350 l 310 306 q 188 257 228 289 q 147 171 147 225 q 190 80 147 113 q 313 47 233 47 m 622 406 l 1085 406 q 1056 532 1083 478 q 981 617 1029 586 q 864 647 932 647 q 701 584 767 647 q 622 406 636 521 m 679 1029 l 756 1029 l 625 810 l 568 810 l 679 1029 z "},"b":{"ha":843,"x_min":124,"x_max":767,"o":"m 450 -14 q 331 10 386 -14 q 238 78 276 33 q 182 182 200 122 l 192 193 l 186 0 l 124 0 l 124 1014 l 193 1014 l 193 508 l 185 521 q 284 658 213 607 q 450 708 356 708 q 613 665 542 708 q 725 542 683 622 q 767 347 767 461 q 725 153 767 235 q 612 29 683 72 q 450 -14 540 -14 m 442 47 q 628 128 560 47 q 697 347 697 208 q 629 567 697 486 q 443 647 561 647 q 314 610 371 647 q 225 506 257 574 q 193 346 193 438 q 225 188 193 256 q 313 83 257 119 q 442 47 369 47 z "},"c":{"ha":754,"x_min":76,"x_max":692,"o":"m 404 708 q 531 686 475 708 q 625 622 586 664 q 685 521 664 581 l 619 490 q 542 606 597 565 q 403 647 488 647 q 268 612 326 647 q 178 509 210 576 q 146 347 146 442 q 178 186 146 254 q 267 83 210 118 q 401 47 324 47 q 508 67 460 47 q 587 124 556 86 q 628 213 618 161 l 692 190 q 633 81 674 126 q 533 10 592 35 q 403 -14 475 -14 q 234 29 308 -14 q 118 153 160 72 q 76 347 76 235 q 119 541 76 460 q 235 665 161 622 q 404 708 310 708 z "},"ć":{"ha":754,"x_min":76,"x_max":692,"o":"m 404 708 q 531 686 475 708 q 625 622 586 664 q 685 521 664 581 l 619 490 q 542 606 597 565 q 403 647 488 647 q 268 612 326 647 q 178 509 210 576 q 146 347 146 442 q 178 186 146 254 q 267 83 210 118 q 401 47 324 47 q 508 67 460 47 q 587 124 556 86 q 628 213 618 161 l 692 190 q 633 81 674 126 q 533 10 592 35 q 403 -14 475 -14 q 234 29 308 -14 q 118 153 160 72 q 76 347 76 235 q 119 541 76 460 q 235 665 161 622 q 404 708 310 708 m 465 1029 l 542 1029 l 411 810 l 354 810 l 465 1029 z "},"č":{"ha":754,"x_min":76,"x_max":692,"o":"m 404 708 q 531 686 475 708 q 625 622 586 664 q 685 521 664 581 l 619 490 q 542 606 597 565 q 403 647 488 647 q 268 612 326 647 q 178 509 210 576 q 146 347 146 442 q 178 186 146 254 q 267 83 210 118 q 401 47 324 47 q 508 67 460 47 q 587 124 556 86 q 628 213 618 161 l 692 190 q 633 81 674 126 q 533 10 592 35 q 403 -14 475 -14 q 234 29 308 -14 q 118 153 160 72 q 76 347 76 235 q 119 541 76 460 q 235 665 161 622 q 404 708 310 708 m 588 1025 l 433 810 l 356 810 l 201 1025 l 265 1025 l 394 857 l 524 1025 l 588 1025 z "},"ç":{"ha":754,"x_min":76,"x_max":692,"o":"m 404 708 q 531 686 475 708 q 625 622 586 664 q 685 521 664 581 l 619 490 q 542 606 597 565 q 403 647 488 647 q 268 612 326 647 q 178 509 210 576 q 146 347 146 442 q 178 186 146 254 q 267 83 210 118 q 401 47 324 47 q 508 67 460 47 q 587 124 556 86 q 628 213 618 161 l 692 190 q 633 81 674 126 q 533 10 592 35 q 403 -14 475 -14 q 234 29 308 -14 q 118 153 160 72 q 76 347 76 235 q 119 541 76 460 q 235 665 161 622 q 404 708 310 708 m 336 6 l 381 24 q 490 -49 458 -7 q 521 -147 521 -92 q 480 -249 521 -208 q 375 -290 439 -290 q 300 -278 332 -290 q 243 -242 268 -265 l 263 -190 q 311 -223 286 -211 q 368 -235 336 -235 q 436 -208 410 -235 q 463 -135 463 -182 q 435 -63 463 -94 q 336 6 408 -32 z "},"ḉ":{"ha":754,"x_min":76,"x_max":692,"o":"m 404 708 q 531 686 475 708 q 625 622 586 664 q 685 521 664 581 l 619 490 q 542 606 597 565 q 403 647 488 647 q 268 612 326 647 q 178 509 210 576 q 146 347 146 442 q 178 186 146 254 q 267 83 210 118 q 401 47 324 47 q 508 67 460 47 q 587 124 556 86 q 628 213 618 161 l 692 190 q 633 81 674 126 q 533 10 592 35 q 403 -14 475 -14 q 234 29 308 -14 q 118 153 160 72 q 76 347 76 235 q 119 541 76 460 q 235 665 161 622 q 404 708 310 708 m 336 6 l 381 24 q 490 -49 458 -7 q 521 -147 521 -92 q 480 -249 521 -208 q 375 -290 439 -290 q 300 -278 332 -290 q 243 -242 268 -265 l 263 -190 q 311 -223 286 -211 q 368 -235 336 -235 q 436 -208 410 -235 q 463 -135 463 -182 q 435 -63 463 -94 q 336 6 408 -32 m 465 1029 l 542 1029 l 411 810 l 354 810 l 465 1029 z "},"ĉ":{"ha":754,"x_min":76,"x_max":692,"o":"m 404 708 q 531 686 475 708 q 625 622 586 664 q 685 521 664 581 l 619 490 q 542 606 597 565 q 403 647 488 647 q 268 612 326 647 q 178 509 210 576 q 146 347 146 442 q 178 186 146 254 q 267 83 210 118 q 401 47 324 47 q 508 67 460 47 q 587 124 556 86 q 628 213 618 161 l 692 190 q 633 81 674 126 q 533 10 592 35 q 403 -14 475 -14 q 234 29 308 -14 q 118 153 160 72 q 76 347 76 235 q 119 541 76 460 q 235 665 161 622 q 404 708 310 708 m 588 804 l 524 804 l 394 974 l 265 804 l 201 804 l 356 1021 l 433 1021 l 588 804 z "},"ċ":{"ha":754,"x_min":76,"x_max":692,"o":"m 404 708 q 531 686 475 708 q 625 622 586 664 q 685 521 664 581 l 619 490 q 542 606 597 565 q 403 647 488 647 q 268 612 326 647 q 178 509 210 576 q 146 347 146 442 q 178 186 146 254 q 267 83 210 118 q 401 47 324 47 q 508 67 460 47 q 587 124 556 86 q 628 213 618 161 l 692 190 q 633 81 674 126 q 533 10 592 35 q 403 -14 475 -14 q 234 29 308 -14 q 118 153 160 72 q 76 347 76 235 q 119 541 76 460 q 235 665 161 622 q 404 708 310 708 m 394 946 q 437 930 421 946 q 453 888 453 914 q 437 845 453 861 q 394 829 421 829 q 352 845 368 829 q 336 888 336 861 q 352 930 336 914 q 394 946 368 946 z "},"d":{"ha":843,"x_min":78,"x_max":719,"o":"m 394 -14 q 232 29 304 -14 q 119 153 160 72 q 78 347 78 235 q 121 543 78 463 q 238 666 164 624 q 401 708 311 708 q 566 657 497 708 q 658 515 635 606 l 650 508 l 650 1014 l 719 1014 l 719 0 l 657 0 l 653 193 l 661 196 q 610 82 649 129 q 516 10 572 35 q 394 -14 460 -14 m 403 47 q 532 84 476 47 q 619 190 588 121 q 650 353 650 260 q 619 510 650 444 q 533 612 588 576 q 406 647 478 647 q 217 567 286 647 q 147 347 147 486 q 216 128 147 208 q 403 47 285 47 z "},"ð":{"ha":833,"x_min":79,"x_max":753,"o":"m 407 -14 q 232 28 306 -14 q 119 147 158 69 q 79 331 79 225 q 121 513 79 436 q 235 632 163 590 q 400 674 307 674 q 578 626 508 674 q 676 497 649 579 l 667 485 q 629 667 658 585 q 554 813 600 749 q 446 928 508 878 q 307 1014 383 978 l 408 1014 q 544 919 483 975 q 647 787 604 863 q 713 615 689 711 q 736 397 736 518 q 698 176 736 268 q 587 35 660 83 q 407 -14 514 -14 m 410 47 q 552 88 494 47 q 639 196 610 128 q 668 344 668 264 q 635 488 668 428 q 543 581 601 549 q 408 613 485 613 q 272 578 329 613 q 182 480 214 543 q 150 331 150 417 q 219 123 150 199 q 410 47 289 47 m 301 767 l 288 821 l 554 878 l 585 835 l 301 767 m 585 835 l 554 878 l 738 924 l 753 872 l 585 835 z "},"ď":{"ha":867,"x_min":78,"x_max":915,"o":"m 915 1014 l 867 740 l 817 740 l 849 1014 l 915 1014 m 394 -14 q 232 29 304 -14 q 119 153 160 72 q 78 347 78 235 q 121 543 78 463 q 238 666 164 624 q 401 708 311 708 q 566 657 497 708 q 658 515 635 606 l 650 508 l 650 1014 l 719 1014 l 719 0 l 657 0 l 653 193 l 661 196 q 610 82 649 129 q 516 10 572 35 q 394 -14 460 -14 m 403 47 q 532 84 476 47 q 619 190 588 121 q 650 353 650 260 q 619 510 650 444 q 533 612 588 576 q 406 647 478 647 q 217 567 286 647 q 147 347 147 486 q 216 128 147 208 q 403 47 285 47 z "},"đ":{"ha":844,"x_min":78,"x_max":842,"o":"m 418 804 l 418 857 l 842 857 l 842 804 l 418 804 m 394 -14 q 232 29 304 -14 q 119 153 160 72 q 78 347 78 235 q 121 543 78 463 q 238 666 164 624 q 401 708 311 708 q 566 657 497 708 q 658 515 635 606 l 650 508 l 650 1014 l 719 1014 l 719 0 l 657 0 l 653 193 l 661 196 q 610 82 649 129 q 516 10 572 35 q 394 -14 460 -14 m 403 47 q 532 84 476 47 q 619 190 588 121 q 650 353 650 260 q 619 510 650 444 q 533 612 588 576 q 406 647 478 647 q 217 567 286 647 q 147 347 147 486 q 216 128 147 208 q 403 47 285 47 z "},"ḍ":{"ha":843,"x_min":78,"x_max":719,"o":"m 394 -14 q 232 29 304 -14 q 119 153 160 72 q 78 347 78 235 q 121 543 78 463 q 238 666 164 624 q 401 708 311 708 q 566 657 497 708 q 658 515 635 606 l 650 508 l 650 1014 l 719 1014 l 719 0 l 657 0 l 653 193 l 661 196 q 610 82 649 129 q 516 10 572 35 q 394 -14 460 -14 m 403 47 q 532 84 476 47 q 619 190 588 121 q 650 353 650 260 q 619 510 650 444 q 533 612 588 576 q 406 647 478 647 q 217 567 286 647 q 147 347 147 486 q 216 128 147 208 q 403 47 285 47 m 410 -224 q 388 -215 396 -224 q 379 -193 379 -207 q 388 -172 379 -179 q 410 -164 396 -164 q 432 -172 424 -164 q 440 -193 440 -179 q 432 -215 440 -207 q 410 -224 424 -224 z "},"ḏ":{"ha":843,"x_min":78,"x_max":719,"o":"m 394 -14 q 232 29 304 -14 q 119 153 160 72 q 78 347 78 235 q 121 543 78 463 q 238 666 164 624 q 401 708 311 708 q 566 657 497 708 q 658 515 635 606 l 650 508 l 650 1014 l 719 1014 l 719 0 l 657 0 l 653 193 l 661 196 q 610 82 649 129 q 516 10 572 35 q 394 -14 460 -14 m 403 47 q 532 84 476 47 q 619 190 588 121 q 650 353 650 260 q 619 510 650 444 q 533 612 588 576 q 406 647 478 647 q 217 567 286 647 q 147 347 147 486 q 216 128 147 208 q 403 47 285 47 m 625 -140 l 625 -199 l 194 -199 l 194 -140 l 625 -140 z "},"ǳ":{"ha":1544,"x_min":78,"x_max":1486,"o":"m 394 -14 q 232 29 304 -14 q 119 153 160 72 q 78 347 78 235 q 121 543 78 463 q 238 666 164 624 q 401 708 311 708 q 566 657 497 708 q 658 515 635 606 l 650 508 l 650 1014 l 719 1014 l 719 0 l 657 0 l 653 193 l 661 196 q 610 82 649 129 q 516 10 572 35 q 394 -14 460 -14 m 403 47 q 532 84 476 47 q 619 190 588 121 q 650 353 650 260 q 619 510 650 444 q 533 612 588 576 q 406 647 478 647 q 217 567 286 647 q 147 347 147 486 q 216 128 147 208 q 403 47 285 47 m 911 0 l 911 54 l 1319 556 l 1392 636 l 1282 635 l 907 635 l 907 694 l 1469 694 l 1469 640 l 1074 151 l 990 58 l 1115 60 l 1486 60 l 1486 0 l 911 0 z "},"ǆ":{"ha":1544,"x_min":78,"x_max":1486,"o":"m 394 -14 q 232 29 304 -14 q 119 153 160 72 q 78 347 78 235 q 121 543 78 463 q 238 666 164 624 q 401 708 311 708 q 566 657 497 708 q 658 515 635 606 l 650 508 l 650 1014 l 719 1014 l 719 0 l 657 0 l 653 193 l 661 196 q 610 82 649 129 q 516 10 572 35 q 394 -14 460 -14 m 403 47 q 532 84 476 47 q 619 190 588 121 q 650 353 650 260 q 619 510 650 444 q 533 612 588 576 q 406 647 478 647 q 217 567 286 647 q 147 347 147 486 q 216 128 147 208 q 403 47 285 47 m 911 0 l 911 54 l 1319 556 l 1392 636 l 1282 635 l 907 635 l 907 694 l 1469 694 l 1469 640 l 1074 151 l 990 58 l 1115 60 l 1486 60 l 1486 0 l 911 0 m 1376 1025 l 1222 810 l 1144 810 l 990 1025 l 1054 1025 l 1183 857 l 1313 1025 l 1376 1025 z "},"e":{"ha":774,"x_min":76,"x_max":699,"o":"m 407 -14 q 236 29 311 -14 q 119 153 161 72 q 76 347 76 235 q 119 541 76 460 q 234 665 161 622 q 399 708 307 708 q 560 667 493 708 q 663 551 626 625 q 699 379 699 476 q 698 355 699 367 q 696 333 697 343 l 119 333 l 119 396 l 665 396 l 631 386 q 567 576 629 506 q 397 647 506 647 q 265 612 322 647 q 176 509 208 576 q 144 347 144 442 q 177 186 144 254 q 269 83 210 118 q 406 47 328 47 q 544 82 486 47 q 633 178 601 117 l 689 146 q 622 60 664 96 q 526 6 581 25 q 407 -14 472 -14 z "},"é":{"ha":774,"x_min":76,"x_max":699,"o":"m 407 -14 q 236 29 311 -14 q 119 153 161 72 q 76 347 76 235 q 119 541 76 460 q 234 665 161 622 q 399 708 307 708 q 560 667 493 708 q 663 551 626 625 q 699 379 699 476 q 698 355 699 367 q 696 333 697 343 l 119 333 l 119 396 l 665 396 l 631 386 q 567 576 629 506 q 397 647 506 647 q 265 612 322 647 q 176 509 208 576 q 144 347 144 442 q 177 186 144 254 q 269 83 210 118 q 406 47 328 47 q 544 82 486 47 q 633 178 601 117 l 689 146 q 622 60 664 96 q 526 6 581 25 q 407 -14 472 -14 m 463 1029 l 539 1029 l 408 810 l 351 810 l 463 1029 z "},"ĕ":{"ha":774,"x_min":76,"x_max":699,"o":"m 407 -14 q 236 29 311 -14 q 119 153 161 72 q 76 347 76 235 q 119 541 76 460 q 234 665 161 622 q 399 708 307 708 q 560 667 493 708 q 663 551 626 625 q 699 379 699 476 q 698 355 699 367 q 696 333 697 343 l 119 333 l 119 396 l 665 396 l 631 386 q 567 576 629 506 q 397 647 506 647 q 265 612 322 647 q 176 509 208 576 q 144 347 144 442 q 177 186 144 254 q 269 83 210 118 q 406 47 328 47 q 544 82 486 47 q 633 178 601 117 l 689 146 q 622 60 664 96 q 526 6 581 25 q 407 -14 472 -14 m 579 992 q 528 855 579 906 q 392 804 478 804 q 255 855 306 804 q 204 992 204 906 l 261 992 q 295 896 261 935 q 392 857 329 857 q 489 896 456 857 q 522 992 522 935 l 579 992 z "},"ě":{"ha":774,"x_min":76,"x_max":699,"o":"m 407 -14 q 236 29 311 -14 q 119 153 161 72 q 76 347 76 235 q 119 541 76 460 q 234 665 161 622 q 399 708 307 708 q 560 667 493 708 q 663 551 626 625 q 699 379 699 476 q 698 355 699 367 q 696 333 697 343 l 119 333 l 119 396 l 665 396 l 631 386 q 567 576 629 506 q 397 647 506 647 q 265 612 322 647 q 176 509 208 576 q 144 347 144 442 q 177 186 144 254 q 269 83 210 118 q 406 47 328 47 q 544 82 486 47 q 633 178 601 117 l 689 146 q 622 60 664 96 q 526 6 581 25 q 407 -14 472 -14 m 585 1025 l 431 810 l 353 810 l 199 1025 l 263 1025 l 392 857 l 521 1025 l 585 1025 z "},"ḝ":{"ha":774,"x_min":76,"x_max":699,"o":"m 407 -14 q 236 29 311 -14 q 119 153 161 72 q 76 347 76 235 q 119 541 76 460 q 234 665 161 622 q 399 708 307 708 q 560 667 493 708 q 663 551 626 625 q 699 379 699 476 q 698 355 699 367 q 696 333 697 343 l 119 333 l 119 396 l 665 396 l 631 386 q 567 576 629 506 q 397 647 506 647 q 265 612 322 647 q 176 509 208 576 q 144 347 144 442 q 177 186 144 254 q 269 83 210 118 q 406 47 328 47 q 544 82 486 47 q 633 178 601 117 l 689 146 q 622 60 664 96 q 526 6 581 25 q 407 -14 472 -14 m 342 6 l 386 24 q 495 -49 464 -7 q 526 -147 526 -92 q 485 -249 526 -208 q 381 -290 444 -290 q 306 -278 338 -290 q 249 -242 274 -265 l 268 -190 q 317 -223 292 -211 q 374 -235 342 -235 q 442 -208 415 -235 q 468 -135 468 -182 q 441 -63 468 -94 q 342 6 414 -32 m 579 992 q 528 855 579 906 q 392 804 478 804 q 255 855 306 804 q 204 992 204 906 l 261 992 q 295 896 261 935 q 392 857 329 857 q 489 896 456 857 q 522 992 522 935 l 579 992 z "},"ê":{"ha":774,"x_min":76,"x_max":699,"o":"m 407 -14 q 236 29 311 -14 q 119 153 161 72 q 76 347 76 235 q 119 541 76 460 q 234 665 161 622 q 399 708 307 708 q 560 667 493 708 q 663 551 626 625 q 699 379 699 476 q 698 355 699 367 q 696 333 697 343 l 119 333 l 119 396 l 665 396 l 631 386 q 567 576 629 506 q 397 647 506 647 q 265 612 322 647 q 176 509 208 576 q 144 347 144 442 q 177 186 144 254 q 269 83 210 118 q 406 47 328 47 q 544 82 486 47 q 633 178 601 117 l 689 146 q 622 60 664 96 q 526 6 581 25 q 407 -14 472 -14 m 585 804 l 521 804 l 392 974 l 263 804 l 199 804 l 353 1021 l 431 1021 l 585 804 z "},"ế":{"ha":774,"x_min":76,"x_max":699,"o":"m 629 1156 l 694 1156 l 592 964 l 542 964 l 629 1156 m 585 804 l 519 804 l 392 974 l 263 804 l 197 804 l 353 1021 l 431 1021 l 585 804 m 407 -14 q 236 29 311 -14 q 119 153 161 72 q 76 347 76 235 q 119 541 76 460 q 234 665 161 622 q 399 708 307 708 q 560 667 493 708 q 663 551 626 625 q 699 379 699 476 q 698 355 699 367 q 696 333 697 343 l 119 333 l 119 396 l 665 396 l 631 386 q 567 576 629 506 q 397 647 506 647 q 265 612 322 647 q 176 509 208 576 q 144 347 144 442 q 177 186 144 254 q 269 83 210 118 q 406 47 328 47 q 544 82 486 47 q 633 178 601 117 l 689 146 q 622 60 664 96 q 526 6 581 25 q 407 -14 472 -14 z "},"ệ":{"ha":774,"x_min":76,"x_max":699,"o":"m 407 -14 q 236 29 311 -14 q 119 153 161 72 q 76 347 76 235 q 119 541 76 460 q 234 665 161 622 q 399 708 307 708 q 560 667 493 708 q 663 551 626 625 q 699 379 699 476 q 698 355 699 367 q 696 333 697 343 l 119 333 l 119 396 l 665 396 l 631 386 q 567 576 629 506 q 397 647 506 647 q 265 612 322 647 q 176 509 208 576 q 144 347 144 442 q 177 186 144 254 q 269 83 210 118 q 406 47 328 47 q 544 82 486 47 q 633 178 601 117 l 689 146 q 622 60 664 96 q 526 6 581 25 q 407 -14 472 -14 m 407 -224 q 385 -215 393 -224 q 376 -193 376 -207 q 385 -172 376 -179 q 407 -164 393 -164 q 429 -172 421 -164 q 438 -193 438 -179 q 429 -215 438 -207 q 407 -224 421 -224 m 585 804 l 521 804 l 392 974 l 263 804 l 199 804 l 353 1021 l 431 1021 l 585 804 z "},"ề":{"ha":774,"x_min":76,"x_max":699,"o":"m 529 1156 l 617 964 l 565 964 l 464 1156 l 529 1156 m 585 804 l 519 804 l 392 974 l 263 804 l 197 804 l 353 1021 l 431 1021 l 585 804 m 407 -14 q 236 29 311 -14 q 119 153 161 72 q 76 347 76 235 q 119 541 76 460 q 234 665 161 622 q 399 708 307 708 q 560 667 493 708 q 663 551 626 625 q 699 379 699 476 q 698 355 699 367 q 696 333 697 343 l 119 333 l 119 396 l 665 396 l 631 386 q 567 576 629 506 q 397 647 506 647 q 265 612 322 647 q 176 509 208 576 q 144 347 144 442 q 177 186 144 254 q 269 83 210 118 q 406 47 328 47 q 544 82 486 47 q 633 178 601 117 l 689 146 q 622 60 664 96 q 526 6 581 25 q 407 -14 472 -14 z "},"ể":{"ha":774,"x_min":76,"x_max":699,"o":"m 575 936 l 549 968 q 606 1010 588 989 q 624 1063 624 1032 q 608 1101 624 1086 q 564 1117 592 1117 q 522 1104 539 1117 q 496 1071 506 1092 l 451 1099 q 499 1153 468 1133 q 574 1172 531 1172 q 630 1159 606 1172 q 668 1123 654 1146 q 682 1072 682 1100 q 669 1016 682 1042 q 633 971 657 990 q 575 936 608 951 m 585 804 l 519 804 l 392 974 l 263 804 l 197 804 l 353 1021 l 431 1021 l 585 804 m 407 -14 q 236 29 311 -14 q 119 153 161 72 q 76 347 76 235 q 119 541 76 460 q 234 665 161 622 q 399 708 307 708 q 560 667 493 708 q 663 551 626 625 q 699 379 699 476 q 698 355 699 367 q 696 333 697 343 l 119 333 l 119 396 l 665 396 l 631 386 q 567 576 629 506 q 397 647 506 647 q 265 612 322 647 q 176 509 208 576 q 144 347 144 442 q 177 186 144 254 q 269 83 210 118 q 406 47 328 47 q 544 82 486 47 q 633 178 601 117 l 689 146 q 622 60 664 96 q 526 6 581 25 q 407 -14 472 -14 z "},"ễ":{"ha":774,"x_min":76,"x_max":699,"o":"m 585 804 l 519 804 l 392 974 l 263 804 l 197 804 l 353 1021 l 431 1021 l 585 804 m 617 1203 q 574 1092 608 1128 q 485 1057 540 1057 q 422 1071 446 1057 q 379 1102 397 1085 q 342 1133 361 1119 q 297 1147 324 1147 q 247 1126 264 1147 q 221 1060 231 1104 l 165 1060 q 208 1169 174 1135 q 299 1204 242 1204 q 360 1191 336 1204 q 403 1160 385 1178 q 439 1128 421 1142 q 483 1114 457 1114 q 535 1136 518 1114 q 561 1203 553 1158 l 617 1203 m 407 -14 q 236 29 311 -14 q 119 153 161 72 q 76 347 76 235 q 119 541 76 460 q 234 665 161 622 q 399 708 307 708 q 560 667 493 708 q 663 551 626 625 q 699 379 699 476 q 698 355 699 367 q 696 333 697 343 l 119 333 l 119 396 l 665 396 l 631 386 q 567 576 629 506 q 397 647 506 647 q 265 612 322 647 q 176 509 208 576 q 144 347 144 442 q 177 186 144 254 q 269 83 210 118 q 406 47 328 47 q 544 82 486 47 q 633 178 601 117 l 689 146 q 622 60 664 96 q 526 6 581 25 q 407 -14 472 -14 z "},"ȅ":{"ha":774,"x_min":76,"x_max":699,"o":"m 407 -14 q 236 29 311 -14 q 119 153 161 72 q 76 347 76 235 q 119 541 76 460 q 234 665 161 622 q 399 708 307 708 q 560 667 493 708 q 663 551 626 625 q 699 379 699 476 q 698 355 699 367 q 696 333 697 343 l 119 333 l 119 396 l 665 396 l 631 386 q 567 576 629 506 q 397 647 506 647 q 265 612 322 647 q 176 509 208 576 q 144 347 144 442 q 177 186 144 254 q 269 83 210 118 q 406 47 328 47 q 544 82 486 47 q 633 178 601 117 l 689 146 q 622 60 664 96 q 526 6 581 25 q 407 -14 472 -14 m 328 810 l 269 810 l 140 1029 l 215 1029 l 328 810 m 543 810 l 485 810 l 356 1029 l 431 1029 l 543 810 z "},"ë":{"ha":774,"x_min":76,"x_max":699,"o":"m 407 -14 q 236 29 311 -14 q 119 153 161 72 q 76 347 76 235 q 119 541 76 460 q 234 665 161 622 q 399 708 307 708 q 560 667 493 708 q 663 551 626 625 q 699 379 699 476 q 698 355 699 367 q 696 333 697 343 l 119 333 l 119 396 l 665 396 l 631 386 q 567 576 629 506 q 397 647 506 647 q 265 612 322 647 q 176 509 208 576 q 144 347 144 442 q 177 186 144 254 q 269 83 210 118 q 406 47 328 47 q 544 82 486 47 q 633 178 601 117 l 689 146 q 622 60 664 96 q 526 6 581 25 q 407 -14 472 -14 m 260 932 q 300 917 285 932 q 315 875 315 901 q 300 835 315 850 q 260 819 285 819 q 219 835 235 819 q 203 875 203 850 q 219 917 203 901 q 260 932 235 932 m 522 932 q 564 917 549 932 q 579 875 579 901 q 564 835 579 850 q 522 819 549 819 q 482 835 497 819 q 467 875 467 850 q 482 917 467 901 q 522 932 497 932 z "},"ė":{"ha":774,"x_min":76,"x_max":699,"o":"m 407 -14 q 236 29 311 -14 q 119 153 161 72 q 76 347 76 235 q 119 541 76 460 q 234 665 161 622 q 399 708 307 708 q 560 667 493 708 q 663 551 626 625 q 699 379 699 476 q 698 355 699 367 q 696 333 697 343 l 119 333 l 119 396 l 665 396 l 631 386 q 567 576 629 506 q 397 647 506 647 q 265 612 322 647 q 176 509 208 576 q 144 347 144 442 q 177 186 144 254 q 269 83 210 118 q 406 47 328 47 q 544 82 486 47 q 633 178 601 117 l 689 146 q 622 60 664 96 q 526 6 581 25 q 407 -14 472 -14 m 392 946 q 434 930 418 946 q 450 888 450 914 q 434 845 450 861 q 392 829 418 829 q 349 845 365 829 q 333 888 333 861 q 349 930 333 914 q 392 946 365 946 z "},"ẹ":{"ha":774,"x_min":76,"x_max":699,"o":"m 407 -14 q 236 29 311 -14 q 119 153 161 72 q 76 347 76 235 q 119 541 76 460 q 234 665 161 622 q 399 708 307 708 q 560 667 493 708 q 663 551 626 625 q 699 379 699 476 q 698 355 699 367 q 696 333 697 343 l 119 333 l 119 396 l 665 396 l 631 386 q 567 576 629 506 q 397 647 506 647 q 265 612 322 647 q 176 509 208 576 q 144 347 144 442 q 177 186 144 254 q 269 83 210 118 q 406 47 328 47 q 544 82 486 47 q 633 178 601 117 l 689 146 q 622 60 664 96 q 526 6 581 25 q 407 -14 472 -14 m 407 -224 q 385 -215 393 -224 q 376 -193 376 -207 q 385 -172 376 -179 q 407 -164 393 -164 q 429 -172 421 -164 q 438 -193 438 -179 q 429 -215 438 -207 q 407 -224 421 -224 z "},"è":{"ha":774,"x_min":76,"x_max":699,"o":"m 407 -14 q 236 29 311 -14 q 119 153 161 72 q 76 347 76 235 q 119 541 76 460 q 234 665 161 622 q 399 708 307 708 q 560 667 493 708 q 663 551 626 625 q 699 379 699 476 q 698 355 699 367 q 696 333 697 343 l 119 333 l 119 396 l 665 396 l 631 386 q 567 576 629 506 q 397 647 506 647 q 265 612 322 647 q 176 509 208 576 q 144 347 144 442 q 177 186 144 254 q 269 83 210 118 q 406 47 328 47 q 544 82 486 47 q 633 178 601 117 l 689 146 q 622 60 664 96 q 526 6 581 25 q 407 -14 472 -14 m 318 1029 l 429 810 l 372 810 l 243 1029 l 318 1029 z "},"ẻ":{"ha":774,"x_min":76,"x_max":699,"o":"m 407 -14 q 236 29 311 -14 q 119 153 161 72 q 76 347 76 235 q 119 541 76 460 q 234 665 161 622 q 399 708 307 708 q 560 667 493 708 q 663 551 626 625 q 699 379 699 476 q 698 355 699 367 q 696 333 697 343 l 119 333 l 119 396 l 665 396 l 631 386 q 567 576 629 506 q 397 647 506 647 q 265 612 322 647 q 176 509 208 576 q 144 347 144 442 q 177 186 144 254 q 269 83 210 118 q 406 47 328 47 q 544 82 486 47 q 633 178 601 117 l 689 146 q 622 60 664 96 q 526 6 581 25 q 407 -14 472 -14 m 383 778 l 358 813 q 419 859 400 836 q 439 914 439 882 q 423 957 439 940 q 378 974 407 974 q 335 960 353 974 q 306 924 318 946 l 263 953 q 308 1008 276 986 q 386 1029 339 1029 q 446 1016 421 1029 q 485 978 471 1003 q 499 924 499 954 q 485 865 499 892 q 447 818 472 839 q 383 778 421 797 z "},"ȇ":{"ha":774,"x_min":76,"x_max":699,"o":"m 407 -14 q 236 29 311 -14 q 119 153 161 72 q 76 347 76 235 q 119 541 76 460 q 234 665 161 622 q 399 708 307 708 q 560 667 493 708 q 663 551 626 625 q 699 379 699 476 q 698 355 699 367 q 696 333 697 343 l 119 333 l 119 396 l 665 396 l 631 386 q 567 576 629 506 q 397 647 506 647 q 265 612 322 647 q 176 509 208 576 q 144 347 144 442 q 177 186 144 254 q 269 83 210 118 q 406 47 328 47 q 544 82 486 47 q 633 178 601 117 l 689 146 q 622 60 664 96 q 526 6 581 25 q 407 -14 472 -14 m 579 799 l 522 799 q 489 894 522 856 q 392 933 456 933 q 295 894 329 933 q 261 799 261 856 l 204 799 q 255 935 204 883 q 392 986 306 986 q 528 935 478 986 q 579 799 579 883 z "},"ē":{"ha":774,"x_min":76,"x_max":699,"o":"m 407 -14 q 236 29 311 -14 q 119 153 161 72 q 76 347 76 235 q 119 541 76 460 q 234 665 161 622 q 399 708 307 708 q 560 667 493 708 q 663 551 626 625 q 699 379 699 476 q 698 355 699 367 q 696 333 697 343 l 119 333 l 119 396 l 665 396 l 631 386 q 567 576 629 506 q 397 647 506 647 q 265 612 322 647 q 176 509 208 576 q 144 347 144 442 q 177 186 144 254 q 269 83 210 118 q 406 47 328 47 q 544 82 486 47 q 633 178 601 117 l 689 146 q 622 60 664 96 q 526 6 581 25 q 407 -14 472 -14 m 607 892 l 607 833 l 176 833 l 176 892 l 607 892 z "},"ḗ":{"ha":774,"x_min":76,"x_max":699,"o":"m 407 -14 q 236 29 311 -14 q 119 153 161 72 q 76 347 76 235 q 119 541 76 460 q 234 665 161 622 q 399 708 307 708 q 560 667 493 708 q 663 551 626 625 q 699 379 699 476 q 698 355 699 367 q 696 333 697 343 l 119 333 l 119 396 l 665 396 l 631 386 q 567 576 629 506 q 397 647 506 647 q 265 612 322 647 q 176 509 208 576 q 144 347 144 442 q 177 186 144 254 q 269 83 210 118 q 406 47 328 47 q 544 82 486 47 q 633 178 601 117 l 689 146 q 622 60 664 96 q 526 6 581 25 q 407 -14 472 -14 m 607 892 l 607 833 l 176 833 l 176 892 l 607 892 m 454 1218 l 528 1218 l 413 1004 l 356 1004 l 454 1218 z "},"ḕ":{"ha":774,"x_min":76,"x_max":699,"o":"m 407 -14 q 236 29 311 -14 q 119 153 161 72 q 76 347 76 235 q 119 541 76 460 q 234 665 161 622 q 399 708 307 708 q 560 667 493 708 q 663 551 626 625 q 699 379 699 476 q 698 355 699 367 q 696 333 697 343 l 119 333 l 119 396 l 665 396 l 631 386 q 567 576 629 506 q 397 647 506 647 q 265 612 322 647 q 176 509 208 576 q 144 347 144 442 q 177 186 144 254 q 269 83 210 118 q 406 47 328 47 q 544 82 486 47 q 633 178 601 117 l 689 146 q 622 60 664 96 q 526 6 581 25 q 407 -14 472 -14 m 607 892 l 607 833 l 176 833 l 176 892 l 607 892 m 331 1218 l 428 1004 l 371 1004 l 257 1218 l 331 1218 z "},"ę":{"ha":774,"x_min":76,"x_max":699,"o":"m 407 -14 q 236 29 311 -14 q 119 153 161 72 q 76 347 76 235 q 119 541 76 460 q 234 665 161 622 q 399 708 307 708 q 560 667 493 708 q 663 551 626 625 q 699 379 699 476 q 698 355 699 367 q 696 333 697 343 l 119 333 l 119 396 l 665 396 l 631 386 q 567 576 629 506 q 397 647 506 647 q 265 612 322 647 q 176 509 208 576 q 144 347 144 442 q 177 186 144 254 q 269 83 210 118 q 406 47 328 47 q 544 82 486 47 q 633 178 601 117 l 689 146 q 622 60 664 96 q 526 6 581 25 q 407 -14 472 -14 m 435 -299 q 330 -265 369 -299 q 290 -172 290 -231 q 337 -59 290 -104 q 489 26 383 -14 l 532 8 q 416 -49 456 -21 q 362 -106 376 -78 q 347 -165 347 -133 q 374 -226 347 -206 q 440 -247 400 -247 q 491 -241 469 -247 q 528 -225 513 -235 l 540 -274 q 497 -291 522 -283 q 435 -299 471 -299 z "},"ẽ":{"ha":774,"x_min":76,"x_max":699,"o":"m 407 -14 q 236 29 311 -14 q 119 153 161 72 q 76 347 76 235 q 119 541 76 460 q 234 665 161 622 q 399 708 307 708 q 560 667 493 708 q 663 551 626 625 q 699 379 699 476 q 698 355 699 367 q 696 333 697 343 l 119 333 l 119 396 l 665 396 l 631 386 q 567 576 629 506 q 397 647 506 647 q 265 612 322 647 q 176 509 208 576 q 144 347 144 442 q 177 186 144 254 q 269 83 210 118 q 406 47 328 47 q 544 82 486 47 q 633 178 601 117 l 689 146 q 622 60 664 96 q 526 6 581 25 q 407 -14 472 -14 m 628 974 q 605 889 622 924 q 560 838 588 854 q 492 821 532 821 q 428 835 454 821 q 381 868 401 850 q 340 901 360 886 q 294 915 319 915 q 240 890 258 915 q 211 819 221 864 l 156 819 q 199 934 164 896 q 296 972 235 972 q 357 958 331 972 q 404 925 383 943 q 445 892 425 907 q 490 878 465 878 q 546 903 528 878 q 572 974 564 928 l 628 974 z "},"ǝ":{"ha":774,"x_min":75,"x_max":697,"o":"m 374 708 q 543 665 471 708 q 656 541 615 622 q 697 347 697 460 q 656 153 697 235 q 544 29 615 72 q 379 -14 472 -14 q 217 31 285 -14 q 112 149 149 75 q 75 315 75 224 q 76 341 75 329 q 78 361 76 353 l 654 361 l 654 299 l 108 299 l 143 308 q 173 175 143 235 q 256 81 203 115 q 381 47 310 47 q 511 83 456 47 q 598 186 567 118 q 629 347 629 254 q 599 509 629 442 q 511 612 568 576 q 375 647 454 647 q 232 609 292 647 q 139 510 172 571 l 85 542 q 152 628 110 590 q 251 687 194 665 q 374 708 307 708 z "},"ə":{"ha":772,"x_min":78,"x_max":696,"o":"m 378 -14 q 216 27 283 -14 q 113 140 149 68 q 78 304 78 213 q 79 340 78 321 q 83 376 81 358 l 653 376 l 653 314 l 114 314 l 150 342 q 148 319 149 331 q 147 299 147 308 q 210 115 147 182 q 378 47 274 47 q 562 124 496 47 q 628 340 628 201 q 599 506 628 438 q 518 611 571 575 q 389 647 465 647 q 244 609 306 647 q 154 503 183 571 l 96 533 q 160 626 119 586 q 258 687 200 665 q 389 708 315 708 q 553 665 485 708 q 659 541 622 622 q 696 347 696 460 q 613 83 696 179 q 378 -14 529 -14 z "},"f":{"ha":499,"x_min":32,"x_max":490,"o":"m 378 1021 q 445 1011 417 1021 q 490 983 474 1001 l 471 928 q 432 951 453 944 q 383 958 411 958 q 278 919 315 958 q 240 804 240 881 l 240 694 l 240 669 l 240 0 l 171 0 l 171 811 q 184 897 171 858 q 224 963 197 936 q 289 1006 250 990 q 378 1021 328 1021 m 485 694 l 485 635 l 32 635 l 32 694 l 485 694 z "},"g":{"ha":715,"x_min":49,"x_max":715,"o":"m 699 822 l 715 761 q 713 761 714 761 q 708 761 711 761 q 603 726 640 761 q 567 626 567 690 l 522 649 q 544 740 522 701 q 606 801 567 779 q 693 822 644 822 q 697 822 696 822 q 699 822 697 822 m 479 71 q 640 28 582 71 q 699 -87 699 -15 q 656 -199 699 -151 q 540 -272 614 -246 q 372 -299 467 -299 q 132 -245 215 -299 q 49 -111 49 -192 q 91 -10 49 -53 q 215 42 133 33 l 210 29 q 131 71 165 42 q 97 154 97 100 q 141 249 97 213 q 257 292 185 286 l 331 267 l 301 267 q 199 235 238 263 q 161 165 161 208 q 198 94 161 118 q 292 71 235 71 l 479 71 m 372 -240 q 513 -221 454 -240 q 602 -169 571 -201 q 633 -96 633 -136 q 591 -18 633 -47 q 463 11 549 11 l 265 11 q 157 -19 200 11 q 114 -101 114 -50 q 183 -202 114 -164 q 372 -240 251 -240 m 363 708 q 508 680 444 708 q 606 601 571 651 q 640 482 640 550 q 606 363 640 415 q 508 283 571 311 q 363 254 444 254 q 156 317 231 254 q 82 482 82 381 q 117 601 82 550 q 216 680 153 651 q 363 708 279 708 m 363 651 q 213 605 271 651 q 154 482 154 558 q 213 358 154 406 q 363 311 271 311 q 512 358 454 311 q 569 482 569 406 q 512 605 569 558 q 363 651 454 651 z "},"ğ":{"ha":715,"x_min":49,"x_max":715,"o":"m 699 822 l 715 761 q 714 761 714 761 q 713 761 714 761 q 606 726 643 761 q 568 626 568 690 l 522 646 q 544 739 522 700 q 606 800 567 778 q 694 822 644 822 q 697 822 697 822 q 699 822 697 822 m 479 71 q 640 28 582 71 q 699 -87 699 -15 q 656 -199 699 -151 q 540 -272 614 -246 q 372 -299 467 -299 q 132 -245 215 -299 q 49 -111 49 -192 q 91 -10 49 -53 q 215 42 133 33 l 210 29 q 131 71 165 42 q 97 154 97 100 q 141 249 97 213 q 257 292 185 286 l 331 267 l 301 267 q 199 235 238 263 q 161 165 161 208 q 198 94 161 118 q 292 71 235 71 l 479 71 m 372 -240 q 513 -221 454 -240 q 602 -169 571 -201 q 633 -96 633 -136 q 591 -18 633 -47 q 463 11 549 11 l 265 11 q 157 -19 200 11 q 114 -101 114 -50 q 183 -202 114 -164 q 372 -240 251 -240 m 363 708 q 508 680 444 708 q 606 601 571 651 q 640 482 640 550 q 606 363 640 415 q 508 283 571 311 q 363 254 444 254 q 156 317 231 254 q 82 482 82 381 q 117 601 82 550 q 216 680 153 651 q 363 708 279 708 m 363 651 q 213 605 271 651 q 154 482 154 558 q 213 358 154 406 q 363 311 271 311 q 512 358 454 311 q 569 482 569 406 q 512 605 569 558 q 363 651 454 651 m 563 992 q 511 855 563 906 q 375 804 460 804 q 238 855 289 804 q 186 992 186 906 l 243 992 q 278 896 244 935 q 375 857 311 857 q 471 896 438 857 q 506 992 504 935 l 563 992 z "},"ǧ":{"ha":715,"x_min":49,"x_max":715,"o":"m 699 822 l 715 761 q 713 761 714 761 q 708 761 711 761 q 603 726 640 761 q 567 626 567 690 l 522 649 q 544 740 522 701 q 606 801 567 779 q 693 822 644 822 q 697 822 696 822 q 699 822 697 822 m 479 71 q 640 28 582 71 q 699 -87 699 -15 q 656 -199 699 -151 q 540 -272 614 -246 q 372 -299 467 -299 q 132 -245 215 -299 q 49 -111 49 -192 q 91 -10 49 -53 q 215 42 133 33 l 210 29 q 131 71 165 42 q 97 154 97 100 q 141 249 97 213 q 257 292 185 286 l 331 267 l 301 267 q 199 235 238 263 q 161 165 161 208 q 198 94 161 118 q 292 71 235 71 l 479 71 m 372 -240 q 513 -221 454 -240 q 602 -169 571 -201 q 633 -96 633 -136 q 591 -18 633 -47 q 463 11 549 11 l 265 11 q 157 -19 200 11 q 114 -101 114 -50 q 183 -202 114 -164 q 372 -240 251 -240 m 363 708 q 508 680 444 708 q 606 601 571 651 q 640 482 640 550 q 606 363 640 415 q 508 283 571 311 q 363 254 444 254 q 156 317 231 254 q 82 482 82 381 q 117 601 82 550 q 216 680 153 651 q 363 708 279 708 m 363 651 q 213 605 271 651 q 154 482 154 558 q 213 358 154 406 q 363 311 271 311 q 512 358 454 311 q 569 482 569 406 q 512 605 569 558 q 363 651 454 651 m 554 1025 l 400 810 l 322 810 l 168 1025 l 232 1025 l 361 857 l 490 1025 l 554 1025 z "},"ĝ":{"ha":715,"x_min":49,"x_max":715,"o":"m 168 804 l 322 1021 l 401 1021 l 556 804 l 490 804 l 361 974 l 233 804 l 168 804 m 699 822 l 715 761 q 714 761 714 761 q 713 761 714 761 q 606 726 643 761 q 568 626 568 690 l 522 646 q 544 739 522 700 q 606 800 567 778 q 694 822 644 822 q 697 822 697 822 q 699 822 697 822 m 479 71 q 640 28 582 71 q 699 -87 699 -15 q 656 -199 699 -151 q 540 -272 614 -246 q 372 -299 467 -299 q 132 -245 215 -299 q 49 -111 49 -192 q 91 -10 49 -53 q 215 42 133 33 l 210 29 q 131 71 165 42 q 97 154 97 100 q 141 249 97 213 q 257 292 185 286 l 331 267 l 301 267 q 199 235 238 263 q 161 165 161 208 q 198 94 161 118 q 292 71 235 71 l 479 71 m 372 -240 q 513 -221 454 -240 q 602 -169 571 -201 q 633 -96 633 -136 q 591 -18 633 -47 q 463 11 549 11 l 265 11 q 157 -19 200 11 q 114 -101 114 -50 q 183 -202 114 -164 q 372 -240 251 -240 m 363 708 q 508 680 444 708 q 606 601 571 651 q 640 482 640 550 q 606 363 640 415 q 508 283 571 311 q 363 254 444 254 q 156 317 231 254 q 82 482 82 381 q 117 601 82 550 q 216 680 153 651 q 363 708 279 708 m 363 651 q 213 605 271 651 q 154 482 154 558 q 213 358 154 406 q 363 311 271 311 q 512 358 454 311 q 569 482 569 406 q 512 605 569 558 q 363 651 454 651 z "},"ģ":{"ha":715,"x_min":49,"x_max":715,"o":"m 699 822 l 715 761 q 713 761 714 761 q 708 761 711 761 q 603 726 640 761 q 567 626 567 690 l 522 649 q 544 740 522 701 q 606 801 567 779 q 693 822 644 822 q 697 822 696 822 q 699 822 697 822 m 479 71 q 640 28 582 71 q 699 -87 699 -15 q 656 -199 699 -151 q 540 -272 614 -246 q 372 -299 467 -299 q 132 -245 215 -299 q 49 -111 49 -192 q 91 -10 49 -53 q 215 42 133 33 l 210 29 q 131 71 165 42 q 97 154 97 100 q 141 249 97 213 q 257 292 185 286 l 331 267 l 301 267 q 199 235 238 263 q 161 165 161 208 q 198 94 161 118 q 292 71 235 71 l 479 71 m 372 -240 q 513 -221 454 -240 q 602 -169 571 -201 q 633 -96 633 -136 q 591 -18 633 -47 q 463 11 549 11 l 265 11 q 157 -19 200 11 q 114 -101 114 -50 q 183 -202 114 -164 q 372 -240 251 -240 m 363 708 q 508 680 444 708 q 606 601 571 651 q 640 482 640 550 q 606 363 640 415 q 508 283 571 311 q 363 254 444 254 q 156 317 231 254 q 82 482 82 381 q 117 601 82 550 q 216 680 153 651 q 363 708 279 708 m 363 651 q 213 605 271 651 q 154 482 154 558 q 213 358 154 406 q 363 311 271 311 q 512 358 454 311 q 569 482 569 406 q 512 605 569 558 q 363 651 454 651 m 476 1081 l 410 815 l 333 815 l 424 1081 l 476 1081 z "},"ġ":{"ha":715,"x_min":49,"x_max":715,"o":"m 699 822 l 715 761 q 713 761 714 761 q 708 761 711 761 q 603 726 640 761 q 567 626 567 690 l 522 649 q 544 740 522 701 q 606 801 567 779 q 693 822 644 822 q 697 822 696 822 q 699 822 697 822 m 479 71 q 640 28 582 71 q 699 -87 699 -15 q 656 -199 699 -151 q 540 -272 614 -246 q 372 -299 467 -299 q 132 -245 215 -299 q 49 -111 49 -192 q 91 -10 49 -53 q 215 42 133 33 l 210 29 q 131 71 165 42 q 97 154 97 100 q 141 249 97 213 q 257 292 185 286 l 331 267 l 301 267 q 199 235 238 263 q 161 165 161 208 q 198 94 161 118 q 292 71 235 71 l 479 71 m 372 -240 q 513 -221 454 -240 q 602 -169 571 -201 q 633 -96 633 -136 q 591 -18 633 -47 q 463 11 549 11 l 265 11 q 157 -19 200 11 q 114 -101 114 -50 q 183 -202 114 -164 q 372 -240 251 -240 m 363 708 q 508 680 444 708 q 606 601 571 651 q 640 482 640 550 q 606 363 640 415 q 508 283 571 311 q 363 254 444 254 q 156 317 231 254 q 82 482 82 381 q 117 601 82 550 q 216 680 153 651 q 363 708 279 708 m 363 651 q 213 605 271 651 q 154 482 154 558 q 213 358 154 406 q 363 311 271 311 q 512 358 454 311 q 569 482 569 406 q 512 605 569 558 q 363 651 454 651 m 361 946 q 403 930 388 946 q 419 888 419 914 q 403 845 419 861 q 361 829 388 829 q 319 845 335 829 q 303 888 303 861 q 319 930 303 914 q 361 946 335 946 z "},"ɂ":{"ha":668,"x_min":29,"x_max":625,"o":"m 336 710 q 489 680 425 710 q 589 596 553 650 q 625 468 625 542 q 592 334 625 388 q 499 249 560 281 q 356 201 439 218 l 356 0 l 286 0 l 286 246 q 445 290 388 264 q 528 356 503 315 q 553 458 553 397 q 495 595 553 544 q 332 646 438 646 q 167 592 225 646 q 93 447 110 538 l 29 474 q 83 599 43 546 q 186 681 122 651 q 336 710 250 710 z "},"ḡ":{"ha":715,"x_min":49,"x_max":715,"o":"m 506 892 l 506 833 l 218 833 l 218 892 l 506 892 m 699 822 l 715 761 q 713 761 714 761 q 708 761 711 761 q 603 726 640 761 q 567 626 567 690 l 522 649 q 544 740 522 701 q 606 801 567 779 q 693 822 644 822 q 697 822 696 822 q 699 822 697 822 m 479 71 q 640 28 582 71 q 699 -87 699 -15 q 656 -199 699 -151 q 540 -272 614 -246 q 372 -299 467 -299 q 132 -245 215 -299 q 49 -111 49 -192 q 91 -10 49 -53 q 215 42 133 33 l 210 29 q 131 71 165 42 q 97 154 97 100 q 141 249 97 213 q 257 292 185 286 l 331 267 l 301 267 q 199 235 238 263 q 161 165 161 208 q 198 94 161 118 q 292 71 235 71 l 479 71 m 372 -240 q 513 -221 454 -240 q 602 -169 571 -201 q 633 -96 633 -136 q 591 -18 633 -47 q 463 11 549 11 l 265 11 q 157 -19 200 11 q 114 -101 114 -50 q 183 -202 114 -164 q 372 -240 251 -240 m 363 708 q 508 680 444 708 q 606 601 571 651 q 640 482 640 550 q 606 363 640 415 q 508 283 571 311 q 363 254 444 254 q 156 317 231 254 q 82 482 82 381 q 117 601 82 550 q 216 680 153 651 q 363 708 279 708 m 363 651 q 213 605 271 651 q 154 482 154 558 q 213 358 154 406 q 363 311 271 311 q 512 358 454 311 q 569 482 569 406 q 512 605 569 558 q 363 651 454 651 z "},"h":{"ha":831,"x_min":124,"x_max":714,"o":"m 124 0 l 124 1014 l 193 1014 l 193 553 q 292 667 224 626 q 449 708 360 708 q 586 680 526 708 q 680 594 646 651 q 714 451 714 536 l 714 0 l 644 0 l 644 429 q 588 595 644 542 q 442 649 532 649 q 320 618 376 649 q 228 531 264 588 q 193 392 193 474 l 193 0 l 124 0 z "},"ħ":{"ha":831,"x_min":4,"x_max":714,"o":"m 4 857 l 428 857 l 428 804 l 4 804 l 4 857 m 124 0 l 124 1014 l 193 1014 l 193 553 q 292 667 224 626 q 449 708 360 708 q 586 680 526 708 q 680 594 646 651 q 714 451 714 536 l 714 0 l 644 0 l 644 429 q 588 595 644 542 q 442 649 532 649 q 320 618 376 649 q 228 531 264 588 q 193 392 193 474 l 193 0 l 124 0 z "},"ḫ":{"ha":831,"x_min":124,"x_max":714,"o":"m 124 0 l 124 1014 l 193 1014 l 193 553 q 292 667 224 626 q 449 708 360 708 q 586 680 526 708 q 680 594 646 651 q 714 451 714 536 l 714 0 l 644 0 l 644 429 q 588 595 644 542 q 442 649 532 649 q 320 618 376 649 q 228 531 264 588 q 193 392 193 474 l 193 0 l 124 0 m 650 -104 q 599 -241 650 -190 q 463 -292 549 -292 q 326 -241 376 -292 q 275 -104 275 -190 l 332 -104 q 366 -200 332 -161 q 463 -239 400 -239 q 560 -200 526 -239 q 593 -104 593 -161 l 650 -104 z "},"ĥ":{"ha":831,"x_min":-32,"x_max":714,"o":"m 124 0 l 124 1014 l 193 1014 l 193 553 q 292 667 224 626 q 449 708 360 708 q 586 680 526 708 q 680 594 646 651 q 714 451 714 536 l 714 0 l 644 0 l 644 429 q 588 595 644 542 q 442 649 532 649 q 320 618 376 649 q 228 531 264 588 q 193 392 193 474 l 193 0 l 124 0 m 350 1082 l 283 1082 l 158 1244 l 33 1082 l -33 1082 l 119 1292 l 197 1292 l 350 1082 z "},"ḥ":{"ha":831,"x_min":124,"x_max":714,"o":"m 124 0 l 124 1014 l 193 1014 l 193 553 q 292 667 224 626 q 449 708 360 708 q 586 680 526 708 q 680 594 646 651 q 714 451 714 536 l 714 0 l 644 0 l 644 429 q 588 595 644 542 q 442 649 532 649 q 320 618 376 649 q 228 531 264 588 q 193 392 193 474 l 193 0 l 124 0 m 463 -224 q 440 -215 449 -224 q 432 -193 432 -207 q 440 -172 432 -179 q 463 -164 449 -164 q 485 -172 476 -164 q 493 -193 493 -179 q 485 -215 493 -207 q 463 -224 476 -224 z "},"i":{"ha":318,"x_min":100,"x_max":217,"o":"m 158 829 q 116 845 132 829 q 100 888 100 861 q 116 930 100 914 q 158 946 132 946 q 201 930 185 946 q 217 888 217 914 q 201 845 217 861 q 158 829 185 829 m 193 694 l 193 0 l 124 0 l 124 694 l 193 694 z "},"ı":{"ha":318,"x_min":124,"x_max":193,"o":"m 193 694 l 193 0 l 124 0 l 124 694 l 193 694 z "},"í":{"ha":318,"x_min":118,"x_max":306,"o":"m 193 694 l 193 0 l 124 0 l 124 694 l 193 694 m 229 1029 l 306 1029 l 175 810 l 118 810 l 229 1029 z "},"ĭ":{"ha":318,"x_min":-29,"x_max":347,"o":"m 193 694 l 193 0 l 124 0 l 124 694 l 193 694 m 346 992 q 295 855 346 906 q 158 804 244 804 q 22 855 72 804 q -29 992 -29 906 l 28 992 q 62 896 28 935 q 158 857 96 857 q 256 896 222 857 q 289 992 289 935 l 346 992 z "},"î":{"ha":318,"x_min":-35,"x_max":353,"o":"m 193 694 l 193 0 l 124 0 l 124 694 l 193 694 m 351 804 l 288 804 l 158 974 l 29 804 l -35 804 l 119 1021 l 197 1021 l 351 804 z "},"ȉ":{"ha":318,"x_min":-93,"x_max":310,"o":"m 193 694 l 193 0 l 124 0 l 124 694 l 193 694 m 94 810 l 36 810 l -93 1029 l -18 1029 l 94 810 m 310 810 l 251 810 l 122 1029 l 197 1029 l 310 810 z "},"ï":{"ha":318,"x_min":11,"x_max":307,"o":"m 250 819 q 209 835 225 819 q 193 875 193 850 q 209 917 193 901 q 250 932 225 932 q 292 917 276 932 q 307 875 307 901 q 292 835 307 850 q 250 819 276 819 m 67 819 q 26 835 42 819 q 11 875 11 850 q 27 917 11 901 q 67 932 43 932 q 108 917 93 932 q 124 875 124 901 q 108 835 124 850 q 67 819 93 819 m 193 694 l 193 0 l 124 0 l 124 694 l 193 694 z "},"ḯ":{"ha":318,"x_min":-29,"x_max":346,"o":"m 193 694 l 193 0 l 124 0 l 124 694 l 193 694 m 26 932 q 67 917 51 932 q 82 875 82 901 q 67 835 82 850 q 26 819 51 819 q -15 835 1 819 q -31 875 -31 850 q -15 917 -31 901 q 26 932 1 932 m 289 932 q 331 917 315 932 q 346 875 346 901 q 331 835 346 850 q 289 819 315 819 q 249 835 264 819 q 233 875 233 850 q 249 917 233 901 q 289 932 264 932 m 221 1238 l 294 1238 l 179 1024 l 122 1024 l 221 1238 z "},"ị":{"ha":318,"x_min":100,"x_max":217,"o":"m 158 829 q 116 845 132 829 q 100 888 100 861 q 116 930 100 914 q 158 946 132 946 q 201 930 185 946 q 217 888 217 914 q 201 845 217 861 q 158 829 185 829 m 193 694 l 193 0 l 124 0 l 124 694 l 193 694 m 158 -224 q 136 -215 144 -224 q 128 -193 128 -207 q 136 -172 128 -179 q 158 -164 144 -164 q 181 -172 172 -164 q 189 -193 189 -179 q 181 -215 189 -207 q 158 -224 172 -224 z "},"ì":{"ha":318,"x_min":10,"x_max":197,"o":"m 193 694 l 193 0 l 124 0 l 124 694 l 193 694 m 85 1029 l 196 810 l 139 810 l 10 1029 l 85 1029 z "},"ỉ":{"ha":318,"x_min":31,"x_max":265,"o":"m 193 694 l 193 0 l 124 0 l 124 694 l 193 694 m 150 778 l 125 813 q 186 859 167 836 q 206 914 206 882 q 190 957 206 940 q 144 974 174 974 q 102 960 119 974 q 72 924 85 946 l 29 953 q 74 1008 43 986 q 153 1029 106 1029 q 213 1016 188 1029 q 251 978 238 1003 q 265 924 265 954 q 252 865 265 892 q 213 818 239 839 q 150 778 188 797 z "},"ȋ":{"ha":318,"x_min":-29,"x_max":347,"o":"m 193 694 l 193 0 l 124 0 l 124 694 l 193 694 m 346 799 l 289 799 q 256 894 289 856 q 158 933 222 933 q 62 894 96 933 q 28 799 28 856 l -29 799 q 22 935 -29 883 q 158 986 72 986 q 295 935 244 986 q 346 799 346 883 z "},"ĳ":{"ha":635,"x_min":100,"x_max":535,"o":"m 158 829 q 116 845 132 829 q 100 888 100 861 q 116 930 100 914 q 158 946 132 946 q 201 930 185 946 q 217 888 217 914 q 201 845 217 861 q 158 829 185 829 m 193 694 l 193 0 l 124 0 l 124 694 l 193 694 m 476 829 q 434 845 450 829 q 418 888 418 861 q 434 930 418 914 q 476 946 450 946 q 519 930 503 946 q 535 888 535 914 q 519 845 535 861 q 476 829 503 829 m 511 694 l 511 -79 q 483 -204 511 -156 q 409 -276 454 -253 q 314 -299 364 -299 q 245 -287 276 -299 q 193 -260 214 -276 l 210 -194 q 255 -222 228 -211 q 313 -232 282 -232 q 406 -192 371 -232 q 442 -74 442 -153 l 442 694 l 511 694 z "},"ī":{"ha":318,"x_min":32,"x_max":285,"o":"m 285 892 l 285 833 l 32 833 l 32 892 l 285 892 m 193 694 l 193 0 l 124 0 l 124 694 l 193 694 z "},"į":{"ha":318,"x_min":-1,"x_max":221,"o":"m 132 -307 q 64 -292 94 -307 q 16 -249 33 -276 q -1 -183 -1 -222 q 17 -108 -1 -142 q 69 -43 35 -74 q 151 19 103 -12 l 193 0 q 87 -93 118 -51 q 56 -175 56 -135 q 78 -234 56 -212 q 139 -256 101 -256 q 177 -251 160 -256 q 206 -239 194 -246 l 221 -285 q 183 -300 206 -293 q 132 -307 161 -307 m 158 829 q 116 845 132 829 q 100 888 100 861 q 116 930 100 914 q 158 946 132 946 q 201 930 185 946 q 217 888 217 914 q 201 845 217 861 q 158 829 185 829 m 193 694 l 193 0 l 124 0 l 124 694 l 193 694 z "},"ĩ":{"ha":318,"x_min":-78,"x_max":394,"o":"m 193 694 l 193 0 l 124 0 l 124 694 l 193 694 m 394 974 q 372 889 389 924 q 326 838 354 854 q 258 821 299 821 q 194 835 221 821 q 147 868 168 850 q 106 901 126 886 q 61 915 86 915 q 6 890 25 915 q -22 819 -12 864 l -78 819 q -34 934 -69 896 q 63 972 1 972 q 124 958 97 972 q 171 925 150 943 q 212 892 192 907 q 257 878 232 878 q 313 903 294 878 q 339 974 331 928 l 394 974 z "},"j":{"ha":318,"x_min":-125,"x_max":217,"o":"m 158 829 q 116 845 132 829 q 100 888 100 861 q 116 930 100 914 q 158 946 132 946 q 201 930 185 946 q 217 888 217 914 q 201 845 217 861 q 158 829 185 829 m 193 694 l 193 -79 q 165 -204 193 -156 q 91 -276 136 -253 q -4 -299 46 -299 q -73 -287 -42 -299 q -125 -260 -104 -276 l -108 -194 q -63 -222 -90 -211 q -6 -232 -36 -232 q 88 -192 53 -232 q 124 -74 124 -153 l 124 694 l 193 694 z "},"ȷ":{"ha":318,"x_min":-125,"x_max":193,"o":"m 193 694 l 193 -79 q 165 -204 193 -156 q 91 -276 136 -253 q -4 -299 46 -299 q -73 -287 -42 -299 q -125 -260 -104 -276 l -108 -194 q -63 -222 -90 -211 q -6 -232 -36 -232 q 88 -192 53 -232 q 124 -74 124 -153 l 124 694 l 193 694 z "},"ĵ":{"ha":318,"x_min":-125,"x_max":353,"o":"m 193 694 l 193 -79 q 165 -204 193 -156 q 91 -276 136 -253 q -4 -299 46 -299 q -73 -287 -42 -299 q -125 -260 -104 -276 l -108 -194 q -63 -222 -90 -211 q -6 -232 -36 -232 q 88 -192 53 -232 q 124 -74 124 -153 l 124 694 l 193 694 m 351 804 l 288 804 l 158 974 l 29 804 l -35 804 l 119 1021 l 197 1021 l 351 804 z "},"k":{"ha":732,"x_min":124,"x_max":707,"o":"m 696 694 l 390 400 l 374 383 l 158 175 l 158 264 l 606 694 l 696 694 m 193 1014 l 193 0 l 124 0 l 124 1014 l 193 1014 m 394 436 l 707 0 l 622 0 l 338 396 l 394 436 z "},"ķ":{"ha":732,"x_min":124,"x_max":707,"o":"m 696 694 l 390 400 l 374 383 l 158 175 l 158 264 l 606 694 l 696 694 m 193 1014 l 193 0 l 124 0 l 124 1014 l 193 1014 m 394 436 l 707 0 l 622 0 l 338 396 l 394 436 m 471 -100 l 388 -324 l 332 -324 l 397 -100 l 471 -100 z "},"ĸ":{"ha":732,"x_min":124,"x_max":707,"o":"m 696 694 l 390 400 l 374 383 l 158 175 l 158 264 l 606 694 l 696 694 m 193 694 l 193 0 l 124 0 l 124 694 l 193 694 m 394 436 l 707 0 l 622 0 l 338 396 l 394 436 z "},"l":{"ha":381,"x_min":118,"x_max":367,"o":"m 188 1014 l 188 164 q 210 74 188 100 q 279 47 232 47 q 326 51 308 47 q 367 65 343 56 l 357 4 q 316 -9 339 -4 q 265 -14 293 -14 q 155 28 192 -14 q 118 161 118 71 l 118 1014 l 188 1014 z "},"ĺ":{"ha":381,"x_min":113,"x_max":367,"o":"m 188 1014 l 188 164 q 210 74 188 100 q 279 47 232 47 q 326 51 308 47 q 367 65 343 56 l 357 4 q 316 -9 339 -4 q 265 -14 293 -14 q 155 28 192 -14 q 118 161 118 71 l 118 1014 l 188 1014 m 113 1107 l 192 1292 l 264 1292 l 168 1107 l 113 1107 z "},"ľ":{"ha":386,"x_min":118,"x_max":386,"o":"m 386 1014 l 338 740 l 288 740 l 319 1014 l 386 1014 m 188 1014 l 188 164 q 210 74 188 100 q 279 47 232 47 q 326 51 308 47 q 367 65 343 56 l 357 4 q 316 -9 339 -4 q 265 -14 293 -14 q 155 28 192 -14 q 118 161 118 71 l 118 1014 l 188 1014 z "},"ļ":{"ha":381,"x_min":118,"x_max":367,"o":"m 188 1014 l 188 164 q 210 74 188 100 q 279 47 232 47 q 326 51 308 47 q 367 65 343 56 l 357 4 q 316 -9 339 -4 q 265 -14 293 -14 q 155 28 192 -14 q 118 161 118 71 l 118 1014 l 188 1014 m 286 -100 l 203 -324 l 147 -324 l 213 -100 l 286 -100 z "},"ŀ":{"ha":492,"x_min":118,"x_max":464,"o":"m 188 1014 l 188 164 q 210 74 188 100 q 279 47 232 47 q 326 51 308 47 q 367 65 343 56 l 357 4 q 316 -9 339 -4 q 265 -14 293 -14 q 155 28 192 -14 q 118 161 118 71 l 118 1014 l 188 1014 m 401 567 q 447 549 429 567 q 464 504 464 532 q 447 459 464 476 q 401 442 429 442 q 356 459 374 442 q 339 504 339 476 q 356 549 339 532 q 401 567 374 567 z "},"ḷ":{"ha":381,"x_min":118,"x_max":367,"o":"m 188 1014 l 188 164 q 210 74 188 100 q 279 47 232 47 q 326 51 308 47 q 367 65 343 56 l 357 4 q 316 -9 339 -4 q 265 -14 293 -14 q 155 28 192 -14 q 118 161 118 71 l 118 1014 l 188 1014 m 250 -224 q 228 -215 236 -224 q 219 -193 219 -207 q 228 -172 219 -179 q 250 -164 236 -164 q 272 -172 264 -164 q 281 -193 281 -179 q 272 -215 281 -207 q 250 -224 264 -224 z "},"ǉ":{"ha":697,"x_min":118,"x_max":597,"o":"m 188 1014 l 188 164 q 210 74 188 100 q 279 47 232 47 q 326 51 308 47 q 367 65 343 56 l 357 4 q 316 -9 339 -4 q 265 -14 293 -14 q 155 28 192 -14 q 118 161 118 71 l 118 1014 l 188 1014 m 539 829 q 497 845 513 829 q 481 888 481 861 q 497 930 481 914 q 539 946 513 946 q 581 930 565 946 q 597 888 597 914 q 581 845 597 861 q 539 829 565 829 m 574 694 l 574 -79 q 545 -204 574 -156 q 472 -276 517 -253 q 376 -299 426 -299 q 308 -287 339 -299 q 256 -260 276 -276 l 272 -194 q 317 -222 290 -211 q 375 -232 344 -232 q 469 -192 433 -232 q 504 -74 504 -153 l 504 694 l 574 694 z "},"ḻ":{"ha":381,"x_min":107,"x_max":393,"o":"m 393 -139 l 393 -197 l 107 -197 l 107 -139 l 393 -139 m 188 1014 l 188 164 q 210 74 188 100 q 279 47 232 47 q 326 51 308 47 q 367 65 343 56 l 357 4 q 316 -9 339 -4 q 265 -14 293 -14 q 155 28 192 -14 q 118 161 118 71 l 118 1014 l 188 1014 z "},"ł":{"ha":456,"x_min":38,"x_max":421,"o":"m 411 665 l 411 593 l 221 464 l 217 461 l 38 343 l 38 415 l 206 528 l 214 532 l 411 665 m 242 1014 l 242 164 q 264 74 242 100 q 332 47 286 47 q 378 51 361 47 q 421 65 396 56 l 411 4 q 369 -9 393 -4 q 318 -14 346 -14 q 208 28 244 -14 q 172 161 172 71 l 172 1014 l 242 1014 z "},"m":{"ha":1333,"x_min":124,"x_max":1217,"o":"m 124 0 l 124 694 l 186 694 l 190 550 q 290 667 221 625 q 443 708 358 708 q 599 665 533 708 q 690 539 665 622 q 749 630 708 592 q 843 689 789 668 q 956 710 897 710 q 1087 681 1028 710 q 1181 595 1146 653 q 1217 451 1217 538 l 1217 1 l 1147 1 l 1147 444 q 1092 598 1147 547 q 947 649 1038 649 q 826 617 882 649 q 738 530 771 586 q 706 400 706 474 l 706 0 l 636 0 l 636 443 q 581 597 636 546 q 436 647 525 647 q 318 617 374 647 q 228 529 263 586 q 193 393 193 472 l 193 0 l 124 0 z "},"ṃ":{"ha":1333,"x_min":124,"x_max":1217,"o":"m 124 0 l 124 694 l 186 694 l 190 550 q 290 667 221 625 q 443 708 358 708 q 599 665 533 708 q 690 539 665 622 q 749 630 708 592 q 843 689 789 668 q 956 710 897 710 q 1087 681 1028 710 q 1181 595 1146 653 q 1217 451 1217 538 l 1217 1 l 1147 1 l 1147 444 q 1092 598 1147 547 q 947 649 1038 649 q 826 617 882 649 q 738 530 771 586 q 706 400 706 474 l 706 0 l 636 0 l 636 443 q 581 597 636 546 q 436 647 525 647 q 318 617 374 647 q 228 529 263 586 q 193 393 193 472 l 193 0 l 124 0 m 671 -224 q 649 -215 657 -224 q 640 -193 640 -207 q 649 -172 640 -179 q 671 -164 657 -164 q 693 -172 685 -164 q 701 -193 701 -179 q 693 -215 701 -207 q 671 -224 685 -224 z "},"n":{"ha":831,"x_min":124,"x_max":714,"o":"m 124 0 l 124 694 l 186 694 l 192 521 l 181 531 q 239 628 200 588 q 332 688 278 668 q 449 708 386 708 q 586 679 526 708 q 680 593 646 650 q 714 450 714 536 l 714 0 l 644 0 l 644 428 q 588 594 644 542 q 442 647 532 647 q 320 617 376 647 q 228 531 264 588 q 193 392 193 474 l 193 0 l 124 0 z "},"ń":{"ha":831,"x_min":124,"x_max":714,"o":"m 124 0 l 124 694 l 186 694 l 192 521 l 181 531 q 239 628 200 588 q 332 688 278 668 q 449 708 386 708 q 586 679 526 708 q 680 593 646 650 q 714 450 714 536 l 714 0 l 644 0 l 644 428 q 588 594 644 542 q 442 647 532 647 q 320 617 376 647 q 228 531 264 588 q 193 392 193 474 l 193 0 l 124 0 m 496 1029 l 572 1029 l 442 810 l 385 810 l 496 1029 z "},"ň":{"ha":831,"x_min":124,"x_max":714,"o":"m 124 0 l 124 694 l 186 694 l 192 521 l 181 531 q 239 628 200 588 q 332 688 278 668 q 449 708 386 708 q 586 679 526 708 q 680 593 646 650 q 714 450 714 536 l 714 0 l 644 0 l 644 428 q 588 594 644 542 q 442 647 532 647 q 320 617 376 647 q 228 531 264 588 q 193 392 193 474 l 193 0 l 124 0 m 618 1025 l 464 810 l 386 810 l 232 1025 l 296 1025 l 425 857 l 554 1025 l 618 1025 z "},"ņ":{"ha":831,"x_min":124,"x_max":714,"o":"m 124 0 l 124 694 l 186 694 l 192 521 l 181 531 q 239 628 200 588 q 332 688 278 668 q 449 708 386 708 q 586 679 526 708 q 680 593 646 650 q 714 450 714 536 l 714 0 l 644 0 l 644 428 q 588 594 644 542 q 442 647 532 647 q 320 617 376 647 q 228 531 264 588 q 193 392 193 474 l 193 0 l 124 0 m 499 -100 l 415 -324 l 360 -324 l 425 -100 l 499 -100 z "},"ṅ":{"ha":831,"x_min":124,"x_max":714,"o":"m 124 0 l 124 694 l 186 694 l 192 521 l 181 531 q 239 628 200 588 q 332 688 278 668 q 449 708 386 708 q 586 679 526 708 q 680 593 646 650 q 714 450 714 536 l 714 0 l 644 0 l 644 428 q 588 594 644 542 q 442 647 532 647 q 320 617 376 647 q 228 531 264 588 q 193 392 193 474 l 193 0 l 124 0 m 425 946 q 467 930 451 946 q 483 888 483 914 q 467 845 483 861 q 425 829 451 829 q 383 845 399 829 q 367 888 367 861 q 383 930 367 914 q 425 946 399 946 z "},"ṇ":{"ha":831,"x_min":124,"x_max":714,"o":"m 124 0 l 124 694 l 186 694 l 192 521 l 181 531 q 239 628 200 588 q 332 688 278 668 q 449 708 386 708 q 586 679 526 708 q 680 593 646 650 q 714 450 714 536 l 714 0 l 644 0 l 644 428 q 588 594 644 542 q 442 647 532 647 q 320 617 376 647 q 228 531 264 588 q 193 392 193 474 l 193 0 l 124 0 m 463 -224 q 440 -215 449 -224 q 432 -193 432 -207 q 440 -172 432 -179 q 463 -164 449 -164 q 485 -172 476 -164 q 493 -193 493 -179 q 485 -215 493 -207 q 463 -224 476 -224 z "},"ŋ":{"ha":831,"x_min":124,"x_max":714,"o":"m 714 263 l 714 -79 q 685 -204 714 -156 q 612 -276 657 -253 q 517 -299 567 -299 q 448 -287 479 -299 q 396 -260 417 -276 l 411 -194 q 458 -222 431 -211 q 515 -232 485 -232 q 609 -192 574 -232 q 644 -74 644 -153 l 644 263 l 714 263 m 124 0 l 124 694 l 186 694 l 192 521 l 181 531 q 239 628 200 588 q 332 688 278 668 q 449 708 386 708 q 586 679 526 708 q 680 593 646 650 q 714 450 714 536 l 714 0 l 644 0 l 644 428 q 588 594 644 542 q 442 647 532 647 q 320 617 376 647 q 228 531 264 588 q 193 392 193 474 l 193 0 l 124 0 z "},"ǌ":{"ha":1147,"x_min":124,"x_max":1047,"o":"m 124 0 l 124 694 l 186 694 l 192 521 l 181 531 q 239 628 200 588 q 332 688 278 668 q 449 708 386 708 q 586 679 526 708 q 680 593 646 650 q 714 450 714 536 l 714 0 l 644 0 l 644 428 q 588 594 644 542 q 442 647 532 647 q 320 617 376 647 q 228 531 264 588 q 193 392 193 474 l 193 0 l 124 0 m 989 829 q 947 845 963 829 q 931 888 931 861 q 947 930 931 914 q 989 946 963 946 q 1031 930 1015 946 q 1047 888 1047 914 q 1031 845 1047 861 q 989 829 1015 829 m 1024 694 l 1024 -79 q 995 -204 1024 -156 q 922 -276 967 -253 q 826 -299 876 -299 q 758 -287 789 -299 q 706 -260 726 -276 l 722 -194 q 767 -222 740 -211 q 825 -232 794 -232 q 919 -192 883 -232 q 954 -74 954 -153 l 954 694 l 1024 694 z "},"ṉ":{"ha":831,"x_min":124,"x_max":714,"o":"m 124 0 l 124 694 l 186 694 l 192 521 l 181 531 q 239 628 200 588 q 332 688 278 668 q 449 708 386 708 q 586 679 526 708 q 680 593 646 650 q 714 450 714 536 l 714 0 l 644 0 l 644 428 q 588 594 644 542 q 442 647 532 647 q 320 617 376 647 q 228 531 264 588 q 193 392 193 474 l 193 0 l 124 0 m 678 -140 l 678 -199 l 247 -199 l 247 -140 l 678 -140 z "},"ñ":{"ha":831,"x_min":124,"x_max":714,"o":"m 124 0 l 124 694 l 186 694 l 192 521 l 181 531 q 239 628 200 588 q 332 688 278 668 q 449 708 386 708 q 586 679 526 708 q 680 593 646 650 q 714 450 714 536 l 714 0 l 644 0 l 644 428 q 588 594 644 542 q 442 647 532 647 q 320 617 376 647 q 228 531 264 588 q 193 392 193 474 l 193 0 l 124 0 m 661 974 q 638 889 656 924 q 593 838 621 854 q 525 821 565 821 q 461 835 488 821 q 414 868 435 850 q 373 901 393 886 q 328 915 353 915 q 273 890 292 915 q 244 819 254 864 l 189 819 q 233 934 197 896 q 329 972 268 972 q 390 958 364 972 q 438 925 417 943 q 478 892 458 907 q 524 878 499 878 q 579 903 561 878 q 606 974 597 928 l 661 974 z "},"o":{"ha":813,"x_min":76,"x_max":738,"o":"m 407 708 q 578 665 504 708 q 695 541 653 622 q 738 347 738 460 q 695 153 738 235 q 578 29 653 72 q 407 -14 504 -14 q 235 29 310 -14 q 119 153 161 72 q 76 347 76 235 q 119 541 76 460 q 235 665 161 622 q 407 708 310 708 m 407 649 q 269 613 328 649 q 178 509 211 576 q 146 347 146 442 q 178 186 146 254 q 269 82 211 118 q 407 46 328 46 q 544 82 486 46 q 635 186 603 118 q 668 347 668 254 q 635 509 668 442 q 544 613 603 576 q 407 649 486 649 z "},"ó":{"ha":813,"x_min":76,"x_max":738,"o":"m 407 708 q 578 665 504 708 q 695 541 653 622 q 738 347 738 460 q 695 153 738 235 q 578 29 653 72 q 407 -14 504 -14 q 235 29 310 -14 q 119 153 161 72 q 76 347 76 235 q 119 541 76 460 q 235 665 161 622 q 407 708 310 708 m 407 649 q 269 613 328 649 q 178 509 211 576 q 146 347 146 442 q 178 186 146 254 q 269 82 211 118 q 407 46 328 46 q 544 82 486 46 q 635 186 603 118 q 668 347 668 254 q 635 509 668 442 q 544 613 603 576 q 407 649 486 649 m 478 1026 l 554 1026 l 424 807 l 367 807 l 478 1026 z "},"ŏ":{"ha":813,"x_min":76,"x_max":738,"o":"m 407 708 q 578 665 504 708 q 695 541 653 622 q 738 347 738 460 q 695 153 738 235 q 578 29 653 72 q 407 -14 504 -14 q 235 29 310 -14 q 119 153 161 72 q 76 347 76 235 q 119 541 76 460 q 235 665 161 622 q 407 708 310 708 m 407 649 q 269 613 328 649 q 178 509 211 576 q 146 347 146 442 q 178 186 146 254 q 269 82 211 118 q 407 46 328 46 q 544 82 486 46 q 635 186 603 118 q 668 347 668 254 q 635 509 668 442 q 544 613 603 576 q 407 649 486 649 m 594 989 q 544 852 594 903 q 407 801 493 801 q 270 852 321 801 q 219 989 219 903 l 276 989 q 310 893 276 932 q 407 854 344 854 q 504 893 471 854 q 538 989 538 932 l 594 989 z "},"ô":{"ha":813,"x_min":76,"x_max":738,"o":"m 407 708 q 578 665 504 708 q 695 541 653 622 q 738 347 738 460 q 695 153 738 235 q 578 29 653 72 q 407 -14 504 -14 q 235 29 310 -14 q 119 153 161 72 q 76 347 76 235 q 119 541 76 460 q 235 665 161 622 q 407 708 310 708 m 407 649 q 269 613 328 649 q 178 509 211 576 q 146 347 146 442 q 178 186 146 254 q 269 82 211 118 q 407 46 328 46 q 544 82 486 46 q 635 186 603 118 q 668 347 668 254 q 635 509 668 442 q 544 613 603 576 q 407 649 486 649 m 600 801 l 536 801 l 407 971 l 278 801 l 214 801 l 368 1018 l 446 1018 l 600 801 z "},"ố":{"ha":813,"x_min":76,"x_max":738,"o":"m 644 1153 l 711 1153 l 608 961 l 557 961 l 644 1153 m 600 801 l 536 801 l 407 971 l 278 801 l 214 801 l 368 1018 l 446 1018 l 600 801 m 407 708 q 578 665 504 708 q 695 541 653 622 q 738 347 738 460 q 695 153 738 235 q 578 29 653 72 q 407 -14 504 -14 q 235 29 310 -14 q 119 153 161 72 q 76 347 76 235 q 119 541 76 460 q 235 665 161 622 q 407 708 310 708 m 407 649 q 269 613 328 649 q 178 509 211 576 q 146 347 146 442 q 178 186 146 254 q 269 82 211 118 q 407 46 328 46 q 544 82 486 46 q 635 186 603 118 q 668 347 668 254 q 635 509 668 442 q 544 613 603 576 q 407 649 486 649 z "},"ộ":{"ha":813,"x_min":76,"x_max":738,"o":"m 407 708 q 578 665 504 708 q 695 541 653 622 q 738 347 738 460 q 695 153 738 235 q 578 29 653 72 q 407 -14 504 -14 q 235 29 310 -14 q 119 153 161 72 q 76 347 76 235 q 119 541 76 460 q 235 665 161 622 q 407 708 310 708 m 407 649 q 269 613 328 649 q 178 509 211 576 q 146 347 146 442 q 178 186 146 254 q 269 82 211 118 q 407 46 328 46 q 544 82 486 46 q 635 186 603 118 q 668 347 668 254 q 635 509 668 442 q 544 613 603 576 q 407 649 486 649 m 407 -224 q 385 -215 393 -224 q 376 -193 376 -207 q 385 -172 376 -179 q 407 -164 393 -164 q 429 -172 421 -164 q 438 -193 438 -179 q 429 -215 438 -207 q 407 -224 421 -224 m 600 801 l 536 801 l 407 971 l 278 801 l 214 801 l 368 1018 l 446 1018 l 600 801 z "},"ồ":{"ha":813,"x_min":76,"x_max":738,"o":"m 544 1153 l 632 961 l 582 961 l 479 1153 l 544 1153 m 600 801 l 536 801 l 407 971 l 278 801 l 214 801 l 368 1018 l 446 1018 l 600 801 m 407 708 q 578 665 504 708 q 695 541 653 622 q 738 347 738 460 q 695 153 738 235 q 578 29 653 72 q 407 -14 504 -14 q 235 29 310 -14 q 119 153 161 72 q 76 347 76 235 q 119 541 76 460 q 235 665 161 622 q 407 708 310 708 m 407 649 q 269 613 328 649 q 178 509 211 576 q 146 347 146 442 q 178 186 146 254 q 269 82 211 118 q 407 46 328 46 q 544 82 486 46 q 635 186 603 118 q 668 347 668 254 q 635 509 668 442 q 544 613 603 576 q 407 649 486 649 z "},"ổ":{"ha":813,"x_min":76,"x_max":738,"o":"m 590 935 l 564 965 q 621 1008 603 986 q 639 1060 639 1029 q 623 1099 639 1083 q 579 1114 607 1114 q 538 1101 554 1114 q 511 1068 521 1089 l 468 1096 q 515 1150 483 1131 q 589 1169 546 1169 q 645 1156 621 1169 q 683 1120 669 1143 q 697 1069 697 1097 q 685 1013 697 1039 q 649 968 674 988 q 590 935 625 949 m 600 801 l 536 801 l 407 971 l 278 801 l 214 801 l 368 1018 l 446 1018 l 600 801 m 407 708 q 578 665 504 708 q 695 541 653 622 q 738 347 738 460 q 695 153 738 235 q 578 29 653 72 q 407 -14 504 -14 q 235 29 310 -14 q 119 153 161 72 q 76 347 76 235 q 119 541 76 460 q 235 665 161 622 q 407 708 310 708 m 407 649 q 269 613 328 649 q 178 509 211 576 q 146 347 146 442 q 178 186 146 254 q 269 82 211 118 q 407 46 328 46 q 544 82 486 46 q 635 186 603 118 q 668 347 668 254 q 635 509 668 442 q 544 613 603 576 q 407 649 486 649 z "},"ỗ":{"ha":813,"x_min":76,"x_max":738,"o":"m 600 801 l 536 801 l 407 971 l 278 801 l 214 801 l 368 1018 l 446 1018 l 600 801 m 633 1200 q 590 1090 624 1125 q 500 1054 556 1054 q 437 1068 461 1054 q 395 1100 413 1082 q 359 1132 378 1118 q 313 1146 340 1146 q 263 1124 279 1146 q 238 1057 246 1101 l 181 1057 q 224 1167 190 1132 q 314 1203 257 1203 q 376 1189 351 1203 q 418 1157 400 1175 q 455 1125 436 1139 q 500 1111 474 1111 q 551 1133 533 1111 q 576 1200 568 1156 l 633 1200 m 407 708 q 578 665 504 708 q 695 541 653 622 q 738 347 738 460 q 695 153 738 235 q 578 29 653 72 q 407 -14 504 -14 q 235 29 310 -14 q 119 153 161 72 q 76 347 76 235 q 119 541 76 460 q 235 665 161 622 q 407 708 310 708 m 407 649 q 269 613 328 649 q 178 509 211 576 q 146 347 146 442 q 178 186 146 254 q 269 82 211 118 q 407 46 328 46 q 544 82 486 46 q 635 186 603 118 q 668 347 668 254 q 635 509 668 442 q 544 613 603 576 q 407 649 486 649 z "},"ȍ":{"ha":813,"x_min":76,"x_max":738,"o":"m 407 708 q 578 665 504 708 q 695 541 653 622 q 738 347 738 460 q 695 153 738 235 q 578 29 653 72 q 407 -14 504 -14 q 235 29 310 -14 q 119 153 161 72 q 76 347 76 235 q 119 541 76 460 q 235 665 161 622 q 407 708 310 708 m 407 649 q 269 613 328 649 q 178 509 211 576 q 146 347 146 442 q 178 186 146 254 q 269 82 211 118 q 407 46 328 46 q 544 82 486 46 q 635 186 603 118 q 668 347 668 254 q 635 509 668 442 q 544 613 603 576 q 407 649 486 649 m 343 807 l 285 807 l 156 1026 l 231 1026 l 343 807 m 558 807 l 500 807 l 371 1026 l 446 1026 l 558 807 z "},"ö":{"ha":813,"x_min":76,"x_max":738,"o":"m 407 708 q 578 665 504 708 q 695 541 653 622 q 738 347 738 460 q 695 153 738 235 q 578 29 653 72 q 407 -14 504 -14 q 235 29 310 -14 q 119 153 161 72 q 76 347 76 235 q 119 541 76 460 q 235 665 161 622 q 407 708 310 708 m 407 649 q 269 613 328 649 q 178 509 211 576 q 146 347 146 442 q 178 186 146 254 q 269 82 211 118 q 407 46 328 46 q 544 82 486 46 q 635 186 603 118 q 668 347 668 254 q 635 509 668 442 q 544 613 603 576 q 407 649 486 649 m 275 929 q 315 914 300 929 q 331 872 331 899 q 315 832 331 847 q 275 817 300 817 q 234 832 250 817 q 218 872 218 847 q 234 914 218 899 q 275 929 250 929 m 538 929 q 579 914 564 929 q 594 872 594 899 q 579 832 594 847 q 538 817 564 817 q 497 832 513 817 q 482 872 482 847 q 497 914 482 899 q 538 929 513 929 z "},"ȫ":{"ha":813,"x_min":76,"x_max":738,"o":"m 407 708 q 578 665 504 708 q 695 541 653 622 q 738 347 738 460 q 695 153 738 235 q 578 29 653 72 q 407 -14 504 -14 q 235 29 310 -14 q 119 153 161 72 q 76 347 76 235 q 119 541 76 460 q 235 665 161 622 q 407 708 310 708 m 407 649 q 269 613 328 649 q 178 509 211 576 q 146 347 146 442 q 178 186 146 254 q 269 82 211 118 q 407 46 328 46 q 544 82 486 46 q 635 186 603 118 q 668 347 668 254 q 635 509 668 442 q 544 613 603 576 q 407 649 486 649 m 275 929 q 315 914 300 929 q 331 872 331 899 q 315 832 331 847 q 275 817 300 817 q 234 832 250 817 q 218 872 218 847 q 234 914 218 899 q 275 929 250 929 m 538 929 q 579 914 564 929 q 594 872 594 899 q 579 832 594 847 q 538 817 564 817 q 497 832 513 817 q 482 872 482 847 q 497 914 482 899 q 538 929 513 929 m 622 1104 l 622 1046 l 192 1046 l 192 1104 l 622 1104 z "},"ȱ":{"ha":813,"x_min":76,"x_max":738,"o":"m 407 708 q 578 665 504 708 q 695 541 653 622 q 738 347 738 460 q 695 153 738 235 q 578 29 653 72 q 407 -14 504 -14 q 235 29 310 -14 q 119 153 161 72 q 76 347 76 235 q 119 541 76 460 q 235 665 161 622 q 407 708 310 708 m 407 649 q 269 613 328 649 q 178 509 211 576 q 146 347 146 442 q 178 186 146 254 q 269 82 211 118 q 407 46 328 46 q 544 82 486 46 q 635 186 603 118 q 668 347 668 254 q 635 509 668 442 q 544 613 603 576 q 407 649 486 649 m 407 943 q 449 927 433 943 q 465 885 465 911 q 449 842 465 858 q 407 826 433 826 q 365 842 381 826 q 349 885 349 858 q 365 927 349 911 q 407 943 381 943 m 622 1118 l 622 1060 l 192 1060 l 192 1118 l 622 1118 z "}}}
